<mxfile modified="2021-08-11T04:31:40.370Z" host="app.diagrams.net" agent="5.0 (Windows NT 10.0; Win64; x64) AppleWebKit/537.36 (KHTML, like Gecko) Chrome/92.0.4515.131 Safari/537.36" etag="OzbQ4eRtDJczuoif9MRg" version="14.9.6" type="github">
  <diagram id="Ht1M8jgEwFfnCIfOTk4-" name="Page-1">
    <mxGraphModel dx="2556" dy="1921" grid="1" gridSize="10" guides="1" tooltips="1" connect="1" arrows="1" fold="1" page="1" pageScale="1" pageWidth="1169" pageHeight="827" math="0" shadow="0">
      <root>
        <mxCell id="0" />
        <mxCell id="1" parent="0" />
        <mxCell id="i5n1sK8Q0XAGS0bfE9qC-21" value="" style="rounded=0;whiteSpace=wrap;html=1;fillColor=#FFFFFF;strokeColor=#000000;" parent="1" vertex="1">
          <mxGeometry x="490" y="-671.25" width="600" height="546.5" as="geometry" />
        </mxCell>
        <mxCell id="UEzPUAAOIrF-is8g5C7q-149" value="&lt;font color=&quot;#424c62&quot;&gt;Amazon DynamoDB&lt;/font&gt;" style="outlineConnect=0;fontColor=#232F3E;gradientColor=#4D72F3;gradientDirection=north;fillColor=#3334B9;strokeColor=#ffffff;dashed=0;verticalLabelPosition=bottom;verticalAlign=top;align=center;html=1;fontSize=12;fontStyle=0;aspect=fixed;shape=mxgraph.aws4.resourceIcon;resIcon=mxgraph.aws4.dynamodb;labelBackgroundColor=#ffffff;" parent="1" vertex="1">
          <mxGeometry x="659" y="-250" width="78" height="78" as="geometry" />
        </mxCell>
        <mxCell id="ikkZ2RPByDkFbhjG17x8-3" value="" style="group" parent="1" vertex="1" connectable="0">
          <mxGeometry x="600" y="-656" width="90" height="98" as="geometry" />
        </mxCell>
        <mxCell id="ikkZ2RPByDkFbhjG17x8-1" value="" style="points=[[0,0,0],[0.25,0,0],[0.5,0,0],[0.75,0,0],[1,0,0],[0,1,0],[0.25,1,0],[0.5,1,0],[0.75,1,0],[1,1,0],[0,0.25,0],[0,0.5,0],[0,0.75,0],[1,0.25,0],[1,0.5,0],[1,0.75,0]];outlineConnect=0;fontColor=#232F3E;gradientColor=#F78E04;gradientDirection=north;fillColor=#D05C17;strokeColor=#ffffff;dashed=0;verticalLabelPosition=bottom;verticalAlign=top;align=center;html=1;fontSize=12;fontStyle=0;aspect=fixed;shape=mxgraph.aws4.resourceIcon;resIcon=mxgraph.aws4.lambda;" parent="ikkZ2RPByDkFbhjG17x8-3" vertex="1">
          <mxGeometry x="6" width="78" height="78" as="geometry" />
        </mxCell>
        <mxCell id="ikkZ2RPByDkFbhjG17x8-2" value="&lt;font color=&quot;#424c62&quot;&gt;AWS Lambda&lt;/font&gt;" style="text;html=1;align=center;verticalAlign=middle;resizable=0;points=[];autosize=1;strokeColor=none;" parent="ikkZ2RPByDkFbhjG17x8-3" vertex="1">
          <mxGeometry y="78" width="90" height="20" as="geometry" />
        </mxCell>
        <mxCell id="ikkZ2RPByDkFbhjG17x8-9" style="edgeStyle=orthogonalEdgeStyle;rounded=0;orthogonalLoop=1;jettySize=auto;html=1;entryX=0.08;entryY=0.5;entryDx=0;entryDy=0;entryPerimeter=0;endArrow=blockThin;endFill=1;strokeColor=#424C62;strokeWidth=3;" parent="1" target="ikkZ2RPByDkFbhjG17x8-8" edge="1">
          <mxGeometry relative="1" as="geometry">
            <mxPoint x="360" y="-405" as="sourcePoint" />
          </mxGeometry>
        </mxCell>
        <mxCell id="ikkZ2RPByDkFbhjG17x8-7" value="&lt;font color=&quot;#424c62&quot;&gt;SME Owner&lt;/font&gt;" style="verticalLabelPosition=bottom;html=1;verticalAlign=top;align=center;strokeColor=none;shape=mxgraph.azure.user;fillColor=#424C62;" parent="1" vertex="1">
          <mxGeometry x="305" y="-440" width="50" height="52" as="geometry" />
        </mxCell>
        <mxCell id="ikkZ2RPByDkFbhjG17x8-8" value="&lt;font color=&quot;#424c62&quot;&gt;Device&lt;br&gt;&lt;/font&gt;" style="verticalLabelPosition=bottom;html=1;verticalAlign=top;align=center;strokeColor=none;shape=mxgraph.azure.laptop;pointerEvents=1;fillColor=#424C62;strokeWidth=1;" parent="1" vertex="1">
          <mxGeometry x="410" y="-430.5" width="60" height="50" as="geometry" />
        </mxCell>
        <mxCell id="SApSs6qKskoGzllOL-Yo-5" style="edgeStyle=orthogonalEdgeStyle;rounded=0;orthogonalLoop=1;jettySize=auto;html=1;startArrow=none;startFill=0;endArrow=blockThin;endFill=1;strokeColor=#424C62;strokeWidth=3;exitX=0.51;exitY=1.197;exitDx=0;exitDy=0;exitPerimeter=0;" parent="1" source="SApSs6qKskoGzllOL-Yo-1" target="UEzPUAAOIrF-is8g5C7q-149" edge="1">
          <mxGeometry relative="1" as="geometry">
            <mxPoint x="608" y="-329" as="sourcePoint" />
          </mxGeometry>
        </mxCell>
        <mxCell id="SApSs6qKskoGzllOL-Yo-7" value="" style="group;strokeWidth=1;" parent="1" vertex="1" connectable="0">
          <mxGeometry x="1127.25" y="-651" width="101.78000000000003" height="115" as="geometry" />
        </mxCell>
        <mxCell id="ikkZ2RPByDkFbhjG17x8-12" value="" style="whiteSpace=wrap;html=1;aspect=fixed;strokeColor=#424C62;strokeWidth=3;" parent="SApSs6qKskoGzllOL-Yo-7" vertex="1">
          <mxGeometry width="90" height="90" as="geometry" />
        </mxCell>
        <mxCell id="ikkZ2RPByDkFbhjG17x8-13" value="&lt;font color=&quot;#424c62&quot;&gt;MYOB API&lt;/font&gt;" style="text;html=1;align=center;verticalAlign=middle;resizable=0;points=[];autosize=1;strokeColor=none;" parent="SApSs6qKskoGzllOL-Yo-7" vertex="1">
          <mxGeometry x="5.625" y="92" width="70" height="20" as="geometry" />
        </mxCell>
        <mxCell id="SApSs6qKskoGzllOL-Yo-45" value="" style="shape=image;verticalLabelPosition=bottom;labelBackgroundColor=#ffffff;verticalAlign=top;aspect=fixed;imageAspect=0;image=data:image/jpeg,/9j/4AAQSkZJRgABAQEAYABgAAD//gA8Q1JFQVRPUjogZ2QtanBlZyB2MS4wICh1c2luZyBJSkcgSlBFRyB2ODApLCBxdWFsaXR5ID0gMTAwCv/bAEMAAQEBAQEBAQEBAQEBAQEBAQEBAQEBAQEBAQEBAQEBAQEBAQEBAQEBAQEBAQEBAQEBAQEBAQEBAQEBAQEBAQEBAf/bAEMBAQEBAQEBAQEBAQEBAQEBAQEBAQEBAQEBAQEBAQEBAQEBAQEBAQEBAQEBAQEBAQEBAQEBAQEBAQEBAQEBAQEBAf/AABEIARgCEgMBEQACEQEDEQH/xAAfAAABBQEBAQEBAQAAAAAAAAAAAQIDBAUGBwgJCgv/xAC1EAACAQMDAgQDBQUEBAAAAX0BAgMABBEFEiExQQYTUWEHInEUMoGRoQgjQrHBFVLR8CQzYnKCCQoWFxgZGiUmJygpKjQ1Njc4OTpDREVGR0hJSlNUVVZXWFlaY2RlZmdoaWpzdHV2d3h5eoOEhYaHiImKkpOUlZaXmJmaoqOkpaanqKmqsrO0tba3uLm6wsPExcbHyMnK0tPU1dbX2Nna4eLj5OXm5+jp6vHy8/T19vf4+fr/xAAfAQADAQEBAQEBAQEBAAAAAAAAAQIDBAUGBwgJCgv/xAC1EQACAQIEBAMEBwUEBAABAncAAQIDEQQFITEGEkFRB2FxEyIygQgUQpGhscEJIzNS8BVictEKFiQ04SXxFxgZGiYnKCkqNTY3ODk6Q0RFRkdISUpTVFVWV1hZWmNkZWZnaGlqc3R1dnd4eXqCg4SFhoeIiYqSk5SVlpeYmZqio6Slpqeoqaqys7S1tre4ubrCw8TFxsfIycrS09TV1tfY2dri4+Tl5ufo6ery8/T19vf4+fr/2gAMAwEAAhEDEQA/AP79SP8Abxx+PpzyDwfy5z3yALzzlvUDjjt29ueefc8YoAQ5/vY5PY/49B19Pw4oAXjI59xnORwOOvoMnPr05oAPTB4yPX+70/LnP9RyAJ3+9/d9eTjPr3Htg+5oAX8f59j9fw5z0PbNACYwB83B9c/h34A4/r2wAL+PPPTPrnHB49PX0oATHfdwRxyfT3P1PPT34IAFOeOe/T6kcdfb+fQdAA5HGefXntjqCcZOexB6Y6mgBOn8Xcep7n378jn07kZoANpOMt3GPwB6cnk9c0AKQcde3vknB9x9fw54FACYPY469iT2Pfk+p9zg5oAU/X09euRyOvTt2yee+QAPue3+16jHAOc8465OfwAAmD0z1Pow9emCPQn9fSgBfx54PGSOh9+nfjHTmgBMd846DuBnGTnJ9Ppj680AL369unzDPH1PP4Z5zjOKAE2nBwecn1A6/wBOexzn8aADnjnALfnyT1z3/wA89QBR9c8D19xnqRz9CPX1oATnru7e/PB7A/jkenGMHIAYJH3uMd/93HJzx6/jQAu3A6/ic8DGPUfX/wDVmgAI65PYj3HT8T6nnvigA/H+LHcc5HHJ9M8DjnpQAmD/AHvT154Pv39jjj60AHbO7t/tY6D3yOOc+/rigBfqfUd/TPPPbrznjpigAx0yTxk/xDjA9T9M/wCOaADB9fX16469ccfkDwMGgA69/XsexHv17cYPPFACc88jpyf++uOuRjPvQAuOnzfz5+X2Ptn/ADyABGf4sfoRxn1GfXBwR3PYgByc4buc8H26ZPb+vGKAAL1OepPHOP0I5Hf/AOtQAY9wec/+PD3PTpj39aAAdxn1Pfpu55zj1GevegBOePm7frtHfOP9r9R3NAC4/wBrp/vex/vZPHp6+tAAM+o5z69j6Z6euMfiKAGYOeD9c5Bzjv8A0wT+IoAcR159T3wAd3Pcfy+uTmgBMHn5ufxHHzY6nn88Dnr3AFx1OT65OcgfN24/DH5eoAhHX5sZ5xzyOf0PJOBjvjGKADBx1PfjkZOW/H8OT60ALj3POR3PHPryMc8cn35oAAPc8YA6/wCz/P0yP8AA9DnqB745X379+nXvQAgHI5zxnHP+z759DzwMdMUAGDkc/wA+mF7c4989TQAuOnJJ7EE9Plznk4z+XP0oACORyeo4wefu8nPHp2/XigBGBGOeRnHXpgdO31PHvxQApU+vYjjPP3jjvxj6nt9QBMf7XqR168556D34H0HcAME9yeoxz/tYwc4+uc46E9qAAjnO7HUZx35468Y5x35+lAAAefmx6nB/2s9f/rAH3oAMHnk8ZI6n1x168dDkDsc9wAKgk8nqf4TQAv1OeTwCcdRjoOxIHPTOfagBSOv19T6dOh45zj6duAAB9T0+p7dsY56c+xPXAoACOmcdck55zx7dODkcDAB4oATHPHYgDn0HpgZyOvPtkCgAIP54Gd3TqP7uB1P49OcUALg/y7nsfp6e3P6kAMcfjxzx1GB06encdAeaAAg88/r3zx249Mc5/WgBMH2xjHU56fQc/hxk9egAFI/mD19Me2c4Hr3NABjocD8zz0wc49P045zQAc9f5k+ufT+nsMYoAME4B6cd+eM+w/MYPuaADB6eg7Hkn8uvv7569AAA69MnPQ+w9se+ccZ96AFwevBPufcHHT9evA/AAQA9M+vfPpyMjPGf5euaADn25PUHPcnup/Xj0xQAAHP/ANc45z7D247fzADB/wAnPIHBPy9fU+nr0IAEHvjH+8R2+nPA75oACCemOpPX6+g/r3I9CABMewHUdfc9Pl479OcH16AC4PTqOOpz9f4e/Pf8qADn8vc+n059+ue/TFABhvb8/bH938ecj2oAMEcD8884A+n16dM8Y7ABg9M+vfn69P0HAzkc4oACD7dhyfcdeO+P1oAMH6dBwc/jyOuMde3cUAGMc+nPX0GPQ9uPXAHvQAYP6Y4OO3suPbPoB9CABB/r15xjBGNp49ueaADB/n35/lkduh9+TQAYPPJ656//AFj+XPbHrQAmMZ4Hr1+v+z6Ejnt06UALg/X1BOR/6D9emPy4AAYPT2Pc9cfTHX+pxmgAIPb37n9eM+/XPXmgAxjnHPJxnjPtx6d/zznNABg/5Y+vTp39evOBgYoAMH6855Pvn+77fqaAADp0454J54+nQnBP589wAwfx+vqAPTH6dhxyaADk8+/r6cHsCfcH0HagBB1x2/3s9VPTjPT/ABHGaADbn369/wDe+vQnr9ePUADzn8e/HRgeMdR+PH50ABH0/PB/i9QeME/T8M0AKRwemRzwcc8/l3+vQnjNACYOD+PfA/i5I9OR3/lyAGM575z36DkDsfU/T68UAAGD/Lk/7Oe35eo7Y6ACgHI68DHX/d/wPbn2zQADOeoPpz/u9eMe/wCPHrQAmOR0xkHqP9kdxjjtjHB4x0oAOmB7jv1A2jPT6cfXnpQApHIOe46ntle3A/z6kYAEPGcdwc5b2Gcgjrjv+J44oAUrnPPOPX/e/TnH0H4UAIRxgdOT1xjO7GeBx+Pp+IAY47d++P72cZHXnqeD+GaAFA6g45z0PPOc9hnnPHT2yOQBMHn9MHnjdxn8fb36EUAGOfXrxnAyS2ex7fy/IACmST6n1/8AsaADBwc+/PzHjrj/AOvz6c0AHzE9u+Oo4z349hjBH4igBcH9Txk4xj6fl79OOgAmD8vIz9Sc8cH8gf6daAEGT0I7EDPTg8nI9xwOOowKAFweOnGO5z06dO/U8DIHI70AHJ7jnGeTxzwR+mO1ABhuOfY8kZ5+nB7Z70AKQe2PxJ9c+ncjnr7YoAbgj+LtyDnjjngdue4BHHfqAOOcjkHt3HPXt7Z49+c8UAIMnnp09cjhe+CD75H44zQAYOQNw/M5ODg/Tjr7j60AHPXIH4npzjPHOM5OfTnHJIAHOMZHfuSf4s8/TI5Hr3FABj359eg/hx65J+X2649wAx1549cnI6Fh+nrmgA6dW6Z7nrnjqeRx2x3GTzQAfMO449c45PTPU/0465yAA5ODkA8Y5PPHOR0ycjoP6UAGG6Ag9COvHB6H9ODnHpmgAAOeTwOvJ449/bB5zzn3oACD/ewQTgZOOeR+Iz7joKADkdx7cnGOT6Y6exAHOBjkABnjGMehJz34PHbn8vxoADkfxenUnIyMdOM+oJxyDnvQAEH16dyT1xyc46fjjP4igA5weRz6knjntgEHsfoeMigAIOOcdCCcnvgegH4dKADn1788k+nBwMA/gOOueaADDfyxyTznv1J465wOelAAM9AQRwM88cD3wBjuOpPUdQAGSc5IHuCR2GMe2SM5z1+lABhuuQc8EDODxwT2/kOnrQAYbufXoTz69jyDjAHvxQAEEngj25IPUZHrjPTHqMHGBQAYPPQD6nrgnk4B575Ppz0FACc88jPckn0PI4GO4PfjnvkAcc8846jGTjoOQcDpj3HX3oATBI65znPJxjHQDB5z078dOooABnuRxnuevPXI5H48YPvQAYJB6dTjkjv6fUev04oAOexHcjBJ6n6cj1zn8OaADDcfQZ5PPH047dBn3oAOR3BPJI59APbJxjg45P5AB83TI6H8+Ovvzx0Ht0FACYIPB+nBPQHjpg8fj6DtQAuDnPbJ/ve/YdPqPwJ7gAQexx2OSeeeOufX1PPSgAIJz05+o45H+ccd+/IAEHHXnp1OMc9ue2OT/wDrAAA/j+IGfm9vU569enGAQBAG5OfXoW4OOO3T+fHXuAKFYHknGOxPYj+n+RQAYOQSfTuc9s/hx+Pf1AAAEHrxjvn2zzgdun/66AAA8c8Aj1z246dP09QMcACbTn7x4x3JPOM9un6cc9DQAu0568ZGck9sfgenp/8AWAEIPUn1z1x0x2HHHr6d6AFIJ79sE8juccAf4/4gAQT356g/MB3B65H5Y/LqAGGOOR0PPPU5x7Y/l+PIAbSAeffgnrz9Seo+vv3AAAjr79M9w3t7nGPX6CgBCGyeffAJzj8jzj09uOeQAIbJwT1/2v8ACgB3Pp2PRvp6jr6H86ADnn05HXHpz2xj6Hv7ZAA5wc/U4PQY+n48d+OmaAEycgYxz0BHAA5H659cdPYAATjHOe/IycDueoJ9OuB7GgBTuP5jqQeh9OP6Zx2oAOc5II6dx1z+RyD3+g7GgA+bPIAz3yB9OcZ74+vTFABzzgZ/Ec8j244/r3waAEycdDjB53Dv34HOPX69e4AEsf4T1Hfvkenb37H6UAGTnoeoP3h22g8Z78dSetAC88HB+mR65z/THocDHNACHIx1znnng9enfnr0wOvGDQApJHb8QRzgH2/EDBFACZOemevGR7cde3PbuM80AKSfTGfQgcnAz+B4z9DyDwABJ649PTqSOO/5j19RkACAkduTwcsPU47n9AOQetAC8nHGemSDjIx+fH647UAGW44/Uc8e3Bz2x0xnHagBCT3GMZ6EZzj6dgf1yM4oAXnHAPX1HHP+cj659SAJz6c5zjcO+f6DgdOc9RQAc8cHkD+LHIB49c/5PegA5IHHYdxzgfjwemc9/TigA5wevTjkenftwec9efqKAF5x09e+COvIz0/mM9OKAA5569Cevt269wMHjGenWgAOfTvzhu2ecdOuPbr7mgBBn6jj+IenU/XIzjOfXGMgC56cdOnIGePwHT0yOD0oAMsQeM59COOPXjPr7e/FABk4OB9fmHHA6H1Gc8/1GAAJP93PXocZxjn/AOtk0AHOemeuOevPPXnjPXvge2AA5HX3/i+p4/kTwR26ZoAT5scjnPqB2HPTGOp9jQAc88dz/F04989euCO4oAUA+/fuOeOD+OOQe5yc0AAzzxnk9T2547jI6enbPFACc9ee/wDEPXI9RnIxjB64z1oAXnnj179eSfy9OvXHQmgBOeOvfPIznAHvxyD1/DpQAvYjH156cDvxn3yR35IxQAZJ7DjORkEnp+WPr/Q0AN54IB5A79cKce+Px/WgBT16E9eNwHXPb/PAHoaAAggHGe/ft83JP45xnjg0ABzgnH4buP4s9+nTI4/SgAwcHjjnjPqT74GM/p37AAc/p3b69cH0Gc9vwyAA+bB459j7EAZ6cHnrx146EAOce4GMcdsd+gz6Z7A4PIIAAH9Ozdemfz7nucc9yAHzZHH4Z+nvz/LP5sAHPoeucbvQrjnvz2PrxQAYJ7E9Oc9htPHbnr1696ADn34x3BJ5X34/+v2zQAhz1wcjPOR/dHrkn/PegBTnHf8A76x69yT25P4dgaAFweeCMj1zz83tx1znjk/WgBOT2Oeejdju/kcDP+FAAM56Yz15z3brg5PX8xjjqAA5weCMnPLfUnGCPy4znk8ZoABuJ59xwT155HXGOnPTP4UAIQ+TjPX1/wDr0AKWPoe/cg9RjsOPzPQHGeQABJJ69T3P047cZIOCeemBggACeeffoTwQB1GPx6Yxzj1ADJyPx4ycngeg4I9+me3BoAOcYx/d4BxjgevpweCPc9aAEJPAwScj6E4BPbj+nJ4OMADufTP1z0J59s47dQO3JAAEycdOgHc9emOvftgnB5PPFAC5PPHf39Rj9M5wO2ehGQBDkdz0OPTp0xjOR1GSenXNACnPbOMgHn6c+p9Dz2+tABk9hkj39cEjp2/LGOpoAQ/U9Rjqc8njPfII6ZOBz0oAXJ9PyyCeD6459vxBPYATk4HPvyeMDg44PPfntjOeaAAZ79ecZIzzg+nIzj6ZxjigAJPrwO/c4I6DHrkdx6mgBeeAePy9vb1OMe556UAJk8dT1zgnnGemAORg+2B3JGABcn3Ocevvg9zg8E5z6HPOABOfTBye5wcjn9cn8OM5JoAOc8flk8jHBGcjnr+QJyTkACTjIz1I4x2PHYn2P8qAF59+vPX39gMD9enpkAQEk9Pfrx+BwQQcjj1H5gBz3yPXByBwR+GMg8n9RQAZOPw6nI7cen4kHj6fNQAHPoe+BkjnuPQ+owfp3oAXn3wB1PrwfUD656/TNACf99dT/e45Ht0x2x3x6mgAye4PUcAnp7Yxkjrx689OAAJPPB4xzn256dsc8YPIwAeaADJ7Z47cntyDzzjgjB5z9SAAOecjAx1BOR0wT0Jxz7+uASSABz/PoTxnscnHA57c4x3oAX1zkfie+CMe/XgA+mcdQA59wSD/AHuPve3/AOvt0GQBCT0wfTr6gZyecEE5ye36gCnP064wT6enU4OO3GfzAEBPOOee+eOM49OOmCRz6dwBevqOvOSOM9R1wR3BA/ACgAycdDknJ9sH+vbt1PSgBPXrwMd+ee2O+PfnPOMGgA54GD09Tycd+B9OcZzkdOAAyeODyDxk5A7++fTPqMEdKAAH1z3zyTxnt7g8HA75GBQAgyezdu/oMZ5A55zjv34oAU5Hr1OMEjqWPTH59e2MigBOSTwcn3IGMn27ZyOx+vBAF556g/U+5I+7j/IwfUATJx36noTzy2ewxzz36DIoAXn0I4J6/Xpx1JPb2PNABzycHPpk56E+n4Dtnp3yAJzno3TuTnt6DPbkgc55xkUAKCfRuOep56f/AK8Z9R9AABOcc847k4yBnPB6H1x16YNABz1wc5weScAYz25zjt19cnFACcjoGPI7t7dQQM5x/nigAOR2Y9O5PTB9O+D6Edx2AAHOcYY9e/ByMdx0z+HfpxQApz156c88jG7uAc//AKs9aAE59Gx25OR168f4nGOooAXnpgjr0JPqeoHqcdc8Dg9wBOec5479f72P4Rx1PUDpz2oAXJ9G9ufr1yOgyevtQAc5PB745Pv046nPGOcD06gCHOTw/XsTj8OOlABuGO/OR16c9s9Tg9fYZ6igBc5xjPc4yfYj8+PQdgT3AFz0zxyMYOc9ufz56nv2zQA3cBjj369AQD3/APrZx7kUAAbp16jqeOhHJ/XpjjPWgAyPx9mzn8eeR3zjgdccUAKW57fg3HOevHr68A46Z5ADcMDpjjoc46e3JHpn6igADZP9MnuVA7D3P8+uKAAN06dOufbvxntj+nIoACwyMc+2T1yOwznHbqPTtkATI+n498DuBjpwcd8H3AAZ4xjHTqSMc9M4zx/IHnigADDjsOO+ex9unrzweeDmgBS3HTr2zk98duenPPsaAE3e+DyBk57DuRjtnrye/JoAM/53E8jb9R39Ox65oAXdx2zz3HXIweR75A7Yx16AAWA5HOOQCT36dumOevfHpQAm7j6+jfN3I7duw+g9qAF3cHp17nr07Y6YwO3vg5NABkcgkdMZyT15Izj2xnr+OcACbuuP58j6ZBHIGe47emQBd306+vHU9eCe307jGKAEBH5ehxxz64J/XHbHQgCg/jnHc/n0H0OOmDxxQA3djgenXd7fTr0x78DvQA/d16Hpznrx6Y4PHTjJoAbuzj6H+LHYZB4z26k++fQAUt7YIIyN3+HX3A6dSDQAbv6dCeTgY4x0J4I7E9M4oATdng+nr2xzzgnPHfnk+1AAGzk8ce/16DB55x70AKG57dD1b3+nOeMdRgcHrQAm7pyOT6/kenGe+ePbk4AFLdeM8njceOmCOOh6g9B2POKADd1xjAB6Hk43fz68c9Dk0AJke34E5zj1IAHb09OelAC55yPfv+h4IweoOccdQBgACFsEnHP+9yOnbH0z16EHgUAKG/H72eemOeOOR6HBxQAhYHP15+b6YI4zjjt9e9AC7uxGOuPm68/p7Z+nFACBv8gnPQcdOp7H6gHNAC7sfT1J56AgkEZ59vc+hoAQNzjjA5zn657c9eAB16cUABIGOSenQ5zwQSOeOo78/hmgBSQD7/U++M5HTn14yO1ACFvT3x9eR78jIPH+FAAT2yOc984+96HtwP5ZwMAC54OevPOT79ucdsg4xkdMCgBM8H2z3P8AtcjnnqOcdfoMAAW/P0JIxyR6+4yOPrxwAAbn/Ak9Mc8Zz0+hHfrkAM8+4HQnH93ufx+uPfJAAHp9M8k+q55P0PTI9vUAN3PX9T0GOevU8nHXjB75AAnB7decH0x26dvX2zkHIAuRx3zj+L6dskdfU5Jz25oACQRnPXPfpxjBHfn/AB6dQALDGfXJGSR65x1GfT6/SgBC2c/09Du5xk+2cjPPTOKADdxk/lnn+LHQ57gfr2BoAUHk9wScYJGOvpyeeMgdT1JAoATdzgc5zjk/7WB1GO2APr9AA3DkH3x155bvnGOgz/hkACZJ9P8Avo//ABQ/kKAHlv0Iz6AZx/Tp15PocABu6dMc56n8uPQg/TOelACZz0weucjtxx2z29MgYz3oATdjoexGSc9lwen17dc9KADdn6jp36j6dR0B568g9aAF3eh546889ew/D25wBgAgBuBP5dPqR+Hbr1GBxQAbuOOR689sdeDyc/5PFAAW9+/6ZHt254PP4HkACwP45OMkdjgHjv8AXqe4oANwz16E9/8A63P6j1OcZADdxnGPxPoOvByf1x+NABu6fhzn3I5yO+DnPp60AJu6dOx6+xznA69focceoAu7OPfA6k4zn2xn2Pt6ZoAMj1+hJ9l9v6dQenYACw7H36n1Xjpn1/XjsAA3D1/X3X6dM/oc9TQAbsY6Y47knHPXIz6H3988ABu6c/T8QcZHUn1/Ag0AG4ADk9M9efu8duc/z9eRQAbh64/Hrx16fT057cDIAbgB26nj15Psf8OeccUALuHr0/HPX2z0GSex7kcUAG4cfn1+vB6jsc/p7ACbs/n6njj6exPHf9QBN2R2/MZ+79P8tx0oAXd9OPQnnj6dPf1HWgA3DPPoTx16Z9sdOO56nHcANw9T1Pv/ACzxySARzj2oAA30A4x+XTtj2J6849gALdcY4989uMcc8/X39aADcMH3HryDjoPb+vbkUABYYJye+Oo7DpxwR2/E9DwAG7065IHPuOOnfjH48igA3AA+oJPB9SD6YP8APHpkgABuHr1z+H6cdOB6npQAu4Y9ex7HpknHUf49+9ACbueo4B79eAc9MZ4/OgA3HnoOvU/TI6dfTtnPUAUAG7qOO569Ofp17j2/UAN3c+pGM56HPQgc/Xp9eKAAkZIyenPfHOD756n2HOOMUAG7n25ycewIPQE4/lyfWgBS2OmDnOOf84/MUAIGz+Gc9cY/Lr2Hrz3IoAXdz37/APoQHpz+H0PPIAE3DP8AnHvzj8fTgetAGF4n8VeGvBXh/V/FfjHxDonhPwvoNlLqOt+I/Euq2Oh6Do+nwKGnvtU1fU5rWwsLSFTmS4u7iKJONzAEVrQoV8VWp4fDUauIxFaShSoUKc6tarN7Qp06alOcn0jGLb7HbluW5jnGOwuV5RgMbmmZY6tDD4LL8uwtfG43F15u0KOGwuGhUr16s38NOlCUn0R+Mnxg/wCDgP8A4J7/AAv1W70bw74j+IfxpvrGSS3nuvhZ4LE2g+fG211g1/xpqvg2w1KLIHl3ujNqlhMCGhunU5H6Xl3hFxhjqcatajgssjJJqOPxVq1ntzUcLTxM6b7xqqnOP2oo/sDhD6B/j5xRhqOLx2X8P8HUa0Y1IU+J84cMdySV4upgcmwub18PN7OjjFhq8HpOlF6Hmvwp/wCDh/8AZi+LvxW+G3wm0D4J/HjT9V+J3xC8G/DvRdU1iD4fR6fYaj418R6b4a06/wBUSy8a3tylla3Wpw3F4LSO6mWBJBBHNJsVurMPCDPMuwOOx9bM8qqU8DhMTjKkKTxjnOGGozrzhT58NBOcowajzOK5mrtLU+s4o/Z8eJvCnCnEnFmO404ExGF4Y4ezjiLG4XCT4gliK+GybLcTmWIoYV1slo05VqtLDTp0faypQ53H2koRvJf0Bbv1HHPfA46Yz/k4yK/JT+BhdwwfYj+meCM4B9uvpQAm7PQ+vX8ccbec8cA59utAAG9PT15Jz249OemB0wKAFBB445HTsckjuPb9TwaAE3DpnHPcn1z/AHeh6HPQfjQApb39uO3XrwfQf/XHUANwJ9DnHv1OO3/6snvigA3DP1xj8yD29vx7etACFhx+H/6zkfiPw4waAF3Dj/I7dTjtn6evXgATcMDJHY/yI6A4H9PWgBQw68DOM89Mjjt9P68AUAJuHtgHGPQcc4xnA/D8eKAFDc8+/fjqMdgD7Y/HnNAAGXA57eh/oKAELfTj0IPfGenBHBGf/wBQAuR1JHfoeMcdx3GR6HPSgAJHP49+oA/HvwQPxzyKAE3HPp16njoMc4+p7H1oAQHv0OQDz7Ec9x+ZORnHqALuzzk4xzjdwcc/5yP55AFz3/z97A7d8c+g6daAEJ49OD0I9umD2/8ArY5FAC7h6jv34xkYz6Hn+ePSgBpbPcDg9OT0Pt/+rHvyAO3cgd+f07ZI5yfp9fUATdn1xkc5x2HU88+2SeSTjANAC7h6j1Pze/b246fgQM0AJuHHOfx/HJ9OvPToeoGCALuGBgj8/Y+x/ln164IA3cev1744wPb8uc5OKAFLH+X0J+X1HAwevTnPWgADHjGPTuehA5OOp57DqO9ABkcdeT16Adc4P5+hI96AFBBxjPbv9ev5ZwPYcCgBAw78e+R6dSOD+mOnOMUABOOn6kkdOvfIAz3GcHGTQAbsenU55x3Pt+Oep/HkAUkDOeo9z+HT19P5gZoAQkdjnqPvY6A5Jxx9D9OlACgjjkf99fiePX8B2GR0oATcPX9e/T0569cHPfoKAF3DB5x+PPTvkHB9evPqaADcOecceueoGCOD/nJweaAAHOMd/f8APHXpn29uKAEBz65OOh9j1OBg8cgfh3oAN3ByDx7k9QeDx+BznB+lABuHvnvyD2J47HH8z6YFACk46+nrz0HAzgn8857dKAAkYJ59iD7D8j7deDxzyAG4fz75Hb69zxntzx0oAARgZ75xz9foenc9O+CKAE3Ag8/rg9wMdyeM4Pr3oAMjnPYnjd6f0P49hjjAAFyPUfgfbHXjp6Z9+tAAGHr69SefoMD/ABznrySAGR69zzn0I9v8jvg5oAAw55/Xtnj6cnHT6npkAC2Cc9vQ5PTPTHT39fbNACZwcYPOe5J6Z4H6cHGc+goAAwz6cnvxx3I4xnnr369sAC5GeOucH6ZA7+uR25xjOcGgBCwGR7Z69+PUdR1+uSRmgD+Az/gtH/wUY8Z/tY/tC+L/AINeDfEl7Zfs4/BfxNqHhXQdB0y7lh03x74v8P3Uun6/4/15YnVNXX+1YbzT/CEU/m2Wn6DbQ6jZwwahrOpyTf1/4Y8FYXh3JMNmmLoxlnea0IYmtWqRTqYPC1oqdHBUW03Tfs3GeKcbTnWk4SbhSp2/3G+iB4B5R4YcC5Vxdm2XUq3iBxfl9DM8bjsRSjUxGR5Vj6Ua+ByPAuUebCf7NKjXzaUHCtXxtSeHqznQwmHjH8VY+g57Dn0+Zf5V+jVbXa83ZeX6f18v7Xoa39Ifmj6n/YiwP2zf2Rh/1c78Asev/JVvCfH+PP518zxR/wAk7xB/2JM1/wDUCv8Af/SPifGX/kzXi3/2bDjz/wBZPNz/AE9wRjr9Mnk4wO/Az/8AX4OcfxAf8zAgbPsM9c+4z26c4+np2AAEc/gCc5wOcYwAevfrznpg0ALkZ69ux9/buf0PA6jIAE8n/HuM4AHqeh/l0yABI9f17YPOcHJHPf8AHJ5ADcDnH6nHr37e2cHvxQAEjOP1zznnj1/DPfHQ4oACRnHfjH1zj9D7/wAqAEyBj1OO/bj2xjr6DrjkmgBcj14GO+O47Y6Yxz+vJNACBh2P0yee3t37/iR7ABkDPOOnfPYDI45xj0PIPTmgBQRzz9eSQM9Me3f2zx3wAG7nHXpzn3x2HU5+nTp0AAoIwOR09f8A9VACc+uMZ5z9CCRxzj3x7YOKADPPPbPfpwPbB69//rAAXPPtz354OPwHXn8ODwQBuen6Ddk54I6/Xk+hPbGQABPHTr2I54ye2OvvjJ+hAAuemcDgHr+ePpjOfw7k0AAb6fnn+LHp/n8yAA3DAOR2/PI+n48e+McEAUnH5cAHqe4H+c+1ACE8jp3xz6Z56/5GfUgAASfb6Z79OmOcHt9eM4wAIG6dM8Dr1PGc8e/vg8DqcgCk/TORxnnryDj/AD7eoAZ6Yx1H8XPJ/wAO2fbkdQBC3f09Djk9AecfXk49Mc0ABJ7EYH+19Mn3x7+vTsQAyfbtk7uO2e/Tnp36+mQA5HcHr3JPOMc9fy9R1PUAUnHoScA8/XjgD0PPXJoAA3ToenOfXP4546de5xzQAZ/ofwxnuBx9c9R0yMABkn06ZznjpnB7/wAuD2NABn3HXn5sdSeM9eB7dsDOeABM9+PQc9ck5z7EDv0I6eoAufUgd+oOePp/kj06gC56ZwPxH4Ef5/lyAIDx2zgdW9s+/wCv9ASAGe3sM4PPTJ5z+WSM9zyMgCZ449CeTyAcEZHOev4DjnuALnqe3169BkHp06gdD9c0AG7HoemTnHbPpj6c8/gcAAT3/LJ68E+hOcZ69fXpgAQN9M89/bOeex/IZHvQAu79QcYz1wD6D145H59AAye2DjIPPPGPbH/6x05AADPP59Dnp9B1+p7jkngAATng8Y64Ppnp3zwD+BHYigAB9cAeuR1x/n8vzADPXkYzwSR+Xt7dfX6gBnk9MZ4OfYf49uO/XqAGfp19c9h+Oc9gPXjOMgCZ/wAMFu4I6HOe/wCPQgdwBc/zP4c9DjocdDzk5+pAE3fQ5J4z0xjPPPf9CD0zgAXOR7c5weOg/Qj0/LPQAAeecDqOp7ED6Z79MnI96AD+7np9eT6Z9eOuM5Pt1APOvjBr1/4X+E3xQ8S6XJ5ep+Hfh34113TZd23y77SPDWpahZyZXDDbcWyMCpBGMjsR25bRhiMxwGHqK9OvjcLRmu8KtenCS/8AAZM97hbBUcy4n4cy7Ermw+Pz7J8FXjp71HFZhh6FVa6awqSWuh/lQPNLcSSTzyNLNPJJNNK5LPJLI7PJI7Hlmd2LMTySSTX+g1RJKKWiWiW1lolborWSS637XP8ApooRjCEIQShGEeWEYrSMYq0YpLokrJdlZdCePoPov81riq7v/E+vr0/rqevQ2+UPzR9TfsR5/wCGzf2RvT/hp34BZ/8ADreE+x5/w718zxR/yTvEH/YjzX5f7BiP+HPifGX/AJM14t/9mw48/wDWTzc/09x06+h+906Z9sZB/XGBnH8Pn/MwAPc4xn1B7D6Y+gHJ9B1AEB689OnzA+3PXg59+evYUAA7k8dcfNngnjAPGOw/UUAHPPPUHvk98EDqeOnI+lAC5PqM8dx6Z9CcdvXAB9aADPYc9sZGeh/H098j8SABPYEY7nOT0PT/AB7emKAA559OO/I9cfpjOOcn0yABOO/H1Htjk+2T1z+YoAMkAZP6jnpzk47Z7c+vQ0AGcdec5I5HPT1x+mB7dCQBB3579iOcBfYZz36enAJoAUfXOOPvdeh6fgep/ToAJk/kPUE9s8cfmff2FADsj1H5igBuARgEkc9xnqM9unc8/nmgBcc9fbgg9fUYwCT19+KAEI9+RnABH1HAA5JHT8ulACcZHzd+uQew56dOMHP170AJwecnqO4GOPp26DnJ59DQA7A6+gA4KnqMYOR+Hvn06ACYGQRzjn7w5+Y+3qf6DNAC4BAGfXpjjJHAOBxz7ZHQEUAGPfvn73v1xj19uoHrQAcc884IxkD1Hpx7fWgAAGRznn1B+hPHXPHPrjPQUAHYj39QMYwTyB26c9hx2oAAMY6cAZzgDqSf4eMEe34YoANvr7dSOAM9sEcD+vPqALgYHPbGMgnocgHGexHUd8YxQA0YHfH/AAIHpgdh3HY+nPqABePUfgRgdPbuRn047ZoATPv046g9x6j/AOtx75oAXA49QR0IPPpnBPqemOvYcACEAjH07geuOg7544yc9qAFH1wSAMZByMcfwnPv6DnpigBMDtn8x3HAAxzuHfrxQAowf4j1J7dyfbv3HvQAYGeD6cgj1PbGDyP046YoAAoBB5z6E+xyOnQ4PPfkjtkAQDH1z6jjAPU4+oz2xx0oAXb1/wAeOBjsPwP48YHIAYGDz+owePpgYIPbPBJ9gAIGTyehzkjHYdx3PcdCMdhQAYHTPGTg5Htx0PfPHHvmgBAB9OnOVPQZHbsAM/nyKAF2jnng+49M56cYB7Z4OeKADHH4dMgfwkf3QcgHv0Bz7UAIAB3xjJByD1A/2eB/9brxQAED1OTk9hnGDg8D2OD05NACkAj73TuSBg8dDjOOnIPP40AG0evc9wMdeeB/nuOMUAIVGO/59RjjoCOMHpzjJ54oAUjk59D368Y9OMjP1I6YFABjPH16EDjpg4Htjv39AKAAAA9cdecj178c9D1zjBoACBxyevYgd/oBnjOOpIPXHAAmAM4Ocg55GOo56Y9exx0FABgduQMnqvoO2O/HP4+5AFwAc5zjg8jtxjpz1wckUAGAO/HPPGc9Dj5fw4PXA+gAny5znrnuOMMCMfU5NAHkX7QYH/Chfjcc9PhF8SQOR28Gaz0+nPHXP1r0sm/5HGVf9jLA/wDqVSPqeBv+S24P/wCyp4f/APVthD/K2T7o/H+Zr/QGpbS9tLvpfT+nt+h/0v0vs/P83+ti0nTn0Hf3XvXBU+J+r7eVvPvv20PVobfKH5o+p/2Iv+Tzf2Run/JzvwC/9Wv4S6e34V83xR/yTvEH/YjzX/1AxB8T4y/8ma8W/wDs2HHn/rJ5uf6e2Bjkjn3+nqDzyT2POPev4fP+ZgTgjBPH1Ge3Xpnp35x2z0AFAAzg4yOuR2zk9f6cAZyD0AEGM8kYxgHI4549+OCPQ9KAFAGc5/Uc9ck8DPB6+ucmgBMLnqcZ9R3z35znA46/rQApx2OPUgj3I49QcY746d6ADj1/ElTjgjn1yO3fv3oADtyOehHcY6n+Q6e2O1AAQpGM/U5HsP5cD9etABgd+mB1YYwCvt25H/66AEIBHXpjPI46D09B+nSgAAHHqME4OQeR2Hv2Ax0APoAKAOfm46dfp6jBAyccd+xoAQYHcfmO+OhAB7c9unvgANqf3v1FADjj19v4fYEHj8TxwPwFACcHPJPB/u9OM9uOf5Zzg0AKcdPqeo74HT3yR25z3INACfLkcnGTjkYGAP5Z49/1AEGDjk5PuCAce+fXA9/pQAvHqfrkcZBz3P4+/I4oAXjnk8EZ5X19v17np14oAQ4xkE88j7vrz6fjz2OTQApA/LPGRwDz+WBwPQ4PHQAacEnk9+hB7HPUZ6D+XOMYAF4J4J59GH4nH1yTj8OCcAAMdMnjA6jnIHT/ADnjg5zQAcZHXPHpx1GfqMY79upxQAmB2JPTqQQBg9eo4AP0znnpQA44HqPoQem4kHOff8aAEBHY9SepxnpznHU9fUdu9ABwOMnp2IIxwATkdxj2xn8QBB+fXGSeehOePz/HI6mgBfl6g46Dg+57f0I4HSgBRjjkjPQfL78evB4xzg/SgBOD3PGBwRnOODn35HXGT+NAAdvPJ78E4HT0A9OOmRz3xkAOCcZ6k9x78YI6cfnjqADQAHGevP4YGTz+PGM9eR1NAAMDByeeB0OMZ9jwOeRxz6UABx3z+YOcgn9cYwO4GMdaAEIHqfXAI/u+2eMcf/WoAdxg5znnJBGeh54OB3H1z160ABxzyehzyvPAz+P8sHoKAEG31PXHOOTxjPrnBxn3xjigAwOOT2x9304xkc9Pz56g4AAbfUj2yBjAP48ZOe+evegA4xnJ/NfQ889+2Rzx7ZoAU46ZJ6nseMdB9QeO/XmgBCB6noTzjnkYJz1zxjnHGOCKADAPc4wR1XgZHt07+w6dRQAHHGST7cc9SPqD2HTpxQAYHJyeACemORjpyOnH+QaAF4weSevp2GcY4wR16ZBHPFACELjqQOehAz0z9c8Y7Yx0GKAAAc5yeuORnuPbOecZ9+nUgC8epHJ7r6+/bj8hg9hQAnGSMnPJ6jjnnGOnckDnGe+MACkD1P4YxwB7YzgAj8xgZoAQ7fU9D6DPGPbscDtwffIAvGSMnvznpxyMnJ5/mCeMUAGB6nnOM7fXGOQf/rDjjpQB5B+0FgfAX434PX4Q/EnuP+hN1noPfJPrx78+lk3/ACOMq/7GWB/9SqR9TwN/yW3B/wD2VPD/AP6tsIf5WyfdH4/zNf6A1Fe2nV66dvO++3f5Xv8A9L9LRL0f5/09e3exbj6D6D/0Ja4au7/xP5b+XXTr8j1aG3yh+aPqb9iL/k839kYf9XO/AHgdP+SreE/5dulfM8Uf8k7xB/2JM1/9QK+/9bHxPjL/AMma8W/+zYcef+snm5/p7Z6Ybv6r3xnpwcZP4/hX8QH/ADMBwR1P6d8dc9ccDnntzQAcc89vYeo4I4yR684/QAPx656EdOTnkd8c89fTAFABxzz24zt+nHHfGPpx24ADjJOSDyOo9T2Pbpjr29KAA4PBJ/Nff/PPTjpzQAvBOSenuO2fbjgZP/1uAA4x1OOO646n/wDV6Y456UAIccHP6gfj78HPp+fIAuRgZPX3X2yPQ4z6frigBDj164yMr3x1GPx/DrzQAADucH6gk5x/Pge4HucgBxz8x+uVHcc9j37+/cjIAAg9znHPTrx0/QY6HB70AGF9R/45/hQAbR3J79/U+44J46dfpyQBce5+vAIxjnp6DGT2+tABgep4yc/pzjGcfXPUUAJjoCTkk/iQB+Y4yDkEZ45HAAm0dOfzGeAOMYA6H1PQ80ALt64J/TB9uncYz9QTmgBcDjk/16kgkY9fXjGTQAmBjvk579ckZ5I78Y6e/egBDjnlhk+uBnIzjIyMepA6YoA/M79sP/gr1+wV+xDdah4e+MHxp0/WPiNpysJvhL8MYB4++IsM4XcLTVtL0uePSPCVy6kNDH411zw0syFXiaRSDX7DwD4D+J3iPClisg4drYfKausc9zmf9l5TKN7c9CtXi8RjoJ6N5dhsZyvSSR9pw74f8U8TRhWy/LZ08HPbMMa/qmDa25qc6i9piEtn9WpVrNWdmfz+/GP/AIO1raO8ubL4Afse3FzYoziz8S/F/wCJa2VzMCWEZuPBXgzQL2O34wzGPx9cE7vLCrt3t/UmQfQYm4QqcU8fRhUaXtMHkGTupCL68mY5hiqbn2V8rhte7vZfq+X+AknGMs14hUZac1HL8E5RXe2JxNaLfzwi+fT461D/AIOtP28Jrln0z4JfspWFqf8AVwXfhn4sajMozwDcx/F2wV8cdLdOeR6D7+l9CHwyjBKtxJxvVqdZwxmR0ov0g8hqtdfts+hh4FcLKNqmZ57OXVxr4CC/8BeXzf8A5Mz1P4ef8HZ37RGmXkB+Kv7J/wAG/GWn7x9pj8AeMfGvw6vymRuMVx4gX4n2ysF5UPaFSQAxAOV8TNfoNcKVqcv7E444gwFW3uPNMvy7NqV/70cK8mnZ9bTur9bWfDi/AXKJxf1HPsxw87e68XhsNjIX81ReClb/ALeP2g/ZS/4ORf8Agn1+0Pf6Z4Y+I+peK/2XvGeoPDbRxfFy3sp/h9PeSkKsNt8TPD0t3pVhbqT82oeM9O8G2a8bpATtH898b/RG8U+FKVbG5RRwPGmXUlKblkU6kc1jTjrzTyfFRp16s2tqWXVswqPtpc/OM98HeLMohOvg4UM7w0E5N5fKSxcYq+ssFWUak32hhp4mXkfvpo+s6P4h0rTdd0DVdO1vRNXsrbUtJ1jR7621LS9T0+7iWe0vtO1Czkns76zuoXjlt7m2lkgnjZZI3ZSCf5fxGHr4SvVw2KoVsNiaFSdGvh69KdGvRq05ONSlWpVIxqUqkJJxnCcYyjJOLSeh+V1KdSjUnSq050qtOThUp1IyhUhOLtKM4SSlGUXo4ySaejRpAY7knnv14HPOMf8A1wCcVkQeWfGP43/CH9nzwRqfxJ+N3xJ8H/C3wLpI23nibxrrtjoWm+eyNJDYWbXkqS6lqt0IpBZaRpsN3qd/IDDZ2k8uEr2sg4cz7inMqOT8OZRmGd5niH+7weXYapia3KmlKrUVOLjRoU+ZOriK0qdGknzVKkVqd2XZZmGbYmGDyzB4jHYqp8NHDUpVZ2uk5S5U1CEbrmqTcYRWspJH84v7Sf8AwdQfsi/Di+1DQ/2dPhJ8Sf2i9Qs3khj8TapfQfB/4f3jr8i3Gm32s6R4k8a3sCN87LeeBNFWdRthuAjidf624Q+hTx5m9KlieLM9yjhKlUSk8HQpyz/NKaerhWpYevhMupya2dPM8Ty396F04n7Bk3gbxBjIwq5xj8Hk8JJN0acXmOLj/dnClUo4aLfeOKq26q6sflr4s/4OwP2xr+8kfwR+zr+zf4a04uxhtvEo+JfjC9jiydqTX+n+NvBkEzgcF49Nt1PJ8tfu1+04H6D3AFKnFZlxbxfjKqS5p4P+x8vpt9XGlVy7MZxT6J1p27s+4w/gRw9CNsTnGcV521dH6lh437qM8NiGvRzZV8N/8HXn7alnco/iv9n39mXXrPeDJBoln8UPDN0yZ5WO7vPiF4mijcrnDvZSgE5KHkVeL+g/4eVINYLirjHDVLaSxNTJcZBPvKnTyrBya8lUj6lVvAjhuSfsM2zqlLo6ksFWV/OMcJRb9FJevf8AQb4Ef8HYnwK8RXljpv7RX7MXxE+F6yukFx4n+GXi7R/inpUTMcG9utD1rTPh5q9hZKTmWGxufEd2kSs0CXUhENflnE30HeJcJTqVuE+MspzpxTlDB5zgMRkldpbU4YnD1s2w9Wo9oyqQwlNyaUnBXkvks08B80oxlPKM7wmOtdxo43D1MDUf92NWnPF05SfRyjRi3a/KtT+in9lr9uX9lD9tHw7L4j/Zr+Nfg/4krZ20dzrHh6zu5tK8b+Ho5CiK3iPwNrtvpvivRYjK/lRXl9pEVhdShhaXdwnz1/J3Gvhtxx4eYtYTi/hzMMndSbhh8XUhGvluLaTbWEzPDSrYHESSXNKnSryqwWtSnA/Is84Yz3hysqOc5biMHzScadaUVUw1Zq7/AHOKpOdCo7JtxjUc0viij6yyCDyT6nn8SeMdD09AMc4r4c8E+Pv24f20/hv+wN8Dbv8AaE+Lfg74o+L/AIf6Z4o8P+GNcHwp0Pw74g1rw+3iZ7q10zXNWs/E3izwbZw6A2rxWOhy3dvqVzdpq2taPEtjJBPPc2v3vhv4e5v4n8Sw4UyLMMlwGaVsFisbhv7cxWLwuHxX1NQqVsNh54PA5hUlilQlUxKhOjCDoYevL2qlGMJ/QcM8N4zirNI5RgMRgsPi50K1el9fq1qVKr7FRlOlTlRw+Ik6vs3KqouEYuFOo+dNKMvxm/4ipf8AgnPwf+FZ/tfdP+ib/Cf0/wCy6ZzwPQ9+or+g/wDiSfxa/wChxwH/AOHfPP8A6Gj9G/4gZxf/ANBvD/8A4WY//wCdYf8AEVN/wTmx/wAk0/a97YJ+G/wm6cD/AKLofrwM5x3waP8AiSfxa/6HHAf/AId88/8AoaD/AIgZxf8A9BvD/wD4WY//AOdZ94/sd/8ABbP/AIJ+/tr+KNO+H3w3+KGq+BvifrMqQaF8N/jJokfgTxJ4guZBhLHw7qEeoa14P1/VZCCsWiaP4pvdbn2tJBp0satIPzLj/wCjp4p+HWCrZrm+S0czybDxc8TnHD+JeZ4PCwjvVxdKVHD5hhaEVrLE4jBU8PHaVVNpP5biLw14s4aoTxeMwMMVgaavVxuXVXiqNGK3lWg4U8TSprrVqUI0o9ZptI/WkYI4J/XGcepHGOCCfwr8MPgg2jrntxz6Ac8DrwPX8aAF2jPU9c/y9uR070AJt7djjHr0Pbb9Tz35GDmgAOOf844OM4HA5Pr2Pc0AJgDOScfieoOe3bnB6HPHegD83/2vv+Csn7C/7Eepz+FvjV8YrW4+ItvEk0vwt+H+n3Xjvx9aiSJZYRrOmaODp/hZ7mFkmtE8XavoBvIXWa086Ilx+p8EeDHiH4gUo4zIMiqRyuUnFZxmdWGXZbNpuMvYVq/73GKMk4zeCo4nkknGfK9D9E4S8K+NuNaccTk2USjl8m4rM8wqwwOAk07S9jVrfvMSotNTeEpV+Rq0rOyPzPk/4Okv2ABLIkPwr/auniViI5j4H+FsfmL0D7G+MZZAeSqsSwByQDkD9WX0Q/EnlTlnHB0Xa7iswzeVu6v/AGGk7eWna5+nQ+i7x/JRbzXhWLdrp47NHa/msns7eX+V7Ft/wdGf8E+5Vdrj4YftY25ONoj8A/CycMMckn/hc8IUg8YAbOSR75VPok+JEWlHNuDpXV3fMc3jbt/zIpX/AANf+JVvEN2dPNOEpLq5Zhm0OvS2SSv+H6n7lfsuftE+FP2svgR8Pv2hfA3hfx54Q8G/EzTr7WPDGkfEjStH0TxZJo9rq+o6VaateaZoWv8AifT7ey1kae+qaLImrzSXej3VhfNFCLlUH8/cW8M4zg7iHMuGswxeX43HZVVp0MXWyutXr4NV50adadGFXEYbCVZVKHtFRrp0YqFeFSmnLkbPwrizhrF8IcQZjw5j8Xl+Mx2V1KdHF1ssrV6+DVedGnWnRhVxGGwtSVSh7RUq6dGKp14VKd5ODZ7/AIBB5PB7Hp0OOAehxwM4xxXzh86ch47+IHgT4X+FtW8cfEjxl4Z8BeDdCgNzrXijxhrumeG/D+lw5CrLe6tq1zaWNvubCRLJMGklZI4lZ2VT2YDL8fmuLo4DLMFiswxuIly0MJgqFXE4irLtTo0YzqSstXaLSV27JNndluWZjnGNoZdlOAxmZY/FS5MPgsDhq2KxVaVrtU6FGE6krLV2jZJNuyTPwX/aN/4OSP2GfhFd3+hfCHSviD+0nr9m8sIvvCVjF4N+HzXERKtEfF/i6KLVbmIyKBHfaJ4O1rTpkBlt7yVChf8AfOHPo1cd5vCFfOauXcM4eaUnTxlR43MVF2af1PBuVGLs9adfG0KkXpKCadv6Y4R+iT4j8QQpYnPK+V8I4WqlL2eOqvMM0UX9r6hgZSoQaV708Tj8NVi/dnCLvb8qfG//AAdMftGaldTN8N/2Yvgx4SsWZvIh8aeJvG/j+9jX+HzbvRZ/hzbysONxWwiDdguOf1HB/Ra4co04vMuKM6xlTRTeCwuCwFNv+7CssylHtZzl69v3bKvoUcI04QWccZ8RY+pZc0stweW5XTb6tQxMM2nFeTqya8zh9K/4Of8A9tiK6R9X+C37MeoWYYb7ax0D4oaXOyqfmC3UvxR1REJAG0m1kCkAkMOB01/ox8F8rVHOuJqc7NqVSvldWPl7qyuldd/eXytr78/oT+G1WDjQ4k41oVHdKdTF5JXgneybpxySg36e0V9ro+0/g5/wdKeEr25tLL4+/sreIPD9ozRrd+JvhN48sfE7IrFQ7x+D/Fuk+GCiR4L4/wCE0uHcEIEBTe/w+dfRjxdKM55FxRQxElfkw2a4GeFvbZPGYSrirt6a/Uopd9kfA8QfQXzGNKdbhPjvCYupZuGB4gyqrgVorpPMcvxGOTvtrlsErXcrPT96P2VP+Ckv7Gf7ZiW9l8DvjPoGpeL5YGmm+G3ifzfB/wARrcRxlrgReFdeS0vNais0BN1f+Gn1vS4QctfFWGfwrijw84v4QcpZ1k9enhFLlWY4a2My+V3aN8VQ54UXN/DDEqhVf/Ps/lfj7wU8S/DXmrcU8M4yhlqlyxzvA8uZZLO7tDmzDCOpTwsqjdoUccsLXlsqVz7qGMceh445z1I45PUDp0xjBr4o/Kgxk9TyT0zxz7jjnII6jPpmgA2jtnuPywOmOepBPPfNAHkP7QQH/Chfjdgnj4Q/Enj/ALkzWRzx7c+4Ppx6WTf8jjKv+xlgf/UqkfU8Df8AJbcH/wDZU8P/APq2wh/lbJ90fj/M1/oDVtZbX1tfy118vl5q1j/pfpdPn+v9fh1LSfd/4CO/uvc9P6Vw1d335vw1/W/+fRerQ2+UPzR9T/sRf8nm/sjH/q534Bew/wCSreE+2f05/lXzPFH/ACTvEH/YkzX/ANQK58T4y/8AJmvFv/s2HHn/AKyebn+njPcW9pBNcXM0dtbwRNNcTzyLFDDBEpkmmllkKpFFGgd5JHZVRVZmKgE1/EKTbUUm3JpJJXbb2SS1bfRLVn/M3TpzqzhSpQnUqVJxp06dOLnOpObUYQhCKcpTlJqMYxTcm0km2fkb+0n/AMFuP2Ef2dry/wDD1r461P43+MbBpYbjw/8ABe0svE+nWd0m5PIv/Gt9qGk+DECSK0VxHpet6vfWjhlmsA42V91lHh1xNmsIVpYWGW4edmquYylRnKLtrHDxhPEXad489OnGXSVrtf2B4YfQa8fPEqjh8wq5DhOBclxCjOnmPG9etleJrUnZ8+HyOhhsXnb5otTpSxeBwWHrRalDEOL5j8n/ABx/wczeJZ7qeL4a/soaHp9kjFba+8c/FDUNXurhMnbJNpWgeEtEis2KABoE1m/AIJ+0sDgfY0fCOjBXxedVJy6xw2DjTitrpVKteo3vu6cdnof2Jw7+yzyv2VOfFHi9mFevJJ1cPkPCmGwdKlKy5oQxeYZzj5V0ntUlgsO2mr0k1rxWk/8AByx8dI7tW1v9mr4T39kpUyQaV4r8YaRdMmSXC3d2NbiRiMbWNlIFPJV84FVPCrLuX93muNjJ3Sc6NCcdLa2j7Ntf9vLXr3+uxP7K7w+q0WsD4qcZYau01Gpi8nyTG0VJ25W6NF4CcktbpV4N7Jq2v2v8GP8Ag48/Zz8WXVpp/wAavgx8R/hHJcMkUmteG9V0z4oeHLQlgr3F8Y7Hwf4kitgC0jJp3h3WLlB+7SKYgu3zmP8ADPMqEXPA47DY1K9oVYSwlR6XSjeVak3sveqQV97H4hxx+yz8UspoVsVwDx5wtxtGkpThgM0weM4QzSukm1Sw6nXzvKpVXblUsVmmBpN+9KdNOy/cT4GftKfAf9pbw0fFvwM+KXhP4j6PCIvt39gairato0k65ig8QeH7yO11/wAP3UiqTHbazptjPIAXjRk+avgsdluPyyr7HH4Wrhpu/L7SPuTS3dOor06i84Skkf5+eIvhP4j+E2bLJfEXg7O+FMdNz+rPM8JJYLHwpu06uWZnRdbLczoxekquAxeIpxb5ZSjLQ9xwp5yeeM5x+H+fQH68J+eAQMAds4x165HbPpxxnPXnNAAVGe+fr2JxyfpxjNABtHqc/rzg+ntn8/Q4ADaOOT0BwSeMY/LGfwyenUAC4HXnv0HqADwB/wDqOaAEAHqecd8ZJ6dOCeo4P680AKABjr7dfTv+ZP58jkUAJx0yckc89+M8YPPUegwRxjgAXap7fqf8aADg/wAuQcduxwMcfnj8QBQfrn6HHPPpj8T+OOaAEPuCevr/ADGeOxHc84xQAmOnt7NxwOnPH+QORggC9+npg8nnHB9x75+vrQAZH54HIIBxngZ79fboOtAC4/Dnj8CT+GeR+PPXAAMTxJ4k8P8Ag7w/rXivxXrWmeG/DPhvStQ1zxDr+tXttpmkaLo2l20l7qWq6pqF3LFa2NhY2kM1zdXU8qQwwxvJI4VSa6MJhMVj8VhsDgcPWxeMxlelhsLhcPTnWxGIxFaap0aNGlTUp1KtWpKMIQinKUmkk2zSjRq4irSoUKc61atUhSpUqcXOpUqTkowhCEU5SnKTUYxSbbaSP4Of+Cs3/BxB8S/jvrPib4EfsN+I9e+FfwMtZr3Rtd+MmmNd6F8TfixHGz211J4bu8Q6p8PfA12dzWf2Q2fjPXbPyp9UutCtbu88OV/pp4GfRRyfhnD4PibxJwmGzviWpGnicNw/WUMTk2RSdpwWLh71HNszp6Ko6iqZdhqnNGhTxM4U8Yf1HwH4RYLK6dDNeJ6VLHZnKMalLLZqNXBYBu0kq0fehi8VH7XNzYalK6hGrKMax/LZNPNczzXNzLLcXNxLJPcXEzvNLPPK7PLLLLIWeSWRyzyO7F3dmZiWYk/2nGMYRjCEYwhGKjGMUoxjGKtGMYqyUUkkkkkkrLQ/cEkkkkkkkkkrJJaJJLRJLRJbEf4Hr7+/rj39untTGA47YHHoOv4/nn6DtQAZ9j68/h9eaADrjIPGD/n6c+/t0oA/W7/gmd/wWD/aT/4Jz+LdM0nTNW1L4m/s53+pJJ4y+BXiLVZ30mC2uJt2oa38Ob25Nz/wg/isK0lx5mnxf2JrkwWPxFpl6wtbyx/CfGLwD4Q8WsBXr1qFHJeLadFrL+JsJQgq8pwjalhs3pw5P7SwLaUOWq/rOGjrhK9Jc9Op8Dxp4e5Nxhh51J04YLOIQaw2aUaaVRtL3aWMjHl+s0HorTftaSbdGcfejL+x/wDa1/4OAP2P/gj+yR4C+P8A8HNds/jN8RfjboV7cfCT4Qx3cWn63o+p2LGz1y6+MVvbT3N14J0rwfq4k0zVbMGfUPEeqwiw8KveaY954k0z+AOBfot8fcScd5nwtxBhqnDuU8OYmnDPc+dN1sNiKVVe0w0MgnOMKeZVsfQtWo1LRpYSjJVMcqdZQwdb+d8g8KeIczz/ABWU5jSlluDyyrGOYZg4udOpTl71KOXSkoxxNTE07VKcmlCjTfNXUZqNGf8AAz+1r+2l+0f+2/8AEu8+KP7RnxH1fxrrDS3S6BoIklsPBXgbTLmUOND8EeFYZDpfh/TI0WKOVoIn1LVHhW91zUdT1F572T/T/gXw84R8OMnp5LwnlFDLsOoweKxXLGpmOZVoRt9ZzLHSiq2LrNuTiptUaKk6eGpUaKjTj/VWQcN5Pwzgo4HKMHTw1O0fa1bc2JxU4q3tcTXfv1aju3q1CF3GlCEEor5Yz+A7duBj6AfTuPxr7Y9wM+xx+vfsefp9fSgAJ9j+WfX/AD7ZBPegAJ68Z/z+v+PHrgA7T4d/Ejx/8I/GWhfEP4XeMvE/w98deGb1NQ8P+LfCGs3+ga/pN2mf3tnqemT29zCJFzFcQiQw3UDvb3EcsMskZ87NsoyvPsvxWU51l+DzXLMbTdLF4DH4elisLXpv7NSjWjKErO0oytzQklKDjJJrmxmDwmYYarg8dhqOLwteLhVw+Ipxq0qkX0lCacXbdO107NNNJn91/wDwRh/4L6Wn7U2q+Gv2Wf2xrzR/Dn7QV+INK+HHxUt4bTRfC3xmvFTZH4f16whFvp3hf4l3Wwf2aunxweHvGc7SWWnWmi659g0rW/8ANH6Qn0X6nBNDGca8AU8Ri+FaXNXzfI5yqYjG8PQbvLF4arLnrY3J4X/fOq54rL4pVa08Rhva18N/L/iN4VSyOnWzzh6NStlMG6mMwDcqlfLoverSk7zr4KN/fc262HVpTlUpc9Sl/Qx+1J8AvCn7Uv7O/wAY/wBnvxmkf/CP/FrwDr/g64unhEx0jUb+zZ9B8Q20bEBr7w1r8GmeINPORsvtNtnyCoNfypwZxRjuCuK+H+K8ub+t5FmmFzCMFLlVelSqJYrCTf8Az6xmFlWwtVdaVaa6n5Lkma18jzfLs3w1/bYDF0sQop29pCErVaLf8tak50p/3ZtH+R38TPh34q+EXxG8efCrxzpz6R4z+G3jDxJ4F8VabJkmx8QeFNXvND1e3DEJ5kcd9YzLFKo2zR7JUyjqx/3YyfNsFn2U5ZneW1lXy/N8vweZ4Gsv+XuEx2Hp4mhNq7s3SqRco7xleL1TP76wWMoZhg8Lj8LNVMNjMPRxVCa+1Rr041ab8m4yV10d09UcRn2P6d8e/Tntnoa9I6SzZ3l3YXdtf2NzcWN9Y3EF3ZXtpPLbXVpd20iT291a3MLRzQXFvMiSwzxOkkUqLIjK6gjOrCnVp1KdWEalOpCdOpTnFThOE4uM4ThJOMoSi3GUZJxabT0bHyRqJwnGMoSTU4ySlGUWrOMk004yTtJPRq6Z/plf8EJP28de/bn/AGIdEv8A4ka0dc+NnwR1tvhN8TdVuphJqviZLDTrTUPBfjnUhlpZL3xL4buIrXVtQkbOqeKNB8R3w2eYY0/x2+kr4aYXw28RsTSyjDfVuHeIsOs7yajCNqGDdSrOlmGW0be7Gng8XCU6FJfwMHicJT6Xf8X+KXCtLhbiapDB0vZZZmlP6/gacVanQc5yjicLDoo0Kybpwjf2dCrRj0uftJ+HY9vpx+Pp09+Of58PzYX1/DGRnn1/UD2x9aAE44/Dop/yPoemTnOaAAk+nJ6ccHjODnHv/kNQB+Gn/Bdr/gpDrn7Bf7NOmeGPhRqi6b+0J+0Bcax4X8AasmyS68CeFtJtbY+NfiJbxOCo1bTY9U0zRfC7ShUh13Wo9ZVbpNAuLSb+hvo6eFWH8SOLauLzqi6vDHDMKGMzKg7qGZYytOX9n5XNr/lxVdKtiMZbWWGw7w75HiYVI/s/gp4e0eN+I6mIzSl7XIcijRxOOou6jjsTVlL6ngJNa+yqOnUrYm29Ci6T5fbqcf8AOX1LV9W8Qapqeu69qeoa1rms393qesaxq15c6jqeqanfXEtzfahqN/eSTXV7fXlzLJcXV3cyyXFxNI8s0jyMzH/UenQo4WlSw2Go0sPh8PSp0aFCjThSo0aNOChTpUqcFGEKdOCUYQilGMUopJJI/wBDMJSo0KNGjQp06FClTjTpUqUI06dKlCPLCnThBKMIQglGMYpKMUlGySK8XT8B/WsJ/C/T+l89j1qf2dL6L8vM+iv2UP2f/Ev7VH7RfwX/AGevCYlTV/it470TwxJexRtKdH0SWc3nijxFJGqsWtvDXhmz1fxBeAA4tNNmODXx3GnEeF4Q4ZzviXGOLo5Pl2IxapyaXt66ThhMKm7WlisVOjhoL+erG+iuefxPxFheE+F864jxlnRyjAYjFKEpcvt8Qo8mEw0W9OfFYqdHDw/v1Y6O5/rCeA/BPhr4aeB/B/w68HadDpHhPwH4X0Hwd4Y0qBQIdO8PeGtLtNG0ixQAAFbewsoIQTy23cSSef8AHbMMfis0x+OzPG1XWxmY4vE47F1pfFVxOKrTr16j851KkpfM/wAkswx2KzTH43MsbVlWxmYYvEY3FVpfFVxGKqzr1qj85VJydul7I/L/AP4Kd/8ABXD4I/8ABOnwqmhzQwfEz9ojxNpj3vgj4QaZqCQfYbWXfDb+K/iJqcPnS+GvCqzo4soVhl1zxLcQyWmj2iWsOp6zpP6p4WeD2feJWKliIuWVcN4SqoY/OatNy9pOOssJltKTjHFYvls6knJUMLGSnXm5ypUK3654SeC2f+KGNdeMpZTwxhKvJmGeVaTl7ScbOeCyulLlji8Zyte0k5LD4SMlOvNzlSoVv4Ff2uP26v2m/wBuLxvJ4z/aD+JGqeI4Le6nuPDXgXTpJdI+HXgmGcsq2nhPwjBO2n2LRwMLebV7r7d4i1KKKNtX1nUZl80/6CcIcA8LcB4BYLhzLKWFlKMY4rH1Uq2ZY5qzc8ZjJL2lRSkuZUYezwtJtqjQpxdj/SzgTw64R8PcvWA4ZyqjhJThCOLzGqo1s1zCUV8eNx0oqrUTknUjh4ezwtGTfsKFKOh8mRjGfw/rX01TVyv2/TtofplHaPz/AFLKdD9f6CuKfwr1W3oz0aO3yf5lxOo+rfzP+fauSpb3v8Lv935/8Dvp6VH4l6v/ANLLC/6v8u3071xVVr85L8uh6FLb5R7dF/XqbGmajqGkX9jquk397peqabdQ32n6lp1zNZX9jeWsomtruzvLZ4rm1ubaZElhnglSWKVUeNlcAjzq9OFWFWnVhCpTqRlCdOpFThOErxnGcJJxlGUW4yi0002ndHpewo4mjUw+IpUq+HrUp0q1CtThVo1qVS8Z06tKopQqU5xbjOEouMotqSadj+nH/gmj/wAHA3xD+FupeH/g5+29qmrfEv4XzS2ul6R8bXil1L4keA432wQy+MxCrXXxC8NwEq95qTLN43sIPtFx53ilhbaXF/NfiL4GYDMIV824NpUsuzFKdWrk6caeX41q8pfVLvlwOIltCmuXBTfLFrDe/Vf8R+OH0OMm4iw2M4m8KqGHyLiCEZ4jE8LKSoZHnEknKccrcmqeS46dmqVG8cqrTcIOOX3qYiX9onhPxX4Z8d+GtD8ZeDde0nxR4U8T6VZ634e8RaFfW+p6PrWkalAlzY6jpl/aSS293aXUDrJFNFIwYN1ByK/kbE4bEYPEVsJi6FXDYrD1J0a+HrwlTrUatNuM6dSEkpRnGSaaaP8AMLMcux+U4/GZXmmDxGX5jgMRVwmNwWLpToYrC4mhN061CvRqRjOnUpzTjKMkmmvM6Dg49OvQ9z/jyfXr0rA4zyH9oL/kgvxu4H/JIfiV26Y8Gaz36ccjr1GBnFelk3/I4yr/ALGWB/8AUqkfU8Df8ltwf/2VPD//AKtsIf5WqfdH4/zNf6A1Htrtq1/Wnzey7br/AKX6Wy+f5vXzt2/4Ytx9B9F/mtcVXd/4n387eXe56tDb5Q/NHun7NPjzQPhb+0X8Afib4qa7Twv8OvjZ8KfHfiSSwtje30eg+EPHeg+INYeytA8ZurtdO0+5NtbB0M82yIOu7I8DPcLVxuUZvgqCi6+LyzHYWipSUY+1xGFq0aalLXljzzXM7aK8rHheIWRY/ijw64+4ZypUZZpxFwTxTkWWxxFT2NCWPzfIcwy/BxrVuWSpUniMRTVSo4y5Ic0rO1n+hn/BQn/grt8ff24Nb1jwloeo6r8Jv2dluJoNI+F2h6hJBe+KNPjkPkaj8TtWsXifxJe3IVLg+H1f/hF9JbyY7azvr21fWrz4XhbgDKuGadOvUhDH5u4KVTHVYpxoy6wwVOd1QitV7Vr21RXcpRg1TX4d9HX6InAHghgsFm+Ow+E4t8RXThUxfFGOw0J0MqxDinPD8L4SupLLaNJt01mMorNcWueVSrh6FVYKl+UCH5G/H645AB4PQD+fTrX2NTbpv+Nn6de2na63/smlqov1/D0f9eepaT+p/lx/X/DuOCp9r1f5o9ih1+f5Iupje3+6M8ZPcenv7+n045fLrbzXrdrvp31tdnr072Xrprvr/mWYsY9eTg49z7cZ9M1xVeltv+Avv66pdb31R6dC9lp9mV/Wz++3l38z0/4X/FT4jfBjxhpfxA+FPjXxJ8P/ABnosofTvEPhfVLrSr+JS4aW1na2kWO90668tY77TL6O50+/hJt721ngd4z4uNwuHxlGeHxVGniKM7Xp1Yqcbvm1XMnyyX2ZRtKL1i09TzuKuDOFOP8AIcbwxxrw9lPE2QY+LhisrzjB0cZhZvlajWpqtGUsPiqLk54fF4eVLFYap+8w9alUjGS/sC/4Jj/8Fp/D/wC0Xe6F8Cf2n30bwV8bL02+m+EvHlssOleDPijfErDDpl5bbltvCnji+dl+y2cRXw/4hujJBpI0nUJbDQ7v8e4k4Pnl6njct562CjeVWi7yrYZbuUW9atCPWT/eQVnPnXNNf4b/AEv/ANnzmvhVhMy8SvB2GYcReHmHVXGZ7w1WdTG8QcG4ZJ1KmMw9ZJ1s74cw6v7avNSzTKqKhVxzx2Ghisxof0FA5wcfoeOvQ8YzwM9j19vhD/L4XjkD1A6Hg5z+Xp2H4igA46AcfTPGR+P5jkj2oAAMDPH/AHyeuR2B9h09M5oAOMe2T1B9fmJz7Zx+I9RQADBPT0OcduMDrn09B3xjqAHTnGM4HTnqOvrn19u5oATvjA/Ijpj3PHQdh/IgDgBgcA+5HJ+uaAG9c5A69MnqCAO3oe3Xj6UAOx1/H1HXkdOOueeo4NADTnByPXqWyOBxkgY5689M+hoATvjHPrluDgde/cDP8qADvg9M9ct6ZHU9f88cZAF5645wOpbOTn0zwOnT15zkUABwBnHA9zzhj19wSDyPXr1AB/EF/wAHLP8AwU+1fxJ4zn/4J5/BfxHLaeD/AAl/Z2q/tJ6zpN0yt4m8WzJbaroHwre5gZd+ieFbV7LXfFVqsksWoeJbvTdLu0gm8K3sF3/o59D/AMGaGEy+HitxFhFPH4721DhDD14JrB4Bc1DFZ2oSTticdNVMNgZtRlSwdOtXg5xx1OUP6X8GeCadHDR4uzKipYjEc8Mmp1Ip+ww6cqdXHWe1WvJSpUJWThQjOpFtYiLj/IP/AJ6/5/z3r+9D+gRuRnnr9QcYz/LnP1oAU88YPX+XP4dP1HfoAHA9fxJ/rQAcZ56/XjHP0HQEn6UAHH8+5Pr2/Pn2GKAEyM4A/L2/LpjH1xyKAAEc4yeRk8e3GR1xn3xz7UAGRgemeOcenv2z06cfSgA4x14Azwx/x6cUAKCMDp6dc/57ficZPFABx1PH1zgH2zj9OtACHB9D+Xpn2znIHXHPuaADjg8/Un246nuOnp7c0AWbK+u9NvLTUNOu7mw1CwuoL2xvrK4ltr2yvbWVZ7a7tLmB0ntrm3njjmt54ZElilVJI2V1BqKlOnWpzpVYQq0qsJU6lOpFTp1Kc04zhOEk4zhOLcZxknGUW4yTTaJlGM4yhOMZwnFxnCSUoyjJNSjKLTUoyTaaaaabTVj/AEuP+CF3/BSC5/b+/ZUTTviNqyXv7RPwFk0nwR8WJZXVb7xhplzZznwV8T3hQKPP8V2WnahY6+YwEPivQ9au1htLLUtOhr/H36SnhHDwu43dXKaEqfCfE6r5lkaSbp4CtCpH+0cmUnd8uBqVqVTC8139RxOHg5VKlKrI/jPxP4OXCme8+DpuOT5qqmJwCSfLh5xkvrOCv2oSnGdJf8+KtKN5ShNn80H/AAc6/sfH4L/ti+G/2mPDWl/ZfBP7UnhwXOuyW0Wy0s/i38P7TTtC8TI6xgRQN4h8MyeFNfVm2y6lq7eJbwh3jnkP9h/Q24+/1h4AxfB2Mr8+Y8FYvkwsZyvUqZFmtStisG1f3pLCYxY7C2V40cOsHT0Tij9n8FOIf7S4erZLXqc2JyOty0k370svxcp1aOrd37Guq9LtCmqMdrJfzPHHfp9SORnPT0xX9hH7OAP+fz/DOcjj0pPZ6X8u41q97ed7W/z9PxP6Kf8Ag2j/AGsj8Bv28H+CniDU/sngf9qrwrP4F8qeYR2UPxN8KC88TfDrUJdx2me9gXxV4NsogM3GoeL7GPOUQV/JP0vuB/8AWXwyXEWEo+0zLgnGxzJShG9SWTY508Hm1JWu+SnJ4LMKsr2hSwNWVrNn5P40cPvNeE/7UpQ5sVkGIWKbWspYGvy0MZFK2ii3h8TN3tGGHlof6JvPHHODnqOoHJwPUYx17jpx/lMfx8J14x3PPzdcDkgg9ugJxjI9yAKM+mOnduOO/TkAge/XPBwAHODj05B5J+Xj9eDxzj8KAP8ANk/4L8ftS/8ADS//AAUY+J+k6PqX2/wN+zzaWfwG8KiKTdbNqfhOe7vPiJeiNSYvtL/EPU/EekG6Rma603Q9KLvsiiji/wBW/o18Hf6peFmT169H2WY8T1KvEeNco2n7HGxpwyund+9yLK6WFrqLSUKuIr2Tu5S/0J8C+G/9XeAstq1afs8bn06md4pte8qeJjGGAg27PlWApYety6KNStV6tt/ixF/F9T/M1+7z+J/L8kft1LaOnyXnf5W/BliLp+Arjn8MvR9v10PRh9n5fkf1tf8ABrd+ySfEXxC+Mf7ZvibS/M0z4fab/wAKd+F1zcRFom8YeJ7W11bx9rNi5UFLzQvCbaPoPmqWSS18b6nBgvE2z+Kvpc8ZfVstyPgbC1rVsyq/23m0IuzWBwk50cuoVF1hiMaq+Js3dTwFGdkmr/yl9Kbi94bK8k4Jwta1TMan9tZrCMtfqeFnOjl9Gor6wr4tVsRZq6ngaUtmr/0Sf8FVv+CjHhP/AIJ1fs6XvjdU07XvjR48bUPDHwQ8D3kjPDqviVLZHvvFGt28ckdyfCHguC5ttS1wwtE+pXc+k+H4bqzn1uK9tv5j8IvDPGeJnE1PAXqYfI8v9ni8+x8LJ0cK5tU8JQnJOH13HyjKlQupeyhGtiXCccO4S/nrwh8MsZ4mcT08vbq4fI8v9ni8+zCCs6OFcnyYTDyacfruPlCdLD8ykqUI1sTKE4UJQl/mu/E34oeP/jV8QvFvxV+KXinVvGvxA8c6xda/4o8Ta1P9ov8AU9Ru2BZmwFhtrW2iWK00/T7SOCx02wt7bT7C3t7O2ghj/wBOsuyrLcjy3DZRlODpYDLcvoxw2EwtCKjTpUobK9+aU5SbnVq1G6lWpKdSpOU5Sk/9U8jyjLsiy7B5PlGDo4DLsvoRw2EwlCHLTpUqdklZ3lOcpXnVqVHOrVqSnUqSlOcm+KTr/n1HT/PTNbTvyr11+5/8P117n0VK1tPL9fL5bL5FqPv+H9a46m8vT9PM9Wl9n5/qWU6H6/5/z/hXHU0ivX9H6t/qehS0S9H279L9enzLkfUfVv5n/P8AjXHU+16P77f8MenR+Jer/wDSywv3O3Qdznt26HH9a46vz3for7/PT8D0aXw/Jfl/wPkW16L0749eSc4H5fQZrhqfa9X+Z6tHZd7P8/6/Atr94Dg/e/Uj6dD78kdc9OKW9m+m+vd/rp189bnpULcqd9N777OXr5d9z+hP/giH/wAFVdW/ZX+Iekfs1fHDxNPcfs1/EXWo7Hw/qusXbSQfBbxtq9yEttWtLiZyLLwJ4ivplg8WWJK2OkX00fiy2+xhPEI1b8E8YfDWlxJga/EOT4eMeIMBTc69OlFKWbYOkrypSil7+NoQV8LP46sU8NLnvQ9n/IH0rfo7YfxEyPFcd8I4CMOPMiwsquNw2FppT4qyrC0+aphqkIK9XOMDRi5ZbVSdbFUoSy2ftXLBfVv7wUZXCspyrDcrKxYMDgggjIIIOcjg8HIBGf4w+9eqaf3PU/yEaabTTTTs09Gmt010aPI/2g8/8KF+N3HT4Q/EnJ+b/oTdZHGePfv0z2r0sm/5HGVf9jLA/wDqVSPqOBv+S24P/wCyp4f/APVthD/K2T7o/H+Zr/QKp09e9r9P1e3ld7H/AEv0uno+l+5aj6D6Duf7w79f88VwVd36vv8A526O9vL5+rQ2+UPzRbTv+H8/8/8A1q46n2vT9P67/ovWpbfKP5MtRfezjPH69v5de351wVF0bt7u69X6/PuelS+Htq1prbZdPy+RdTmNuO5POfXP6Y/xHryVLJfO3T+V+b3b/wAtdvTpfZ+f6lpP6+/ofw7j36+lefU+16/qexQ6+r/T+vu7l1Pvn6DH69fx469xXFLd27u/9W7LV7vW+m/r0kmvnr56rb5a/eWYs4HTqxPXjr74x/nnHHFU6f8AAemlvPt+TsenQ266Rl16Wfz+f9O+g+U+vB47Hnvnpzyc9M9Oo82bur/4d/WX9LzserS9d31+T7PVdPP7i9bySQzQSwu8UsTxyRSxO6SRyIdySRupDJIrAMrKwZGGVIIzXHVXuO9tZWaaWzWvlbWzstU9dNF6kIRqU/Z1IxnCouWcJpSjOEoqMoyi7pxlFtNNWaeqsz+1f/gi5/wUlvf2m/BMv7O/xo103vx1+Geipc+HfEOoz5vvih4AsDFaC+u5nbde+L/CvmW1rr0rk3et6XNZ6/Ibu9i8QXcf43xdkEcurLHYSHLgsRO04Rty4avJt8qXSlU3ppK0JXp6R9mn/wA+H7Qz6IuH8G+Iqfiv4eZb9X8NOMcwlRzbKsJTawvBnFOJ56zw1CnFWw+Q53y1q2WQj+4y7GU8RlkfYYeeV0Z/vOevfBxzls//AK+eAe/TJ4r4w/zLA9uCeR3b29vXPXGODigA7dOnbLcHg446cY47H6GgA5HbH4t9MfoQPfGPcABkdvTu36cHuPy45BBoAQZPQY/Fu2M49COn6c4NAC49ug/2hnGMdsZ4GQMn8qAD8D+BfH4cGgBecYOCefXpkZ6Dv+GBj0NAB09zznkjPr0B544HbnHSgAOeep47Z7AfXBJ9O3PUUAJ6fkCSc9BnsMcfqOnXAADP5kcDOAMevAx16DGcHNAAPck9M8Nn9O/rjpjByeaAPnj9rX4+aP8AstfszfHT9obXUguLT4R/DPxV4ztdPuHMcWs65pmmTjwz4f8AM3KUl8ReI5dK0KAh0/f6hHl1B3D6vgbhfEca8Y8NcKYZyhUz7OMFl06sFzSw+GrVo/XMVazusJg418TJWfu0noevkOVVM8zrK8opXUswxtDDSktXTpTmvbVeulGiqlV6PSDP8jnxz408T/Enxp4t+IXjXV7rX/GHjnxJrni7xVrd62+71fxD4j1K51fWNRuWI/1t5qF3cTuFCqpk2qoUAD/djLcuwWUZdgMqy6hDC5fluDw2AwWGpq0KGEwlGFDD0or+WnSpxim9Xa7bbbP76wuGoYPDYfCYanGlh8LRpYehSj8NOjRhGnTgvKMIpfI5bHfOfyx68f8A6/15rtNwAzjg5z/MnA6c4zwOvTIFAH9SP/BNf/g2u+JX7SXhDw58a/2w/F3iT4DfDXxNa2ur+F/hj4ZsLIfGXxNoV5GlxZ6vrV34gtL/AEb4cWOoQPHPp1pqOh+IvEF3bOZb3SNBVrWW5/izxf8ApfZRwjj8Xw7wBgMHxPnGDnOhjc5xlWr/AKv4PE024zw+Hp4WpSxGb1KUk41qlHE4TCwmuWniMS1OMPw/jLxlweT4itlvDuHo5pjaMpU6+Nryk8uo1Yu0qdKNKUKmMlBpqcoVaVGMtI1KtpJf0UeE/wDg3W/4JNeHNJj07U/2d9f8a3SRCOTXPFXxo+MkWrTuFAM8kfhPxv4W0ZJWOXIt9JggDE7YFUba/lDHfSw8c8XXdajxZhcug5cyw2C4d4flQiv5E8dluNxDj/ixEp95H5FX8XePa1Rzhm9LDRvdUqGW5c6a12Tr4avUa6K9RvzZ8uftIf8ABrt+wv8AEfw/qUv7PviT4mfs7eNlgmbRWPiG8+J3w+a62MYo9c8P+MprjxZLbs4VBLpPjrTmtlZ5Wtr8hYT9pwj9M/xKyjFUY8VYPJ+LMtcorE2wkMmzVQv7zw2Ky+MMDGSV3y18sqqbSip01eR7eT+N3E+DqwWbUcFm+GulU/cxwWL5erpVsOlQUutqmFmpWteF3I/id/bS/Yp+O37Bfxt1j4GfHvw/Bp2vWsCav4a8S6RJNe+EPH/hS6nmg0/xX4Q1aW3tnvdMupLee2ube5t7TVNI1G2utM1exs721lhH+inh34i8M+J3DmH4l4YxUq2GqSdDGYOuo08fleOhGM6uBx9CMpqnWhGcZwnCdShXpThWoValKcZH9J8N8SZXxTllPNMqqudKTdOtRqJQxGFrxSc6GIppyUZxTTjKMpU6kHGdOcoSTPkvtg88c8dfy/kK+6PfD+n/ANbqB69/QexoAMjk54yP6Y/Dp7c0AfsJ/wAEv/8AgjV+0N/wUo1K68V6bew/CP8AZ58P6qdL8R/GXxFpNxqQ1XUrfy2vfDnw68OrPp7+LtdtY5U/tK5fUNN0DQ/NCahqjagbfSbz8D8Z/pA8K+EFGGBrU5Z9xXi6PtsJw/hK8aLoUZXVPGZti3CqsBhptP2MFSrYrE2bpUFRU69P89428Rcp4NhHDzg8wzetT9pRy6jUUPZwd1GtjKzU/q9KTT5IqE6tWz5IKF6kf68/hB/wbUf8Ewvh3o1pZ+OvBHxL+OutJFH9u134g/FHxX4f+03OFMz2uk/Cq7+HtjZWhkVjb28pvrmGLZHNf3Tq07/wdn30v/GXNsRUqZbmWT8M4dyfssNlWS4HFckL+6p187p5rUqVErc84+yhKV3GlTTUV/P+YeMvG2MqylhcVg8rptvkpYTA4eryxvopVMdDFylK28lypu7UYp2LXxW/4Nrf+CXXxA0e7svB3w8+JPwT1WWKQWeu/Dz4seMdYuLS4Kt5Tvp3xTvviJpdzbo5Bkha1hlkjDRx3Vu7CVc8k+l740ZViKdTMM2yjiOhGS9phc2yPL8PGcbrmSrZJSymtCTV+WXPKMW7uEkuVzgPGTjfCVIyxGMweZU01zUsZgMPTUlfVKeBhg5xdtnzNLS6ex/Il/wVO/4Iy/HX/gmpqNj4yfV0+L37OfifVv7H8N/FvSNIl0m80HWLhJZ7Lwv8RvDwuNRTw7rF1BDN/ZOp2uoXuha+LaX7Pc2OomTRbf8AvDwU+kHw14v0amXrDvIOLcHQ9vi8ir1416eKoQcY1MblGK5KTxeHhKUfb0Z0qeJwvOueFWlbET/f+BvEbK+M4Tw3s3l+cUKftK2X1KiqRq01ZSr4Otyw9tTi2vaU5QjVpXV4zhaq/wAa8dO5Gcf559ug/Q4r+gT9FDoen6emeePb9MD2oA/ar/ggH+1Jffs0f8FJfhBptzqL2ngf9oN7j4B+NLZpStrPP41mtn8BXjRORCLmy+I2n+F4VvGxLbaZqGsRRSCO8njl/nb6UfBdPjDwhz+tToqeZcKqHFGXzUbzjHLozWaU1Je9yVcpq42XJfllWpUJSV6cWvzfxWySGc8G5jNQ5sTlPLmuGkl7yWGTWKjffllg513yrSU4U203FW/tb/4LefsfH9sf/gnt8YfDGi6WdS+JXwos0+OPwuEUJmvZfEnw/s7671vQ7ONAJZ7nxV4HufFXhuxtY2VZdX1LS5pFla2RG/zt+jlx9/xD/wAVcgxuJreyyfPJvhvOnKXLTjhM1qUqeGxNRv3YQwWZQwWLq1HrHD0a8VbnbX82+GnEP+rvFuX16k+TBY+X9mY67tFUcXKMadWTekVh8SqFaUmtKcKkVbmbP8vr/PPP9a/2bP7aAD1/zjp2/P36Um7J+jt9xUUm2n2/VHZ/Dzx14m+GHjrwX8SvBmoSaT4u+H3izw9418L6nEcS6f4g8Maraa1pF4nOCba/sreUqflcKVbKsRXkZpluEznLMwyjMaUa+BzTA4rLsbRl8NXC42jPD16b7e0pVJLTZu61SKxGFoY7BYnBYmHtMNjKFbDV6cvt0a9N06kXe+8JteXQ/wBcr9l748eHP2oP2d/gz+0H4SaJdD+Lfw88NeM4rSKXzf7J1HVNPibXfD9w4Zgb3w5rqaloF+NxKXunXCbmKZr/AAs4y4axfBvFfEHC2OT+s5FmuMy9zlHl9vRo1pLC4qKf/LvF4Z0cVSenNTqxdlex/nznuU18iznMsnxN/a5djK2Gcmre0hCb9lWS/lr0XCtDvCcWe9Hv/wDX56DB49QOTnjPavmjyQx0xnt1zz14/DrjgdB3oA+VP24f2jtM/ZI/ZL+PX7Q+pS2yy/DP4ea1qnh63u2Ag1LxtqCRaD4C0d9xBZdY8Z6roWmMFywS6ZsEqa+y8PeFa3G3GvDfC9KM3HNs0w9HFSgryo5fSbxOZV150MBRxFZd3BLdo+l4OyCpxRxRkmQ01JrMcfRpV5RvenhIN1sbVVk/4WEp1qi84pdT/Jx1TWNT8Q6vq+v63e3Gpazrmp32satqN3I011qGp6ldTXl/fXUrktJcXV1NLPNIxJeR2YnJr/aOlQo4XD4fC4enGlQw1KnQo0oLlhSpUacKdOnCPSMIRjGKSVkkrH+n+GpUsPSoUKMI06VGlTpUqcbRhTp04RhCEY7JQioqKS0SSVirF0b6n+bVE/ify/JHp0lpFevTpr02/D5F+wtLrULm2sLC2mvL6+nt7OztLaN5ri6u7mVYLe3ghQM8008zpFFEis0rsqKCWAPDVnCnSqVKk4wp06c5znJqMYQhFylKUnpGMYpuUnsk30PQU4U4+0qSjCnCDnOc2lGEIxcpSk20oxik25NpJK7dkf6o3/BOP9l3Tv2Jf2JPgj8Eb2Oz0/X/AA14LTxN8UL5mjjil+I3ioP4o8fXNzeMUE9ppOrX1zolheTsDHoWjabGwjjgWOP/AB98UOLqvHvHuf5/Tc6mGxePeEyinZtxyvB2wmXQhBL3Z1qNOGIqQitcRXqtXcm3/lp4kcVVeOOOM8zyDnUw+KxrwuVU9ZOOW4S2Fy+MIa8sq1GnGvUhG98RXqtXcm3/AJ+n/BV/9t/VP27v2yviH8S7PU7m4+FXhC8ufhz8EtMZ3FnafD3w3d3EEOuRW5OEvfG+qG/8X38kgNzGNWtdLeRrbSrOOL/Rfwh4CpeHvBOV5VUoxhnGNpxzTPqtk6k8yxcIylh5S608voqngqSVov2M6yXNWm3/AKO+DnAlLw/4KyzK50oxzbHQWZ57VSXPPMcVTjKWHlNX5qeAoqng6ST5W6M6q96tNy/N1Op+n9RX6NU+16v8z9go/o/zROn3vw/z9K5Z/D93l+H6Pp5o9Knt93n0fX9f8z9kv+CXP/BHz4x/8FEdWl8a6nqF18KP2bvD+ptp/iD4n3Om/a9U8U6haMDfeGPhrpd00Ntq+qW4Ig1XXrtzoPh2ST9+uq6lENDn/EPFbxiybw6pfUaVOObcTYmiqmGyuFXkpYSlNWhiszqxvOjSlrKjQgvb4lL3fZU268fxjxg8esg8KcPHLqFGGd8XYmh7XC5NCt7OhgqVS6p4zN61PmnQoy1lQwtNLE4tR9x0KL+sx/tU/Z3/AOCQf/BPf9mzRrCw8J/s4+BvG2vWkUa3Xjn4x6TYfFPxdqd3GFBv3uPFVpeaLo08hVGMHhXRPD+nI4Lw2Mb7mb+JOIvF7xC4mr1KmM4kx2CoTk3DAZPVqZVg6UXtTUcJOFevFXdpYuviKrTs5tH+fnFfj14rcXV6tTG8XZnluFnJ8mWcP16uSYCjB7UlHA1KeIxEUtObG4nFVWtJVGrI+mPF37GX7JHj3SpNE8Y/sx/ALxFpkkBtxb6l8IvAkrQR42AWdwuhLdWDqpIjmsp4JYxzG69a+XwnGHFmBqqtg+Js+w9RPm5qebY9KT/vx9u4zT6qcZJ9UfIZf4i8f5ViI4rLuNeK8HXU+fno5/mkVOV7/vYPFOnVT6xqxnF9Uz8C/wBvv/g3G+Efjbw/rnxB/Ydnm+F3xDsoLjUB8HNf1q81T4b+L3jV5m07w5rWuT3mt+B9bu3LCzN/qmq+FZJvs9gbTw3ZtNqcX7rwN9IbNsHWoYDjaMczy+Uow/tjD0IUsxwibt7TEUaMYUMbRirOfs6VLFJKU+bEztTl/WfhL9MjiDKsZhco8UIRzzJqso0XxHhMNChnOXKVoKtjMLhY08LmmGgrOp7KhQx6jz1faY2py0J/xn+M/Bfiz4ceLPEXgLx54d1bwn4z8Iazf+H/ABN4a12zl0/V9E1nTLh7a+sL+0nCyRTQTIVPBV12yxM8To7f1thsbhcxwdDH4HEUsVg8ZRhiMNiaE1UpVqNVKUJwnG6cZJ+TWzSd0f6bZNmmXZ1luCzbKcZh8xy3McNTxmBx2EqQrYbE4avFTpVqNSF1KM4tPdNNOMkpJpYKg7+OuDjsevOe2Ovbnnr1MS+Javv6a9NPx1ufQULKK6K/bzez3/y6FqIZDc45znJ/xGfXJPH41x1dp2110+/8D1KPp1a9NEf6Bf8AwQd/bZvf2qv2SIPh3431htT+Lf7N0uk+ANfu7uYy6l4g8BXNpM3w48TXbyu81xdLpmm3/hXUbmRpZ7m98MnU72Q3Gqgt/D3jLwjDhvieWOwdJU8sz9VcdQjBWp0MbGa/tDDxskox9rUhiacdEoYj2cFy0tP8aPpjeE1Lw58S5Z5lGGWH4Z49hic7wVOlDloYLOadWCz7L6cUlGnTdevQzKhTXLCnSzFYelFQw2n6yftBg/8AChfjcemfhD8Scjkj/kTNZ9iAePXsOe9fmeTf8jjKv+xlgf8A1KpH84cDf8ltwf8A9lTw/wD+rbCH+Vsn3R+P8zX+gNTW3k79e33PWz+7Tv8A9L9J2S9HayvbX5luPoPoP/Ql9v8APvXDVWrf95/1+H5Hq0NvlD80Wo+/4e5+nfrjk59OtcdT7Xp+h61Lb5R/JnQeHNB1zxTruk+G/DWkan4g8Q6/qNno+h6Fotjc6nq2satqNwlpp+m6bp1nHLd319e3Usdva2ttFJNPNIscaMzAHzMTVp0adStWqQpUqVOVSrVqyjCnTpwvKc5zk1GEIxTcpSdoxV3sb4rH4HKsBi8yzPGYXL8uy/D18Zjsfja9LC4PB4TDU5VcRicVia0o0aFGhShOpVrVJRhCMZTk0kf1Z/sN/wDBu7ZX2iaN8Qv23vEWsWt/fww6hbfAzwHqcNg+nQzKsqW3j/xtbLdTyXjoxW70Lwe1obGRIz/wllxI09nD+EcTeK0lUqYThylTlCDcXmWJg5c8ldN4XDS5UoX+GpiFLmT/AIC0k/8ALHxz/aOYnC4zGcOeBeW4OrQw9Sph6vHnEGFniI4mUJOLqcP5HVdOmqKkuajj85VZV4ykv7IhFU68/wB1vB//AATK/YC8DabFpWhfslfBSe2ii8oT+J/Btp431R0Clf3+t+NTr+sXDkAZee+kckk7ieT+ZYji7ibEzc6ud5gm3e1GvLDwXpTw/sqcV2Silt2P4Qzj6U30ic9xUsZjvGLjqlVlNz9nlWdV8hwkZN837vA5H/Z2CpxTStGnh4xSSVraHjHxr/4Ixf8ABPn4zaXe20fwRsfhVrs8TpZ+K/g7f3Xge/02RlOJYtAiN54IvMPsfbqXha9yFYRtEXYntwHHXEuBnFvMJYymmuajjorERkl09o7YiOit7taPneyPv+Afpz/SU4DxlCr/AK+4jjDLqcouvk/G+Go5/hsVBPWE8wmqGf0Lxuk8Jm9C2nNGaSS/la/4KGf8ElPjX+wrJL450+8f4sfAG7vktrX4j6TpkllqXhW4vJhDYaX8Q9Cilu10WS4mkS0sNetLm50DVbloITNpmo3lvpA/VuHuMcDxBFUJx+qZjFOTw05KUayS9+eGqaOokknKnKKqwSbtOKcz/ZD6Lv00uAPpCxhw7iqMeDPEmhhqlWtwrjcXHEYXOadGnKpicXwxmEoUHj40oRdfE5bWo0sywdGNSoqeLwlCrjj8qE5U/h1HPfGBwPQemK9+f/yP/tx/cdF9ur7+Sv8ALr9xbT7yf8B7Y9fYcnqffP4cVS3L1vzW7rba99lrbfS1z16O0fWP5Jf15WPY/gP8Z/Gf7O/xh+Hnxq8AXrWfin4d+JbDxBYLvkjg1G3hYw6roWoeXhn0rxBo899oeqwg/vtOv7mIbdwK+djsJRx+Er4Our069OUHprFtXhNdOanNKcXbSUU+1vkfEzw94f8AFfgDivw64ow8cRkvFeT4rKsU+WE6uEq1EqmBzPC814xxuVY+lhsywNRq1PF4ajO2jUv9JL4MfFXwx8c/hR8PPjD4LnFx4X+I/hLRPFuj7ijT20Gr2cVzLp14Yyyx6hpd00+malCCfIvrS5hYAoa/AcXhquDxNfC1laph6s6U+zcG0pK/2ZK0ovrFpn/Iv4g8E514bcccV8BcQ0vZZzwlnuY5Fj+WMo061TAYidGGLw/NaUsLjaKp4zCVNquGr0qiupJnphDfiOh55PB6AdOD27D8ec+PFxwPXHYHnOPb29PTIxwQBAOOcnv0YY5Gfx44zyT9eQAXP5YHOf0zgeo6D1Oe4AYPQknv/LPbnPPr+pyAAHIznjPTdjj8Pc/XuSTyALkjj0/2WP655oAOccgY5HU569M4z1x9emKAEwf5/wATA8fhzgcdOeDQApz+XT5iD9en8+B3NACYJ9Ovq3HAPse2e+M+xoACDnoDxzy3OR0Hbt/L60AKBz+Xfk4HfjBz+fXB44AP55P+Dm/4nXngT/gmbqHhSxuGt3+Mfxt+GPgG/RJCjzaTpTa98S7lNww3ltfeAdMSVFI8yKRkbdGzqf6r+hzk1PM/GOjjqkFJcP8ADmdZpSbV1GvXWGyeD2tf2WaV3FvaSTWqTX634LYKOK40hiJRusuyzHYqLtdKpUVLBRb/AO3cVOz6NK2p/nR/57+nr+PXn8+R/rKf16J+HHHc/gRgfr6j2zQB+5H/AAb6/saeHP2u/wBvzw7f/EDSINc+GX7Pfhq7+NnibRr+BbjS/EGv6RqumaP8P/D+oxSh4J7V/FWqWviS8sLiOW31XTfC2oaZcxPbXcwH82/Sn8QcXwH4XYqllWIlhs54rxlPh3B4ilNwr4XC16NavmuKouNpxmsDRnhIVYOMqFbG0q0ZKcIn5j4s8RVuH+FK0MJUdLG5vWjltGpBtTo0qlOdTF1YNWal7CnKjGSalCdeM4u8Uf6VwXAHAA44BIwAOOAABjH5+mRj/IE/jUXkg+2Mcn0HXoe+ec+/SgBcZHI4OOMk45+nH4ccDtzQB/Pd/wAHJX7Kmg/HL/gnv4i+MsGlQP8AEb9l7XdG8f8Ah7VYoQNQfwZ4i1nSfCfxE0B7jG5dLfTtR0/xbcREsPtfg+z2bQ8m/wDqj6InG2K4a8VMJw/KvKOUcaYXEZXi6Dk/ZLMMJh8RjspxSht7ZVaVXAwf8mPqXvZW/WfBzPauV8W0cudRrB53SqYStTb9xYmjTqYjCVbbc6nCeHi/5cRLyP8AOY6cn8cd+OT2H8zgV/rQf1+HbGfTnJOTx6Ecc+pHOeMUAe0/s4/BfXf2jfj78GfgL4al+z618XviV4N+HtpfmMzJpa+J9cstLu9YmiyPMt9Hsri41W5UEFre0lAOcA/PcW8Q4bhLhfiDifGR58PkOT5hmtSlfldZ4LDVK8MPGXSeIqQhQg/56kTzc4zKlk+VZjmtZc1PL8FiMXKF7OfsKUpxpp9HUklBeckf63XwO+DHw+/Z4+Efw9+CXws0K38N/D/4aeGNN8KeGtLt1VGWz06ELLfX0iIn2zV9XvHudW1rUpQbnVNXvr3Ubp5Lm5ldv8K+I+Ic14rz3NeI87xM8XmmcYytjcZWm2/3lWV40qabfs6FCmoUMPRi+SjQp06UEoQil/A+Z5ji83x+LzLHVZVsXja869apJt+9N3UYpt8tOnG1OnBaQpxjCKSikeqc54AzxySffH8vyJHTJrxDhFPXgemOSMjnjjjj8eKAPCv2mPgD4H/ak+AfxW/Z/wDiPYQX/hH4qeDNX8LX5lhWeTS7y7gMuh+I9PWUMItX8L67DpviLRrgDda6rpdncLzHivpOD+KMy4L4nyPinKKsqWPyTMKGNpcsnFVqcJcuJwlVppyw+Nw0q2ExENp0K1SD0Z6eTZrisjzXAZtg5uGIwOJp142bSnGLtVozta9OvSc6NWP2qc5Lqf5E/jzwdrPw68ceMvh/4jiFv4h8CeK/EXg7XoBnEOseGNXvNE1SLp0ivbGdBkZ+XHqa/wB3sszDD5tluX5rhJc2FzPA4TMMNL+bD4yhTxNGXzp1Iv5n9/YXE08ZhcNi6LvSxWHo4mk+9OvTjVg/nGSZynHOSePQn39wM8dPbkmu43Ot8BeL9T+H3jrwV490Wd7XWfBHi3w34u0m5jJElvqXhvWbPWbCeMgqQ8V3ZROpDAgqCCDiuHNMBRzTLMxyzERU8PmOBxeArwlrGdHGYeph6sWnpaUKkk/JnPi8PDF4XE4WolKnicPWw9SL2lCtTlTmn5OMmmf7GWg6raeJfD+ja5aqr2Ov6Np2rW6lhIr2mq2UN5CG42SAwzqD/Cw9jX+AuJoVMJisRhptqrhcRVoTeqanQqSpyts0+aLt1TP886tOVGrUpS0lSqTpvupU5OL/ABR/lrf8Ff8A9kBv2Kf2+/jd8KtM05tP+H3iTVx8V/hKFiaK1Pw6+Ic93qun6bYqQN1p4S1xNf8AA6yHJkl8MSyHAcV/tL4CcerxE8L+G87rVva5rg8P/Yeety5qn9rZTGFCrWqvpPH4Z4XM2uixqXQ/uDw+4g/1k4VyzH1J8+Lo0/qGYXd5fXMIo05zn2liKfssVboq6XQ/Mod/yH+eeR0JzyfpX7E9nvs9vR/1r1Pto79Pm7bNP9CROmTwR2B//V179uPSuforPd779fN3d9djrp/Drpr69Ef3c/8ABq/+1j/wnP7P3xb/AGQ/EWpebrnwO8TH4h/D+1nm/eP8N/iPdzSa9p9jASW+zeHfiBDf6peSKAon8e2iFQcM/wDmh9NHgj+zuKcj47wtHlw3EeD/ALKzScYuyzbKIRWFq1ZWXv4vK5U6NOOvuZXN3sfyz49cPfVM3y3iOjC1LNaCwWLklp9dwUI+xnN/zVsG404rtg5NH9XXPoOvqT6D+Xr35r+Jz8ADkjsenGT79vfsD+OcUAfyP/8AB1H+1N/wj/wx+BH7H+gaiU1L4h67c/Gb4h29vORKnhHwcbnQfBGm30ef3ljr/iq/1rV0VlG298DWsgIAw39s/Q34NeKzfiTjnE0b0srw0MgyqckrPHY/kxOY1aT+zVw2CpYeg3/z7zGpHrc/p/6NnDft8yznimvC9PAUI5VgZNaPFYvlrYupF9J0cNClS84YuaP4lIujfU/zav8AQKX6/pE/smH2fTvZbf1+XUsRdG+p/m1c0/ify/JHfS2jp3Vvv01/X8Nz9qf+CCf7JH/DU3/BQP4d6nrml/b/AIdfs+W//C8fGhmh32NzqPhm9tYPh7okzMDA82o+OrrR9TeymDC90bQdcXYyRSFf57+kbxquEPDXM6OGrezzTiaX+r+BUZWqRpYunOWZ10l7yjSy+Fekqit7PEYjD6puN/yjx34uXC3h7mFKhVUMy4gccjwSjJe0jTxVObzGsknzKNPAwrU+dfBXr0LtNq/9nv8AwWw/aIuv2a/+Cb37QfibR75rDxZ4/wBFsfgv4RnimME66j8UL1fD2t3FpMCJIb3S/BEnizWLOWLMqXWnQshjI82P+EfAjhmHFPihw1hK9P2mCy2vUz3GxceaLp5TB4nDxnHaUKuYLB0akXo6dSd0/hf8deBvDcOJ/EzhzC1qaqYPLq9TO8ZFx5oullUHiKEZxaalCrj1g6E4vRwqyvfZ/wCZrB0T6H+Rr/Uyr8b+f5s/1Op7/OX5yLidT9P6iuOf2vn/AFqd9Dr8/wBD68/YV/ZU8R/tqftUfCP9nXw/NcWEHjfxAJPFmvW8Qmbwz4D0OCXWvGfiAK4MJubLQLK8TS4rgrDea1cabYMwa7WvhePuLcNwRwlnHEmIjGo8Dh2sHh5SssVmFecaGBw19+WpiKkJVXH3oUIVaiuoNnzfiBxnhPD/AIMzvirFRjVll2FSwWGnLl+t5liZLD4DC6Pm5KmJqQdZxvKnh41aiX7tn+o78J/hZ4E+CPw38FfCX4YeHbLwp4C+H/h7T/DPhfQbBNkFjpmmwrFEZXx5l3fXcnm3upahcNLeanqNxdahezz3lzPK/wDlVm2a5hnmZ47N80xM8XmGY4mpisXiKj96pVqSu7LaEIK1OlTilClTjCnTjGEYxX+P+dZzmXEObZhnmcYqpjczzTFVcZjMTVd5VK1WV3ZbQpwVqdGlBKnRpQhSpxjCEYr0Ln09e7Zx37ZPt+GOgNeceWHIAOBnOOp9cenPHc/UZoAMHpgY9yfX6flgcdR1oA/lX/4OPv2CdG8R/D3TP26/h7osNr4x8C3OheEPjkthbKh8R+CtVubfRPCPjG+WJQ02reE9audN8NXV2yvPc+H9Z08XM0dn4Yt4x/TP0fuOK2Gx1XgnH1pTwmNjXxeSucm/q2MpRlXxeDp3dlSxdGNXExhoo4ijUcU54ln99/Qp8W8Tgc7r+FGc4qVTLc2p4vMeFXVm39SzXDwlisxy2k5O0cPmGEhiMdTppqFPGYWs4RlVx02fxnofnBHTk5z2yOOgI5z145POK/rGW/397J3116+dl23P9QKHw+e1tdNX/Xy2LcXIfHrx36jHf+v4nGa5Km0vX9T1KL+V2/yX6n7Yf8EDf2gbn4J/8FCfAXha5vWt/C3x90HX/hDr0LykWp1S9tf+Ek8E3XkkhXvj4t8P6bodpMB5sVv4gv40IS4lST8b8asljm3BWLxMYKWIyatQzOjJL3lTjJ0MXG+6h9WrVK01s5UINq6TX8xfTL4Jp8W+B2dZjTpKeY8FYzA8T4OSj+8+rU6n9n5vT5rXjRWWY3EYyrG/LOeCouSvTi4/3fftBDPwF+N3/ZIfiSc5P/QmaySDnjP9APrX8bZN/wAjjKv+xlgf/Uqkf47cDf8AJbcH/wDZU8P/APq2wh/lbJ90fj/M1/oDU0S9b9V5a2vd7WVj/pfpdPn+paToO3A6/Vff+o/CuGru3r8T726/Lp+J6tDb5Q/NFtOvY9P59R/n09q46n2vT9On9b3PWpbfKP5M/sO/4N9P+CfWj+HfA0X7cnxR0GK98YeMX1XSfgVYalbBx4X8I2k1zo+uePIYplJi1vxTfRaho+jXPlJLZ+GbO4vLSaaDxR+4/nHxY4rqVsW+GcDVccNhlTnmk4O3t8RJRq0sK2tHSoQcKlWKdpV5KLSdDX/Iz9oH9ILG5hncvAzhbHTo5Nk6wmM47xGGq2eaZvWhTxmByCpOm/fwOVUJ4fGY2k5SVfM61KlWhCpldp/1CdM4/m3bGcDk/Q8cYPIr8UP8vwH07cHLep6/j1z7np0ADnJOB06ZPTnk8Y554I/XNAHPeLPCXhvx34Z1/wAGeMNE03xJ4U8VaRf6F4i0DWLZL3TNY0fVLaSz1DT762mQpNb3VvM8ciMM4O5SrKrLpSq1KFWnWozlSq0pxqU6kG4yhODUoyi1s00mj08lznNeHc3y3PsizDFZTnOT43DZlleZ4GtKhjMDjsHVjXw2Kw9aDUqdWjVhGcWtLqzTi2n/AJ6f/BSb9jK7/Yi/af8AFXwwsvtd38OfENvF46+EurXZaWe68Eazd3kMOlXtzjE2q+FtTtL/AMO6hKSs14lha6xJDbxarBGP6A4dzlZ3ldLFS5Y4mnL6vioLRKvTV3KK6RqwlCpFapObgm+U/wCoT6JPj1Q+kJ4P5NxdiPYUOKsrrS4c42wVBRhTo8QYChQnPG0KWjhgs4wdbDZphoK8KEsTXwMalSeCqTPgtB8yYzjjr689vz+nfFenU+DpukrLot1fy01be2j11/q6jtH1j+S/It4zx/TH9Md/T1znmsP6/r8/XY7PPz7/ANPp37fP+zr/AIN6fjhc+O/2VPHPwb1S8e51D4G/ESU6NE8hY2vgr4jwz+IdMtgp3NhPFlj43myMII7qCMKGQ7vyXjnBqhmdHFRVo4yguZ6a1sPaEn86bor1T0tqf8+H7VXw4o8NeNvDXiBgsPGjhfEnhSCx84wUVW4i4Sq0sqxlZtJL3sjxPDlPW83OjVk21JJfv5jpkcn3b1HI9AO/bpzXxJ/l6GOg9v7x7Y56cAfl074oAMHHuMf3scY7Yxzg8464xk0AAyOncerY7Dg44GAcHJPTtigAGfrnryeOnHQ4+vpjnoSAHTtj8T7AD39+COmeuSAHPofzcf0oAdjoeOM9jnk9h64/X6mgA/yOOnYfz559e3QADwOMceueM/yH04GMcdQANwcjpj3HbAHTqO/XsOTgUAGOQMDse+R0AB7n0/LOAMUAKM5564Hr2yPTv7AcZPuQD+V3/g7Dkcfsbfs5RBj5b/tNQyMnIVpIvhX8QVjZh6os8gU448xuM1/a/wBB2K/4iBxbK3vLg6UU+qUs7yptfNxjf0R+5eA6X+secPqskav5PHYO/wB9l9x/BV7e3tx24xjrz/8AWr/Tk/qYX/P+e3b8PxoA/sN/4NHrS3fx1+3JfNEjXVt4S+AtrBMQfMjt7zV/ixLcwqeoSaWxtGde7QRnjbiv4F+nXOayzw2pqTVOeO4nnKPRzp4fI4wk13jGpUS7cz7n89ePsmsLwxG/uuvmsmujcaeAUX8lOX3s/tp6fgecjsepH074wOST1r/Ok/mwBkde+OcHvtGOTnuev9MAABnjPtnrnIznHY5I7du3SgD8+f8Agq/DHN/wTU/biSaNZFX9mj4qSBXUMBJB4Xv5oXwcgNFNHHIjDlZFVgQQMfqfghKUfF/w3cW4v/XDJFddpY2nGS9JRbTXVNo+t4DbXGfDFtP+FrAr5OvFP707H+UdjA/ln1xgfn/U1/t6f3WIenp09OOQeO3HI59qAP1c/wCCHcMNx/wVb/YzjnjSVF+IfiCZUdVZRNbfDfxrc28gByfMhnijmjYYKSRoy4Kg1+IfSQlKPgj4guLcW8qwsW07Plnm+XQkvSUZOLXVNo+F8TG1wLxG02n9TpLTs8Zhk16NNp90z/Ubxjt09AfVenXoB+nTrX+Lx/EIuDxyMccDJ9enoDn8vYcgB3Hb2Gf59COR245waAEOSMHgnp19j/Pt2HsOQD/Jb/4KQWtvZ/8ABQX9tu2tokigT9qz4+MsajhWm+J3iaaQgf7crux92Pav9zfCOc5+FnhxKcnKT4H4XV3vaOS4OMfuikvkf3pwdJy4T4acm23kWVXb30wVFL8EkfFmM9/fg+5x9OOOMdxyOn6GfSCkZ/z+BHbjk/nQB/sI/s5SSzfs9fAeaVzJJL8GvhfLK7Z3PI/gnQ2kY44yzEk+5PQECv8ABDi2KhxXxNGKtGPEOdRilsksyxKS+SR/nxnCSzfNUlZLMccklsksTVSXyP5xf+DpL9j8/Ez9mf4dftc+GNME3in9njxCvhbx1PbQ7ri6+FHxG1C0sra7unUM8sPhTx4NHFrGBstbbxfrt47CNHYf1p9C3j7+xuMc24ExtflwXFmF+u5ZGckoQzzKaVSpOnBOyUsdln1jnd7zngMLTSbaP2DwQ4h+pZ1jMgrztQzei6+FUnZRx+DhKUox6J18L7Tm6ylh6UVq7P8AgoAx0Pp+gA/liv8ATp7dPnt8/I/qmO/XZ2tvt/lexKnTqOp4OD2/P1/DP1rn29de17X836fdrroddPSOnf8AyP1J/wCCNn7WJ/Y8/wCChPwH+ImqakdO8BeMdd/4U98UHkl8myXwT8S5bbQn1TUXLACx8KeJG8O+NJyMsU8OFArhyjfiPj7wR/r54WcTZVRoqrmeX4d5/k1o81R5hlCniVRpKzftMdg1isvj0TxSd1a8fjPEjh5cS8G5tgqcFPGYWj/aeA0vP61gVKqoQvvPE0FXwsdre3W1kz/UpBzg54IB4B79PUY688Z49q/xm/A/g0aeAxJAAGSSSMYXJPOMdeST0HIoA/y2v+Cun7Ux/a9/4KCftB/E/TtROo+CdB8Uy/Cz4aSpL5tm/gT4atJ4Z03UtOO5gtj4o1K01fxlGuQ3m+JJiyqxKL/sR4I8Gf6j+GHC+UVaapZhicHHOc2TjaosyzdRxlalWWidTB0pUMvem2EjZtJN/wCjfhZw5/qvwTkmXThyYuthVmOYJq01jcw5cRUp1P7+GhKlhH5Ydas/NuL+L6n+Zr9Tl0/rpE/TYfY9F+nml9/+ZYi6N9T+HJrmn8T+X5I76W0f+B56dtdux/oW/wDBt7+yP/woL9hz/hdPiLTPsfj39qjXY/HjSTwmO9tvhl4cF7ovw2sXyoYwagLjxH4ztJEbZPYeLbEld0QNf5ifSk41/wBZPEH+wMNV58u4Ow7y5KMr05ZtivZ181qKztzUnHC4CaesamCqL7R/BP0jOLf7f42WS4epzYDhXDvAWTvCeZ4jkrZlUVn8VPlw+CknrGphKn8zPl7/AIOsPHl1p/7P/wCyv8MopmW18XfGDxl43u4VYhZJPAHg2LQ7QuozlQPiPdFQcjeA2MqCPqfogZdCrxJxfmrXv4LJMDgISfRZljniJ26/8yuF+6du59r9ErAQqcR8WZpKKc8Hk2CwMG1ssxxrrzt2/wCRZC+qurra5/EfB0T6H+Rr+7Kvxv5/mz+86fxfOX5y/wCD/TLidT9P6iuKp9r1e/r/AFbzPQo/o/zX9an9aX/Bq58HbDVPiX+1T8er61je+8G+DvAfws8O3MiB2jHj3V9X8UeJzbsQfLmij8A+G4pJFKyeRfPEhMcsy1/Hn0sc6qUss4S4fpzap43G5hm2Jgna/wDZ9GjhMLzd03mGKaWq5qd3Zxifx39MXPatHJ+DOG6c2qePx2Y5ziop2v8A2bQoYPBqVt4t5ni2k7pypKTV4xZ/aSQeT14bI6+mAOh7c++a/iM/goOeevfrnA549OMD8vTPIAvXsO/X0z6fgCD+gzQAn49/c9Ce/OTgHI9fwoA8W/aP+FGmfHT4BfGf4N6xbx3Nj8Tfhh438FMsqeZ5Nz4g8PX2nafexKwIW60/UJ7W/s5FAaG7toJkIeMV6+QZnUyXPMozalJxnl2ZYPGXTteNCvCpUg/7tSmpQmtnGTT0Z9PwVxDX4T4v4Y4mw05Qq5Fn2VZonFuPNTweNo1q1KTW9OtRjUpVY7SpznFpp2P8peWCW0uZbWcCOa2lmt5kOfklhcxyKckZIZSO3txiv9MuZTUZLWMoqSeusXdp67XT03P+hLDTjVpxqQfNCcYzg1s4TvKNl0un5/5yRZw/rk/n7dP5iuWptLW2v6nq0emvX06f1pbXY9v/AGcfHFx8M/2gfgf8RbSZrefwL8XPhx4uSVW2lf8AhHvF+j6q6k5H7t47V45VPytGzK2VYg/OcRYOOPyXNsDJJxxmWY7DNO+vt8LWpK1lunJNdmkeVxrk9PiDgji/IqsVOGc8L55lkotXv9eyvF4ZNLWzjKonF7qSTWqP9P8A/aC/5IJ8beT/AMkh+JOR/wByZrPtwBn1x35OQf8APXJv+RxlX/YywP8A6lUj/nv4G/5Lbg//ALKnh/8A9W2EP8rZPuj8f5mv9AajtbfdW8r6X26ed97adf8ApfpdPn92v3lqPkD6D0/vL+H+ea4au71+09OnX+vn0PVobfKH5o7DwR4W1Hxz4y8JeCdIG7VfGPifw/4V0xcE7tQ8Q6ra6TZDAGTuubuIYA5z0rzcbXjhcPicTU/h4ahVrz/wUabqT/8AJYv9Nd9M0zTD5Hk2bZ1i9MLk+V43NMS+2Hy/CVsXWb9KVGb/AD0P9TX4Y/D/AED4T/DnwJ8MfCltHZ+Gfh74P8N+CtBto0CCPSfDOkWej2OQoG6V7e0R5XOXlmZ5HZndmP8ACuMxdXH4zFY6vJyrYzEVsTVb3dSvUlUl6K8mkloloj/l64mz/MOK+Is94nzWrKtmfEOcZjnWPqybbli8zxdbGV7N7QVStKMIqyhBRjFKKSXcj9eOMHjpnPqe4ySemK5jwxOc++CcdM5yPbvgnpyfYAAB7Z5Oe3/6iOgz+IHT5QAHQ44IB46889iOM8EAAZ9OKAP53P8Ag4x+D2n+JP2avhN8Z7e0Rtd+F/xR/wCEXuLtExKvhb4i6Nd/bUlkGGeKHxF4W8NrAshZYXvLgxbPPmLfoHh7i5UsyxeDu+TFYZVUujq4epGz7fwqtS+l3ypX0R/qX+yr46xOU+LvGvAFSvJZdxjwf/bFGhKV6bznhXH0PYShBu0ZzyrOM2dSUUnUjQpKbfs6fL/HEn3o+/C89+h9u/8Ahiv1eovd2S978Wtvl5+fU/36o7R9V+SLWePX0+vPXPocDr144rD+v8zs/r8vv89PPU/oi/4NxvGNxp37S/x08C+ay2Xir4K2/iKSEn5Zb/wZ400Oys5GXuYrPxjqgUkHb5rAABmA+D4+pKWAwdayvSxbp77KrSqN9dm6UdfLc/yj/a1ZBSxfg94acS8ieIyTxErZVGo1rDC8QcO5liMRFS39/EZBg7xVk+RN35Yt/wBipyAOTnH9RkcA5PPXHpx1r8rP8Cg5wPoeuefwwcnA98e4PIAHPGevXABxwffp7jrnoOxADk559ODkDnB64Hv69RnvQAA5+nP1HTAP5n6jBzQADrz+mec46H+7nPTA6Z60AKDwMg/gDj8OKAG5wBgA49CfXGB3I7enHToKAF568d+Mntjpx+eB149aAA8c8d857559+vPA/XGKAGkjg4xnuSR2Geevtn2zQAA89uuOrdce/TuB3z06HIAo69McDOCfTr1xx6depB6ZAP5XP+DsT/kzr9m8/wDVy4+vHwu8ejoen6fpk/2x9B3/AJL/AIu/7I//AN7WWH7l4D/8lFnH/Ylf/qdhD+CzA9sccj29fUf5+v8Apwf1MIfUHP16c9P6YwP55AB/Yv8A8GjgA8X/ALdfHH/CNfs9+o6an8Y/5/kc55J5/gP6dn/Iv8NP+wzir/0xkB/PPj7/ALvwv/1+zf8A9Iy4/thPBHHsOSDwT19Rjnv+IOa/zrP5tEBHXIGc929uecfpjpwfQAMjp9OhORz0OMEgZwB16ZxngA/P7/gq1j/h2t+3H7/syfFkYyeP+KS1E8j6dPxNfqPgl/yd7w3/AOyxyL/1OpH1nAn/ACWfDH/Y6wH/AKfgf5RWOPz78c8enP4g9TX+35/dgmBwQBnjjOcc8/ljA+mO2KAP1h/4Ia4/4eu/sacY/wCK+8Tgnpj/AItj454B44+nHevw/wCkl/yZDxB/7FeD/wDVzlp8J4m/8kJxH/2CUf8A1Nwx/qLcHHH6kDjGenHHr/s8dq/xfP4iDI9sZI6njjHpwOccZAyKADI49sdSRyc/Xpg56455GDQAvHtkdsnHQYwM8DnHTnpQB/kw/wDBSoA/8FC/23jjkftVfHcHr/0UnxH+fX8vyr/cvwh/5NV4cf8AZEcMf+qbBn958Gf8klwz/wBiLKv/AFConxLxjOBwMj09u3/6smv0U+lFx0/Dnn3x1PqffjigD/YP/Zu/5N2+Aef+iLfCzn/uR9D64GMDtnp1OD1/wR4v/wCSt4o/7KLO/wD1Z4o/z5zn/kcZr/2Msd/6lVTU+OHwi8IfH74O/E/4J+PbVb3wd8VvAvifwF4ihCq8sem+J9IutKmvbMuCItR043K3+m3SlZLTULW2uoXjmhRl5+HM+x/C+f5NxHllT2eYZHmWDzTCSu1F1sHXhXjTqW+KlV5HSrQd4zpTnCScZNPPLMwxGVZjgszwsuXEYDFUMVRd9HOhUjUUZd4T5eScXdShKUWmm0f5Gvx3+Dni79nr40fFL4G+PbY2vjD4UeOvEvgTXlCOkNxeeHdUuNPGo2e/5pNO1aCGHVNMn5W5068tbhGZJVY/7s8M5/l/FnDuS8SZZP2mX55luDzPCttOUKeLowqulUt8NahKUqNaGjhVpzg7NM/v3Kcxw+bZdgs0wsr4fH4SjiqWqbSrU4z5JW056bbhOOtpxkmro8rTG3BOMnGOmenH9OK9S23Szfnv+Xf07K57VP4fnp00srEyEq6lSQwOVIJBBAyCCOQQecjkdq5mk7310f3X1VvLa/fdHVT+K2jvHZv+71XbZNvXTs7H+qB/wSJ/awH7ZH7AXwE+K2p6mupeOdG8PL8MPijI8okvB8Q/h0kPh/Vr7UNpPl3XijTYdH8a+WT8tt4mtsgbhj/F3xz4J/1C8TuJsko0fY5biMW85yZJWp/2VmzliqFKl3hg6sq+X36zwcz+CfEfh3/VjjDN8up0/Z4SrW+v5ekrR+pY29anCHeOHqOrhb/zUJFz/grT+1P/AMMf/sCftBfFrTtS/s3xpfeFJfh18NZI5jHdj4gfEXd4Y0S+sCCC914bt77UPFzIhBNr4euSMbCax8E+DXx14l8MZJVpe1wFPGrNc3TjzU/7Myr/AGzEU6u6UMXKnSwCbT9/FQVtSvDTh3/WjjXJMsnD2mEjiVjsemrw+pYFfWK0J9o15Qhhb/zV4n+WZFn5iTkk5JJzk5OT0HU1/sdUso67J/hZ/wBeZ/o9RS6Kytp6aLt1tcsRfxfU/wAzXNPp26elo/d6HfD7PTTf5eXTvqj6Z/Y5/Z08Qfta/tOfBX9nTw2LmO8+Kfj3R9B1PUbWMSSaF4WimfUvGXiQqVcFPDnhOx1jW3DKwcWPlqrO6o3xfHfFOF4K4T4g4oxbg6eT5bXxNKnN2WIxjiqWBwt7p3xWNqUMOndW9pdtJNrzOKeIsPwnwznHEOI5XDK8BXr0qcnZV8U06eDw17p3xOKnRoJp6OpdtK7X+sb4P8J+HfAXhPwx4H8JaZbaJ4V8HeH9G8K+GtGs1KWmk+H/AA/p1tpOj6bbKdxEFjp9pBaxBmPyRLuLHJr/ABix2NxOY43F5hja08RjMdia+MxdebvOticTVnWr1Zv+apVnKb82z/LLF4vEY/F4nHYurKvisZiK2KxNabvOrXxFSVWtVk/5qlScpPzeyP5Ff+DsO3ufsv7EN0CfsYufj9Ay7Bt+0vF8IZVPmE7gfKRx5eMEHccEDP8AZ/0O5Q5+Pqf/AC8cOG5rvyKWdJ6erWt7p7H9i/RFnH2nHcPt8nD0uvwqWcJ6ettfS25/HPB0T6H+Rr+06vxv5/mz+3KfxfOX6/1/TLidT9P6iuKp9v1f5/n2+XoehR/R9fNfcf2yf8Gq11Zv8Df2srNGQ31v8V/AF1cJ8vmLaXng/U4rJ5CMuY2msr8Rg4UMku3ktX8K/SzhNZ9whUd/ZyyjMIRfRzp42k6iS2T5Z079WmvI/hD6Y8Ki4h4KqNP2cslzKEXry+0p46jKol0uo1KV+tnG/Q/q24OfoepOO3fpg5HTt9cD+Sj+NQOO+O45JPc547/5GelAC8Y+hOeT1yB/Xntn86ADjngdOmSTyc8gd+eMd+AeaAGs6qCzsqqqksWbAAAySxPAA5yWwRjJwAaLX0W/l+XzBJtpJXbaSS3bb2SW77Lqz/JY8fXFpeeP/Gt3YlDZXXi7xLc2ZQBFNrPrV5LbbVUYRfJdNqjhR8owAK/0/wADGcMFg41L+0jhMOp31fPGlFSvfrdO9/Vo/wCirIYVaeTZVTrc3taeXYKFS/vP2kMNTjUu3u1JNO/a/U5qLo546n1xz79CM46/XjFFTaXr+p9LQ0svXp5L7vl6HSeGY5JvEGhxRK0ksur6ZHGi5LO73sCoq46lmIAHfPGOa8zGNKlUcmklSm3fsoTbOvESjHA4ycmlGOErSk3ayiqM2279Ek79D/VE+PCtH+z38ZY3XDp8GviIj/NnDJ4I1hWBIyCcjHBIbg5Iwa/zmyh3znK2tnmeCa+eLpH/ADo8FNS464SkndS4syFp9084wjT1127n+V6n3R+P8zX+gNTo9dH+fT19dOt9D/pcpapL1/X7vUtp0H0X+a1wVd36vr69PnuerQ2+UPzR9L/scXljp/7XX7LF/qbRpptl+0f8D7vUHl2mNLG2+Jvhie7eQNhTGtvHIX3EAKDkgZNfN8TRlLIM9jBNznk2Zxglo3OWCrxik1rfmtZ7p+h8h4t0a+I8I/FKhhoylia3hxxrRw8Y/FKvV4ZzSFFRtrzOpKKVru/Rn+oKCOnUY7k8Ac9geR1zxycDpX8PH/MiGRg9PU/MR6DI9vbPpxnigBAQTnpx0J9Of/r9O7ZPYgAGA6dPUsep5x0z29OfxNAC5A+vYbj24PXoB/QnoM0Afjh/wXhu7K2/4J0/ESG6KrPf+PPhVa6cCQS14njOwvpRHnBDjT7O/Y7cnYrjA5I+v4HUnxDh2to0MS5b/C6Morb+9KK7a/I/vL9m3RxFX6VXCk6Kbp4bhvjOti7XssPLIMTh4OVun1uvhUrtLmcXvZP+E1PvJ+HXrxkfQdOccdD3r9nqfDZbc19L22813+fTs3/0qUdo+sfyT/rtsWeM9iR6k9MEenpzznqT05OXTp+F/wDM6v6/r+lsfu5/wbxxSv8Aty+LpkjJih/Z38dec4Iwnm+NvhmkYbuQzDGcHnPSviuO2llFJP4vr9Gy8vZYi+2nQ/zS/arzhH6NmQwlJc9XxX4a9nF3bfJw7xg5tO3RWv5W12P7XCQB2P0J+nv7Hrwcd8E/kZ/zuBn6cd9x7++P1/I8HAAdhn19T1wCOx69u4H+0cUAAwSeeuMckHHAz9emM8n6HNABnB9/TJP9M9+mOST/AHaADIzjjPIHJ/Lpx+Q7AZ7ACbh/lm/oKAHHP489CfUHHHPIH+c0AHQc5yARn8u+AM9Me/40AGcZyDzkkccD3579vy6CgBMnj68HnH3Rjv36YwT1xzyQA6EDPcDjIGeD9Opxjjr7CgAB5AGe2Seex7jHY8Z4J7Z5oA/lc/4OxD/xh1+zf/2cuv8A6q7x96ZPb/6wORX9sfQd/wCS/wCLv+yP/wDe1lh+5eA//JRZx/2JX/6nYQ/gswPT16/l/wDq9uOlf6cH9TB/+v8AH/P6cGgD+xb/AINGyf8AhMP26uv/ACLX7PeBg/8AQT+MnB5z2/Pnvx/Af07P+Rf4af8AYZxV/wCmMgP558ff934X/wCv2b/+kZcf2wkn/wDUD+ecHp+RHODkAf51n82jc9e+MYHcAYJ7cAe/UjseoA7PI9QMj3zx0JznGevTJyaAPz9/4KtHP/BNb9uPBOP+GZfi117/APFJ6j7dRjsfX2r9R8Ev+TveG/8A2WORf+p1I+s4E/5LPhj/ALHWA/8AT8D/ACivw/E4HA/Pg/mMnpX+35/dgnPHP8/Qdcnqfw/Q5AP1h/4Ia5/4eu/saHnP/Ce+Jzj/ALpj446YJA/U5zj3/D/pJf8AJkPEH/sV4P8A9XOWnwnib/yQnEf/AGCUf/U3DH+ovu79v/rr7478+nI9c/4vn8RCdunt1PXJHXr16dcdeODQApPA7dOmARkH16fp7UAB6DsPcdtp478j6Y7etAH+TD/wUqz/AMPC/wBt44/5uq+O47Z/5KT4j9xxk9Ce3vkf7l+EP/JqvDj/ALIjhj/1TYM/vPgz/kkuGf8AsRZV/wCoVE+Jvz6+h9T3z04/LtyBX6KfSh+GD/knnn1wB+WBzQB/sHfs3HH7O/wD44/4Ut8LRnn/AKEbQ+3c8cfz5xX+CPF//JW8Uf8AZRZ3/wCrPFH+fOc/8jjNf+xljv8A1KqntHGMHIB469MdeTxjjqOvpmvnTzT+DT/g6W/Y/wD+FcftGfDL9r/wvpZi8M/H/QP+EJ+IM9tDiC1+Kfw7sLWDS9QvZAFSObxb4BfTbayiAZpZPAms3UzCSXL/AOmv0LOPv7X4SzngHG11LGcLYp5jlcJyXNPJM2qTlXpU1q3HAZpGtKpJtKMczw8I6Rdv6m8DeIXjMox3D9apevlVX6zhFJ3lLA4ucpThBO+mHxSk5Pp9apRSSP5WIwAOnf0H/wBbn/Eepr+0tXtprb7nr08vLfa9kfv1NWjbz9O3RE6feH4/yNcze9+z/NK1mrO/9aavsp/FHTpvp206X+/z3R/Wr/wat/tYHwl8Z/jP+x34i1ER6P8AFvQo/ix8OrS4l2xJ4+8C2yaf4w0+xi3Ye88R+B5bPVbghSVtPh8D0yK/hv6aHBP17IOH+PcJRviMjxLyTNpxjeTyzMpurgKtWVtKeEzGNShC7t7TND+fvpA8O/WcryviahTvUy2s8uxsktfqeLlz4ac30hRxadOPeeNOt/4Oqf2pv7b+IPwD/Y68P6jusPBGkXvxv+I9pBNvifxN4nW78MfD6wu4wcQ3uieHLXxXqjRSBney8Z6fOBGpUy+Z9DHgz6vlXE/HmKpNVMwr0+HcpnKNpLB4N08ZmlWm95U8Ri54KjdWtUy+rHV35dPo5cO+xwec8U1qdp4urDKMBJrVYfD2xGOnF2u41cQ8NTTTSUsJUWvT+RWL+P8A3v6n/PNf29U+Hrv03699D+pqPrfT7ttP6/IsRfxf739T+f8Akdq5Z9Pn+S+70/zPQp7x/wAO/wAvT+rbM/r8/wCDWT9kc6p4q+Nn7avifTSbPwtbn4H/AAruLiDdG3iDWbew8Q/EnWLVnA2XGlaDL4W0K3uod6yW/ifXrRmVopEb+Gfpica+xwuQcBYOr+8xk/8AWDOYxlZrDUHUwuVUJpXvGtiFjMTKErWlhMNNXumv5Z+kzxZ7LB5LwZhqvv4mX9tZrGLt+4oyqYfLqU0t41a/1qvKLtyyw1CSvdW/tQz1wM9fXrxkDA9z2HQn1NfwUfx4fzCf8HS/wxufEP7IHwN+Kdnbmdvhp8d/7E1F0Rm+x6J8RPB+txTXcrAHZEdc8J+HrE5IDz30Cgk4Ff1f9EjNY4bjXP8AKJyUVmvD/wBYpJ2vPEZZjqDjCKe8lh8ZiamztGnNn9TfRQzSOG4zz7Kpy5VmnD7r0lf46+W42hKMEurWHxeJnfpGEj+FODon0P8AI1/ftX438/zZ/oHT3+cv1LidT9P6iuKptPrq9/X+vK56FD7t9fmvv9fkf08/8Gv/AO0Fp3gT9qP4y/s/azex2cPx3+HOm+IPDKzSqov/ABn8I73Ur9NJtkJBa5uvB3ivxfq2QOYfD8in5igr+UvpUcPVcfwpknEVGm5yyDM6uHxXKr+zwWcQpU3Wk/5I43CYKj64hOy1P5V+l1wxVzHg3IeJ8PTlUlw3mtTDYxqLvTy/O6dKk682lZQhj8FgKFussUndpNn90QIGOvQ475PBOcZyc9xxyRX8Gn+eAZxnJ7nn2HHoOeMf1GRQAhPcDOT1z06DsM4IAPfr34yAHuOeT9euT0GO2eeuccgYIB8jft5/HvTP2Zf2PP2h/jVf3kVndeEvhj4jj8MtLIqC68ceIrQ+GPAdgu7DM994v1jRbZggd0ikllCny2r6ngnI6nEfFmQZPTg5xxWZYd4myvy4LDz+s42b6WhhKNaWujaSvqfonhLwlX458SeDOF6NKVWnmWe4KWOUU37PKsHUWOzas7bKlluGxU1eycoxje7R/lxBmL7nJZmDMzMclmYkkknJJJJJJzknoK/0ikldJK3RK2vfa6018ra9j/ffDpcqUU0uiSsla+yurenRW1LEZ4bjHPpnHIGOfYniuSptP/F+v9feepR/V/kfU37FXw3uPi/+1z+zV8Nbe3a5Txf8bfhtpl+iKXKaL/wlemXWvXBCg5jtNEt9Qu5ScII4GZ2VAzD5DjHHxyvhrPcwlJR+q5Rj6kG+tZ4arGhH1lWlCCt1kra2PkvFLP6fC3hhx9n9SahLK+EM8xFGTaXNi/7MxNPBQV/tVcZUoU4rdymkk20j/TK/aCx/woT43D/qkPxIwen/ADJms8HsT379eo61/AGTf8jjKv8AsZYH/wBSqR/gNwN/yW3B/wD2VPD/AP6tsIf5WyfdH4/zNf6BVNlr176dFbZ/09L30/6X6Wy0vvp9/oWo+R+AHY/xAfT8/wAa4Ku7/wAXl1v8+n9W09Wht8ofmjZ0jU77RdU03WdLna11LSb+y1PT7qMlZLa9sLiO7tLiMggq8M8UcikHIZVI5AI4cRCFWFSnNXhOnKE09VKMotSVuzTaa2fXc76mGoYzCYnB4qmquGxeHqYbEUpJONSjXpypVYSTTTjOnKUWuqbWx/qDfssfHbQf2mf2d/g/8dvDs8Etj8SPA2ia7dxQOrrpfiEQfYfFehSlSVFz4f8AE9pq+i3S9BcWEo+6BX8PZ7ldXJc3zHK6yalg8VVpRb+3R5ubD1V3jVoSp1IvtNH/ADI+KXAuP8NPEPjDgXMqc4V+G88xuAoynFxeJy7n9vlWOinq6WYZZWwmNpPrTxEetz34HJyOTj169PfGMHuBz75x5J8CGeSTkY6ZP49vXuMHtz0FAB37ng9OOAT+JOeMcAc44NACkjPODxkdO2SD0zx04zx1HNAH8wn/AAcffH7TrTwX8DP2ZdLvo5dZ1zxBe/GPxdZxyAzWGiaDZan4U8GrcxgljFreo6x4qniVgAsnhsSENujI/SvDzASdbHZnKL5IQjg6Te0qlSUKtaz/AOncY0k+j9rboz/X/wDZReGeKr8Q+Ivi7jMPOGAy7LMPwHkeInFqnicwzLE4TOs+dGTVufL8Jgclp1LXvHNXG65ZJ/ycR9U9RgduPvccf4evqK/Tqvwrzldb32Wut9PK/VdrL/celtD/ALd/KP8AX9WLHGMdcZ/Ae5HuATjHTqcjOGulk9++7u7enZej8zs21vr6b38rLR/qvNn9Kv8Awbc+ALi9+Ln7SPxSeBvsnhv4eeE/AcFwyEI13408ST6/cxxN90yQQeBIWm2nci3MWTiSvz3j+vbDYDDX1qV6le17vlpU1BN9LP21l6M/yD/a5cU0cNwJ4RcFRqp1834rzziarSi1zKhw9lFLK6U5r4uWpV4mqKDdk5UZ2TcLn9chPTv6noeg546AZ55HX0r8wP8ACkX078cckD+XBHPTnGeB0AADBGfrxke3fscDPXg8mgBMjv2A6k8ZwT1564+nHPoAKOffnjvk8DI54A5+mfUYAAmQcDPcdz3xxxg554yD798ADsn+6f0/xoATPBPH4k44x2x2OMevUYzyAGfp0Y8En3z09/Q9eBjNAATz1xwe5z7EA4Hb6dexyQBpxgfdPfHPoDgZzj6ccYHrQAo/Drg4zk8YHckcj+vTJIADryR/30c45/n19cYzk4NAH8rn/B2Jj/hjr9m/pgftLLnnP/NLvHvXPt17+vav7Y+g7/yX/F3/AGR//vayw/cvAf8A5KLOP+xK/wD1Owh/BWOgyc46np069hxkf5HFf6cH9TC//W4HYZ4PT9DxxjpmgD+xb/g0b/5HD9urp/yLX7PfUHP/ACFPjJ+P49Tz3NfwH9Oz/kX+Gn/YZxV/6YyA/nnx9/3fhf8A6/Zv/wCkZcf2w8cA4znpz785OM5x1xzz2av86z+bROexHY9+uAAD6Z9yfXtQAZ7ZUdAcEj8h+PX26jsAfn9/wVa/5Rrftx88/wDDMvxZwMk5H/CJ6j64Hv07e9fqPgl/yd7w3/7LHIv/AFOpH1nAn/JZ8Mf9jrAf+n4H+UTn6Yx2PA/HHpgjp+XI/wBvz+7Az09xxwfbPfjr2/pyAfrB/wAENc/8PXf2Nc/9D94nx6f8kx8c56c4z75/r+H/AEkv+TIeIP8A2K8H/wCrnLT4TxN/5ITiP/sEo/8Aqbhj/UX79vTPPOSuSOv0zkenQV/i+fxELkY6j3OSOmcY69cc4/WgAz05HPP3j6HOOuAPy+hoATPTOPb5iO3+PGTzjPHBNAH+TH/wUqOP+Chf7bvI5/aq+PHuePiT4jPAH6/pzX+5fhD/AMmq8OP+yI4Y/wDVNgz+8+DP+SS4Z/7EWVf+oVE+JO/4/wAt3Qg/mPTOeSa/RT6UXk+n+fr09+p6jtmgD/YO/ZuP/GO/wEHH/JFvhZ3OefA2h9h/j0x06j/BHi//AJK3ij/sos7/APVnij/PnOf+Rxmv/Yyx3/qVVPaMn1XnkdRxjAJ/wPp+Xzp5p+a3/BXH9kFP22P2C/jh8IdM05dR8f6Toh+JnwmCxiW6HxK8AQ3Gs6Lp9kSP3U/inTxq/gl5RnyrXxNcvtO3Yf17wK49fhz4m8OZ9WrOlldfE/2Pnt5OMHlGaShh8RVqW3hgav1fMUnvPBw23Ps+AOIHw1xVlmYTnyYSpV+pY/W0fqeMap1Zy7qhN08TbrKil1P8rgI6MySKyOjFXRlKujrw6MCMqQRhgcEEYIBr/alNNJpqSdmmmrNbpq2j6O606o/vGk7xvprrptqk9CVPvD8f5Gua972s9++6turdPx0sdlJpuK02+eitt/wfkfRv7Jf7QXiH9lT9pb4JftD+GfPk1L4TfEPw94ruLG3k8p9a0G2vFt/FPhx3yoWDxJ4ZudX0C5O5cW+oyEMrYYfH8ccL4XjXhHiLhXGcqpZ5lWLwMKklzLD4qdNywWLS35sJjI0MTC32qSOHiDJaPEOQ5tkuI5VTzHBV8NGcldUq0oc2Hr211oV40q0bfagr30O2/bl/aX1H9sL9rn49/tG3rXi2fxK8f6rf+FrK+yLrSvAmlmPQfAOjzx7mSO40rwdpWiWV0sZ2NdxXEoy0jMfI8OuEaXAnAvDfClPkdTKMsoUsZOn8FbMqzeKzOvF2u41sfWxFSDevI4q2ljTgzIafDHDeTZHDlcsDg6cMTOHw1MZPmrY2qr2bVTFVa0otq/K4rZJHyrF/F9f6nr/npivranw/Nb3Xfyurfh5H2dH9H+a/r/LY1NI06/1jUbHSNKs7jUdU1a/tdN03T7OJ57u+v764W2s7O1gjDSTXFzcyRwQxIpeSSRUUEkZ4sRWpUKVSvWqRpUaMJ1atWcuWFOlTgpzqTk9IwhBOUpPRJNt2OuVWnRputVlGFOlTlUqTm1GMKcI805yk9IxjFOTb0SV+h/q0/wDBPD9lnT/2Mv2NvgV+z5Bb2ya54Q8G2l948uoNhGpfEjxO7+I/Hd6Z1+e5hXxJqd/Y6dJKzMmkWWnW4YR26KP8ZfE/jGrx5x3xHxNKU3h8dj508thO/wC6yrCJYXLafK37kvqlKnUqxVk69SrO15Nv/Mvj7iapxfxdnefSlJ0MXjJwwMZX/d5dhksPgYW+y/q9OE6iWjqzqS+0z7VyPUY5x8xzz/nv0/Dn4I+PPhv/AIKT/s0v+11+w/8AtEfAiwtlu/E3ifwHd6v4FiO0u3xB8E3lp418EW8cpwbddS8R6Bp+kXUqlT9g1C7jfdHI6N994XcVLgvj7hniGpNwwuEzGFHMJa2WW4+E8Dj5uP2vZYXEVK0Iu/7ynB7pNfeeGXFC4O474bz+pNwwuFzCFHMGnp/Z2OhPA46TW0vZYbEVK0Yv/l5Tg1ZpNf5Yb21xZ3E1ndwy211aTTW1zbTxvDPb3EDtHNBNE4DxyxSK0ckbqro6srAEGv8AWyUoz5ZwlGUJxU4Si1KMoyu4yjJaSi07prRrVH+tdGUZqE4SjOE4qcJRalGUZpyjKLWji0001o1qTJ1P0/qK5Km0/m/+Hv8An07XPSof5/mtj1b4J/F/xz8Afi18PfjT8NdVOjeOvhn4q0nxd4bvjuaA32lXKytZX0KPGbrS9UtjPpmrWLOI7/TLy7spcxTuK8DPsnwHEOTZjkmZ0vb4DNMJWweJhopezrQaU6bafJVpS5atGolzU6kIzWqMs7yLLuJskzTh/N6Kr5bm2Cq4HF09FL2daDj7SnKz5K1GfLWoVEm6danCpH3oo/07/wBgz9uP4S/t8fATw58ZfhpqFtaauLa00z4lfD+W8jm174beN1t1bUvD+qxKI5pbCWVJbvw3rZght9f0V4L2NYLgXljZ/wCW3H/Amb+H/EGJyXM6cp0eadXLMxUHHD5ngXL91iKT1jGoouMMVQ5pSw9dSptyjyVJ/wCRniV4dZ54Z8TYrIM3pTnQcp1sozSNNxw2bZc5tUcVQlrFVYxcYYvD8znhsQpU5OUPZ1Kn2qD6HPJAJPtkfUZ4z19OuK+IPz4XOe4468kcZ47f5+hoAazois8jKqRhmZ2bAVV5JYnAVVAyxJxgZJxzQk27JXb0SW7fYaTbSSbbdklq23skurZ/DT/wX3/4KbeH/wBpbxrpn7J/wM8Qw638HfhN4hk1j4g+L9Juln0f4h/E6xiudPt9P0a6hdo9S8LeBILm/t49Qjkax1vxHfXl3apPZaLo2p3v9oeB3hxiOHMFV4pzvDyoZtmmHVLAYSrFxrYDLajjUlUrRkr08TjZRhJ02lOjh4QhJxnWrU4f6p/RC8DcZwTluI8QuKsHLC8ScQYJYbJ8uxFNxxGT5FWlTrTrYmnNKVHH5tKnRnKk0quEwVKnSqOFXFYrD0v5wFP7wZOAAf06/wAhkdeor97luttreVulvx9Nt1c/uegvdS07aadX+Hb/AIBZiBw44+9jp347enByPSuOptL1/U9Sj0fq/wAD+if/AINw/wBmq7+J37YPiH4/apYM/hP9nTwZfy6feyRs0EvxG+I1nfeFtBskLgRu1r4UbxtqcroXltLqDSWMY+1RyL+B+POfxy/hnD5LTmvrOe4qCnFS1WAwMo4itOyu7SxP1Smr2Uoupq+Vp/xj9Orj+nw94WYDgnD1ksy46zWhGvSjK045FkVShmONqtK8kqmZLKMPFNKNWnPEpSfs5Rf9pH7QeP8AhQnxt6f8kh+JP8R/6E3Wj07g44J68e1fydk3/I3yr/sZYH/1KpH+U/A3/JbcH/8AZU8P/wDq2wh/lbJ90fj/ADNf6A1Omr1/DS2mn59beR/0v0unz6X6v+tNfK1y1H0GfQdPTcPT2riq7v8AxP8AX/I9Wht8ofmi2nXpzx39+e/PbHXnFcVTeXp+h61Lb5R/Jn9Dn/BDv/gp5o37L3ia6/Zk+O+vJpfwO+Imvf2p4N8YanPt034X+PtRWG1uV1aaQ7bDwV4t8q1XUbwlbPw5rcMWsXSwadqWv6jbfjXidwZUzulHOsrpOpmeEo8mIw8F7+OwsG5RcEtZYmheTjGzlWpt005ThSg/4E+m99GDG+KOVUvE7gPAPFcc8OYGWFznJ8LC+J4pyDDOdWlLBwjrXzvKFKo8NQSdbMcFOeDpOeJw2Aw1X+3C1uba7t4bq0nhuba5hiuLa4t5lmt7iCaNZIpoJo2eOaKWNleKSJmSRGRkYgg1/NjTi3GSalFtSTTTTWjTT1TT0aeq2P8AEqpTqUak6VWE6VWlOVOpTqRlCpTqQk4zhOEkpQnCScZRklKMk00miYEA9uep3E9TwMHv35x396RAZ68rz15OMevbuf54OScAHzd+1V+1T8Iv2PvhFr3xf+L2vQ6fpemxS2+g6BbzRN4j8b+Imgkk07wt4W093V77VL91AllO2y0u0Fxqmq3Frptrc3Mfp5TlOMznGU8Hg6blKTTqVGn7OhSv71WrL7MYrZfFOVoQUpNJ/qvg54OcbeOPG+W8D8D5dPFYzFThVzLMqsKiyrh/KlUjHFZxnGJjGUcPg8NFtxhriMZX9ng8HSrYqtSpS/zxv2of2jvHf7WXxz8ffHb4hSqmt+NNUEtlpEEskun+GPDtlGLLw74X0oyBWFhomlxW9osxSOS+uFudSulN3e3Lv/QGXZbQynAUMBhtadFRUptJSq1G5OrVnbTmqSvJraKagtIo/wCozwY8K+G/Bbw54a8OeF6beXZDg1DEY2rCEMVm+aYiX1jNc4xvLdPE5hjJ1a7hzShh6TpYWi1Qw9KMfCU4ZBkn7vP4Hr74x+p71pUfurTeT/Jfh5enY/ZKO0fWP5L+vwLHqOT6k+/TOCCO2SR0B45NYf0v6+/5nbo+y20S1/JrXWyv2vsf3S/8EMv2fbj4K/sP+H/Fmt2TWfib49+JdT+Kt0k8ZS7g8MTQWnh/wPayHAJtrvQ9H/4Siy5JVPFDljuZkX8a4xx6xmcTpwd6eCpxwys7p1E3UrP1U5+ylov4fXd/81v7SbxSo+If0kM0yLLsTGvk/hhlGD4Joypy5qFTOadWvmvEdaOrtWoZlmH9jYh6Xlk0bKyTf7J8Yxxxj+I49eD1yPTHp7V8of5/hwB1H5k9O/B456Yx1HfggC8D068fN7cH246dhxjtQAgx0z6cBj1xjA5/r6dsGgBAQPT25z0H49xxxzgcZAyAO4znI75w30Ge306dcUAJn2P4F8fhgY/KgBTnBPTr19AR04OAQM9DyaADIOckDqOvIPt+B/Dp9AAJ684x/nn8enr2yCRQAncZ6/QgnjHp1GT34FAAPr79fbJA7ADnnpjHOeQALkntk8cdPqOT2PXr6EUAfyt/8HYv/JnX7N//AGcuO+f+aXePe3+eeO1f2x9B3/kv+Lv+yP8A/e1lh+5eA/8AyUWcf9iV/wDqdhD+Czn+f/1h1/ziv9OD+pg54/Xgfn16/pz0HOAD+xf/AINGwf8AhMP26jzj/hG/2ehkg4z/AGn8YxjI4OeDjOfzAr+A/p2f7h4aLr9c4q/9M5Afzz4+/wC78L/9fs3/APSMuP7YPT36dQe/r6ceueeMV/nWfzaAPfHJx34wTjg9PwHXjv0AF7DtyM85x3xn36c+vfuAfn7/AMFW/wDlGr+3H/2bL8WvX/oU9R9eT9D0/l+o+CX/ACd7w3/7LHIv/U6kfWcCf8lnwx/2OsB/6fgf5RPt/P8AEcgHn17D8RX+35/dgc9fzHuOw6fz545xwQD9Yv8Aghkjv/wVe/Y0VFZ2HjvxVIQqkkJF8LvHckrEAZ2oiPIzYwqKWOAK/DvpJtLwP8QW2kv7MwSu9NZZ1lkUvVtpLu2kfCeJrS4E4ivp/slBfN43Cpfe3Y/1FARwecHPY+ufUjPXP0z0r/GA/iIXOfyHIOOpx6j1Bx2+uKAD0yPTgH69vTvj0z6UAHTjPOOnJzgevX0PHPHA60Af5MX/AAUr/wCUhX7b3PH/AA1V8ePT/opPiP1Pbk9+M+1f7l+EP/JqvDj/ALIjhj/1TYM/vPgz/kkuGf8AsRZV/wCoVE+Jfrnv/X0JwRjrnHpzjH6KfSiZ6c4yenHXuM4P9Oe/IwAf7CP7N4K/s7/AQEYI+C/wtVgeCGHgfQ8jBwc54IPII6da/wAEeL9eLOKGtv8AWLO//VliT/PnOf8Akb5r/wBjLHf+pVU9oz7dsjnOeB6du3H1xzz86eaIRwe/HXk/w9RnjOe4/nQB/mE/8Fxf2QD+x7/wUL+LmiaJpf8AZ3w2+Mdyfjr8M1ghEVjb6P4+vr+48SaHZqiiG3t/DXjm38TaPY2UbFrbRYNIdlRbiMH/AGQ+jhx7/r74V5DiMRX9rm+QQXDWcOUuarPEZXTpRwmJqNvmlPGZZPB4irUa9/ETrpNuDP7i8LOI/wDWLhDL6lWpz47Ll/ZeNu7zdTCQhGjVnrdyr4WVCpKTXvVXVtsfkSn3h+P8jX7f6ab6+f8AV7n6dStdPra17dl3+5eqfbSYdR25rA7YbP1/T/gf1ZluLofr/Vq5Z/C/66o7Ke69ZfmyxF/F7k/zNctT4V11X666v57noUf0f5n7kf8ABvv+yN/w09/wUC8E+Kte0z7d8O/2arZfjd4naaHfZ3HibRb2O1+GGju7K0X2qXxrNZeJUt5FIutM8J6vGBhWZf5x+k3xt/qj4Z5hgsNV9nmnFlR8P4RKSVSOExFLnzeuoqz5I5fGphHOL9ytjaMr3sn+T+OXFX+rnAmMw1Co4Y/iGX9jYbldpxw9anz5lVX2uVYNTw7kmuWpiqTvex/pFjgcnHA/DgDp9f8A9fJFf5Un+fwZ68888c/h69h0x6kcUALgkHJ65H59P8/X2oA/z1v+DgH/AIJ93/7Kv7VOo/HvwPojRfAn9pjWNT8U2k1jbldO8HfFi4DX/jvwjc+Unk2ceu3bz+NvDqt5Mc9tqetaXYxNH4auHr/SD6OniPDi/hKjw7mFdS4g4VoUsFONSSdXHZPH93l2Mjf3pvD01HAYn4nGVGhVqSTxUUf6Q/Rx8RqfF3ClLh7H11LP+FaNLCTjUl+9xuTxXs8vxkbu83h4KOAxLXM4ypUKtRp4qKPwMTr+H9RX7/U2np1f33+XXzR/TFD/AD/Nb6f5k6deuP68jiuWei+b/G/9f8E9Klt8o/1p/XfsfSf7L/7V/wAfP2PPiXZ/Ff8AZ8+IOq+BfFMEa2epwweXe+HvFOkeYJZdB8XeHL0S6T4h0eZ1Ei22oW0slnciO/0yex1K3tryH5DivhPh/jLLauU8RZdSx+Fd50ZSbp4jCVuWyxGDxMLVsNWSduanJKcb06salKUoS8jizgfhjj7J5ZHxTldDMsFJynRlK9PF4KvZxjisDi6fLXwmIirJzpSUakL0q0alGU6cv6qf2fP+DpPwRPo9lp/7Uv7OPi3TNegiSG+8VfAvU9I1/SNTm2qGu08F+OtY8N3mhxluXt18Z+IDt3PE+dsA/k3iL6LeNhVnV4X4kwlXDybcMLntKtQrUo6tQeNwFHEwruyspPBYZbXSXvH8a8UfQqzP29StwTxdgK2Fm3KngeJaOIwtehG+kHmGW4fGU8S+im8vwutlJfbf0v4r/wCDnb9hvTNKkl8I/Cv9pLxbrTxF7XTrvwv4B8NaaJtu4Q6hq8/xG1O4tU3fI0tlo+q7cMREygFvlsN9GfjidVRxmacN4Sin79SGKzDE1OW/xU6Ucupxm0teWpWovzPl8u+hV4nYqvGGPzzg3L8Op8tSrDHZtja3Le3NRw8cnowqPd8tXEUL6Xkmfg7+3h/wXj/ap/bC0HWvhr4FtLT9nT4Ma3FLY6x4b8Ga1eap448W6XOrxzab4s+IL22k3LaReQsUvdE8N6T4fs723ln0/WZNZs2Kn9t4J8DOGOEK1DMsdOfEOc0Wp0sRjKMKWCwlWLTjUwuAU6sfawlrGtiauInCSjOiqMz+s/Cf6K3Afh5isLnma1KnGXEmFlCthsbmWGp0Mry+vG0oV8vyhTrw+s05LmpYrG18ZUpTUK2HWGqLT8QV+6MevbHqc5z7enNfr9T7V/P8Hp/XTQ/rSjt8n+aLa53jnnDY9O2B/j39+lcU73V97fq/+G/z3PRofDr87erub/hrQNb8V67o/hfwzpV/rviLxHrGn6FoOiaVbSXup6vq+q3cVjpum6faQK8t1e3t5PDbW0ESs8s0qIgJIrz8XXpYahXxOIqQo4ehCpWr1qslCnSpU4yqVKlScrKMIRi5Sk2kkm3sdlfGYTLcHi8wx+Jo4PA4DD18ZjMXiJxp0MLhcNSdWviK9SbUYUqNKE6lScpJRjFttH+lP/wS+/Ypsf2Ff2TPA/wovo7OT4k66W8efGHVbQxSpe/ELxBa2v23S7e7j4utM8J6fbWHhTTZ0IhvIdJk1RIopdSnWv8AP3xD4tnxjxNjMzg5rAUf9iyqlK65MDQlLkquD+CpipyqYmpHeDqqk3JU4s/wn+kH4sVvGDxKzfiSlKrHIcGlk3C+Gqc0XRyTA1KvscROnJ/u8RmVepXzHEQd5UpYmOHcpRw8GfWX7QY/4sL8bj0z8IviT3I/5kzWe2evGMY/lg/M5N/yOMq/7GWB/wDUqkfnXA3/ACW3B/8A2VPD/wD6tsIf5WqfdH4/zNf6A1Nlq9Xfva3y6/d5O5/0v0unXf579y3H0H0X+a1w1d3/AInp9/nbvrb8j1aG3yh+aLKde/6eo6+3rj+VcdT7Xp+h61Lb5R/JlqIZbHt07n/P1Hr2rgqadfs79N3bv+p6VHRaNrV6vfzb/wCGv8z9bf2Jf+CxP7WX7Gel6d4HtNUsPjB8HtNZYbP4bfEa4vpz4fslYbrXwV4stZDrXhm3C5Fvpcq6x4bs2MktvoCTSyyP+ecS8A5Hn854pwngMwnZyxeEUV7WTj8WJoSXs6z7zXs60tE6tkkfy341/Qx8IvGzE4jPa+FxPBnGWK5p1+JuGqeHp/2hW1tVz3KKsPqOa1P+fmKg8HmdZKMJ5i4QjFfuX4P/AODlr9ni90yOTx7+zt8aPD2s+V++tPCOreCPGWmibYSVi1LWdX8C3TRl8De2lo6pzsYjFfmGJ8Jc0pzksNmuX1qadlKvTxGHm1fdwpwxMU+6536o/h3Nv2XfiVDEyjw74lcD5jg+f3K2dYPP8kxXs7rWeGwOC4gpKai/hWLcXJW5keO/Gj/g5UW40y80/wDZ5/ZyuLPV5opFs/FHxe8SwzWtizAqkz+C/CAJvnVjvVW8a2salQJI5lJSunA+FbjOMszzROCfvUcFSacrWdlXr/D2v9Xd+jW5+icA/ssWsXQxPiX4nwq4KnOLr5RwVlVSFbExTTcI55nWmHUl7rayGrNp+7KnL3l/Oz+0T+1J8dv2sfHUvxE+PHxA1fxvryrNb6VaXBisvD3hnTpJA50rwt4dsVg0jQdP3KjTR2FrHNezILvUbi8vHkuJP0LAZRl+T4eOGy/DQw9O95tXlVqyt8darK86srbOcrJaQSirL/U7wo8IfDvwb4dhwz4dcNYLIMubVXGVqaniMzzbFQg4LGZxmmIdTG5jibXVOeJrShh4SdHC06NBRpx8Oj6HHbHtjGffn355HI7UT0Wvl2XWXbv/AFqfrtK3lvbVXXT7vL/ItJ95P+A9ceh9yfr7+gxXHU+Ba6c1vJ6b7L8dfndnr0do+q/JH25+wD+yJ4i/bR/aW8EfCWwgvIfB1vdR+J/in4gt1cR+Hfh5o1zBJrUv2hQVh1PWi8HhvQtwcnWtWs5ZI/scF1ND4Ge5pDKcvq4qTXtWnSw1NvWpXmpcit1jDWpPa0Iu15OKf4J9KLx3yr6PPg/xJxziqmHqZ/VozybgrK6rg55rxXmFGpDLoexbTqYPLkqmb5nZxtl+BxEISderQp1P9FDQtE0nwzoukeHdBsbXS9D0HTNP0XRtMs41gs9N0nS7SGy06wtIUwsVtaWdvFbwRrhUijRANo4/CZzlUnKpOTlOcpTnJu7lKTcpSb6tttt92f8AKFmWY47N8xx+bZniq2NzLNMbisxzDGYibqV8XjsbXqYnF4qvUes62Ir1alWpN6ynOUnqzVI9+g6kkencY4I6nnn8ak4g9MN79eMDGfX09epOTzQAcAfiBz3IPJ6+uf68UAHvk/w46j0+uc57/TtmgAHB5/DOenH059fQn2NACDrjPuck54x+h9D0+vAAHjoPp7/15/PmgBuf5E9TjjGe2R7Y69fegAz24B9M9+3bvnOfXA56UABP0/M846joM8de2evSgBM8g8dfx6DoOuecY4P3c8UAGR6njB79MDGePwxwOeeaAA4BOTwMHqcj8Mf/AF8ck9KAP5XP+DsT/kzr9m//ALOXXjP/AFS3x704H5+uR2r+2PoO/wDJf8Xf9kf/AO9rLD9y8B/+Sizj/sSv/wBTsIfwV5Pt1569OxH+R0P4f6cH9TC+vY+/Pfg9e/Pp6Y4oA/ux/wCDUD4Iav4W/Zz/AGkvj3q1lJa2fxd+JvhjwR4XlniaP+0NI+E+iatc6nqdo5GJ7CbXvH15pPmqSBf6BfwkK8L5/wA0fpwcSUMbxbwhwvQqxnUyHJsbmONjGSfsq+eYihCjRqL7NWOFyynXs9XSxVKW0kfy/wCO+Z06+cZNlVOSlLL8FXxNdJp8tTH1KapwkuklSwsaltHyVYvZo/rGznHQ8+/bBBHHp+HIGfX+HT8HAED8Md+owOfrjtj+dAAD34785J6fh6nge/FAH5/f8FWz/wAa1v24xxz+zJ8Wu+f+ZT1D2/U9ea/UfBL/AJO94b/9ljkX/qdSPrOBP+Sz4Y/7HWA/9PwP8ojB9h17n88c+3fuc9a/2/P7sDLe2PXB9M9M8fj/AIZAP6BP+Daf4I6x8T/+CmXhH4iw2Mknh79nz4dfEX4ha3fmNvsUGoeJvDN/8LPD9hLKQYvt11d+ObrUbG3J82SLQ7+5iUrYysn8tfTA4koZN4O4/KZVYxxfFebZTlOGpJr2kqWDxlPO8XVjG/N7OFPLYUak1pGWJpQk71Ip/k/jNmdPBcF4jBuSVbNsZg8JSjf3nCjWhjq0kt+WMcNGEnsnUjF/Ek/9HTOD1HU9evX19MD8xjjoP8lD+PwyPXr7n1Ptwef/ANWKAAHpyB+PHoe3Y5wM4OPagBMj29jn6jPTnBGM88cnjqAf5MX/AAUqz/w8M/bd6f8AJ1Xx4+v/ACUnxH0Hf8Mn6V/uX4Q/8mq8OP8AsiOGP/VNgz+8+DP+SS4Z/wCxFlX/AKhUT4l55PH0x6Zx0zn6fyNfop9Kem/Bb4WeJPjj8YPhh8G/B9rLfeJ/il498KeAtDtokeRjqHinW7PRoJnCglbe2a7+1XUxAjt7WGaeRljjZh43EWd4PhvIc54gx9SNLBZLleOzPEzk0l7LBYapiJRV7XnP2fJCK1nOUYxTk0jizLHUcsy/HZjiJKFDA4TEYqrJuy5KFKVRpX6y5eWK3cmkrtn+wl4c0Sy8M+HtA8NaaoTT/D2jaXodghwpSz0qxg0+1XaBgbYLdBgHA7cYNf4IYvE1MZisTjKzvVxWIrYmq+9SvUlVm/nKTP8APitVlXrVa09Z1qk6s3/eqSc5fi2bOc9MHp3P09PU4z6YzxiuczDcME5GM+p/wP6duaAP5q/+Dm39j8fG79jLQv2j/DOli78c/sseI/7V1aW3i8y8u/hF47m0/QvGMBSNfNnXQvEEHhDxMZJC8WmaPYeJbnYizzSr/Xf0POPXw54g4nhLGV+TLONcIqFCM5csKee5ZGrisvldvlj9Zwssfg+VJSrYirg4XvGKf7V4IcRf2XxNVyavPlwufUPZ003aMcwwqnVw0tXZe1ovEULLWdSdCOvKkf586feH4/yNf6h31fkn1v8Agt7W79fPT+xqW621XfXSNtrL8+vmTjqPqP51idsNreb/AAS/roWouh+v9Wrln8L/AK6o7Ke69ZfmyeLo31OfzP8AnmuWpfl6XuvS9n/SPQo+XZ/ml8/66aH+ip/wbl/si/8ADO/7BumfFjxDpf2H4g/tTa1/ws+/e4i8u/tvh1YR3GjfC3THbbhrO80r+1PHNkwLN5PjcLKQ8QSP/LH6U/G/+tPiRWybC1vaZXwdh3lFJRlelPNKrhXzisle/tKdZUcuqXt72XtpWleX8LePnFP9v8a1Msw9XnwHDVH+zaai/clj5uNXMqq/vxqeywc9F72DbWju/wCgDI9jx68dOnTvj6cZ6mv5pPw8Mjsc8Hv+QP4evIwevJoAMjrkdT398fkeuOnA+tAHzx+1T+zD8Kf2wvgb44+AXxj0Yap4Q8a6e0Ud5b+UmteF9etd02heLvDN5LHKun+IfD2oCK+sJykltOFm03Ure80q+vrG5+k4R4rzfgrP8BxFklf2WNwNW7hK7oYvDztHEYLFQTXtMNiad6dSN1KLcatKUK1OnUj9LwjxXnHBXEGX8R5JX9jjcBV5nCV3QxeGnaOJwWKgmvaYbFUr06kU1KN41aUqdanTqQ/zUP29v2A/jb/wT4+NN/8AC74rabJqPhrU3vL/AOGXxQ06zuI/CfxI8MwzKqX+mzyGVLHXNPSW3g8TeGLi4fUdBvpYy/2rSr3SdW1L/T/w/wDETIvEbIoZtk9VUsVSjCnmuVVZxeLyzFyi26VWKs54eryylhcXGKpYiClZQq061Gl/qr4aeI2QeJOR082yeqqWKpKFLNcpqzg8blmLlFN06sFyupQqtSlhMXCKpYmnF25K1OvRo/EKdf8APt7f4ema+ynrH57aefn89L/5fqNLRf8AgK/O3Tr52LSd/wAP61x1N5en6Hq0do/P79SynQ/X+grjnsvVfk2ehSdkvRrtu/n1LidR9W/ma5Ki33+Fv8H+Gn5s9Oj8S9X/AOllhceX2zx9eg/l/XtkVxVb39HL8Wv6+R6NL4fkvy33/q3UuL0X6+2f4v0/+v8Ajw1Ptev6/r/XU9Wjsn5P8/8Ahi9bwy3FzDb28ck9xPIsMEEKNLNNNK4SOKKNFZ5JJHYJHGis7MQqKzECuGpKMU5SaUYxcnJtJJK7bbdkktdXa3WyPQpSjCm51JRjCCcpznJRhGMbuUpNtKKSTcm2klq2lqf2q/8ABD//AII/al8Dm0b9sD9qHw2bH4t39gbr4O/DHWrbbefDLTtStmSTxn4ssp0JtPH2pWMzQaPoswE3g/Tbi4n1JF8TXi2vhv8Aj/xj8U6ecuvwrw5iFPK4VLZrmNKV4ZjUpzusJhakWlLBU5xUq1Ze7iqiUYXw8ebEf5g/Sw+kzQ4sjivDHw/x3teG6Vbk4oz/AAtT91n9ehNOOVZbVg/3mTYerBTxWJi+TM68IQot4Ck6mO/p9yoI5xjII56nryeuOfxx0r+dj+BDyH9oM/8AFhfjePX4RfEnHJ/6E3WT9MYPY9CMjrXpZN/yOMq/7GWB/wDUqkfU8Df8ltwf/wBlTw//AOrbCH+Vsn3R+P8AM1/oBV0s9+17W07dbvp5/h/0v0unz7932LadB9B/NfrXFVtzPa93626dPX8Pl6tDb5Q/NGpp9hf6lM9tptjd6hcJa31+9vY2091PHY6VY3OqanetDbpJItppumWd3qN/cFRDZ2NrcXdw8dvBLIvFXlGCcpyjBNwgnJqKc6ko04RTbS5pzlGMVo5Saik20n6Lr0MNTVTE16OHpyqYagqlepClB18VXp4XC0VKpKMXVxOJrUcPQpp89avVp0qalUnGLSLk8Y5Hv07jjoPX/wDXXDU020tHp8+h69K6ir6O78/Td6/f/kXY+Y2/E9/Un/Pf1rjqbK+9/wD23Tf/AIbsenSt7vq/xvb8S2nT8Tj8v8+/X3rgqfa9f1PYo/q7/cv8i4n3z7gcHPPB9v8A63HrXHK/Xz+Wz7+mujs9VsetT23e++9tV+H6vbvai6fi3c5HX1H6nB61xVelvLt1Sf59Fp9yPUoar/t2X5P+rbfgaEZwD0H5/wC0fTJ6c+vJrzZ2d/kv/Sl/XY9Skr/+BL9EeofCP4SfET45fELwv8LvhV4W1Lxh458WX8OnaLoelx+ZJJI2WnvLydyttp2l6fBvvNV1a/mt9P02yhnvL24ht43kXysbi8Pg8NVxGJqwpUaScpVJaLskorWUpN2jBJyk7KKbSPK4z454U8N+Fc24z41zrB5Bw5kWFli8wzLGzcYQjFJUsPQpxUq2LxuKqcuHwWBw0KuKxmInTw+HpVKs4xf99/8AwTj/AGCfB37CHwTh8KQyWXiD4reMjZa38XPHEETAatrcML/ZPD+ivMiXEXhPwulxc2mkRyrFLfXE2o63cwW91qb2lt+GZ9nVXOsY6rTp4aleGGo3+GF9Zz6OrUsnNrRJRgrqN3/zH/S1+k5n/wBJnxFqZ5Vjicr4I4f+sZdwLw3VqJvA5dOpF180zCNOTozzzOpUqVfHzg5xw9Knhcuo1a1HBRr1v0MJHOTgnHr0B/Q8Hj19TXhn8rBnkH29Tj/Dvzux26c0AAPAzgdO59ic8Dse+Rk470AKG4HQknHU9Tj1HTn8BjrmgBB6ZBzjueAMdPTnOOeDxkkUAAI5/PqxOOOTken5/hmgBQf0z1J9up5Hc57A4AoAT8D+b/0GPy4oAU/U5Hvjqe/Hf6Y49iaADHufpnp04/ljn6ZBoAOOeSepxn9OnYg45zxx3wAIQcjBPJ/D7vU8cnj+eMcmgA7/AHifT6jHBIGMc9hz35HIAD2JHTqfrngg88HOOvWgD+Vz/g7E/wCTOv2b+T/ycuDz0A/4Vd49wR7H+WO1f2x9B3/kv+Lv+yP/APe1lh+5eA//ACUWcf8AYlf/AKnYQ/gsz+H1/wA//X9hX+nB/Ux+sf8AwT1/4I7ftcft9eMPD0+j+B/EHwu+A8t5bT+Kfjv450K+0nwzDogdWu18DWuopY3HxC8QTQbo7Cx8P+dpdvdPC2vavo9m32g/hvir4/cCeF+X4qNfMsLnXE0ac44LhnLcTTr4yWJaapvMqlF1YZVhYytKrVxXLWlBSWFoYiouQ+D4t8Q8g4Vw9VVMVSx2aKMlQyvC1Y1Kzq29361KHOsJSTs5Sq2m1dUqdSSsf6VP7OnwC+HH7LnwR+G/wA+Emktovw/+F/hq28OaBbSuk19dmNpLrU9c1i5iihS717xFrF3qGva9erDCL3WNSvLlYYllWJP8g+LOKM3404jzfinPq6xGa51jJ4vFTinGlTuo06OGw8HKTp4XCYeFLC4Wk5SdPD0acHKTi5P+Nc3zXGZ5meNzbHzVTF46vKtVaTUY3SjClTTbcaVGnGFKlG75acIxu7XPayOep9ewwM/569cdRivnTzRO4OTnjjI4B29f8O+eB1oAX8TzjHOM5yfTg44/LocUAfn7/wAFW/8AlGv+3Hyf+TZfi1wT/wBSnqPoPzOcfpX6j4Jf8ne8N/8Assci/wDU6kfWcCf8lnwx/wBjrAf+n4H+UVnvg9PTnvj/APV784r/AG/P7sPqH9mH9i79p79sjxlZeCf2dPg74x+It7PeQ2mpa9p+lz2vgrwwkrLvvfF/ja+S38M+GrKJDvZ9U1K3mnO2CyguruSG3k+L4z8Q+DPD/L6mY8W8QZflNONOVSjhataM8xxrj/y7wGXU3PG4ypJ6KNCjNR1lUlCEZTj4ed8SZJw7h5YnOMxw+DjGLlClOopYmvb7OHw0W69aT2tTg0t5OMbtf6P/APwSU/4JkeEv+CaP7Pc/guTU7Dxh8a/iRdaf4m+Nfj/T4JYtO1HWbG2lg0bwl4Y+0xRXy+DfBsF5fW+lS30UN7q+pahrXiC6tdN/tWLR9L/yQ8dPGPH+MPFccxVGrl/DuUU6uD4cyurJSrUsPUmpYjH43klKk8wzCVOlKvGk5U8PRpYfCwqVvYSxFb+PePuNa/GmbLEqnLD5bg4zoZbhZtOcKcpJ1a9flbj9YxDjF1FFuNOEKdJSnyOpP9Vzwep6gf8AoPHv6+4J96/Ej4UB1xk+vXk8ntjkHkn/AAxQAnp8x7DORgk59j2/PjvzQAvY/MeOvPPT3BI+n178UAf5MX/BSo/8bC/23ev/ACdV8d//AFZXiP8Azz+GTX+5fhD/AMmq8OP+yI4Y/wDVNgz+8+DP+SS4Z/7EWVf+oVE+VvAXw68f/FTxPp/gr4ZeB/F3xD8YavKsGl+FvBPhzV/FPiDUJWdUC2mkaJZ3t/PlpUDNHbsq5BZgDk/a5pm2V5Jg6uY5zmWAyrAUIuVbG5li6GCwtJJN3qYjE1KdKOibSck3bS57mLxmEwFCeJxuKw+Dw9NXnXxNanQpQVr+9UqyjFaLRN3fQ/uP/wCCEn/BDzxj+y74q0/9sX9rzR7TSvjNBpV7a/B/4RNPZ6nP8MYtcsZLHVPGnjG6s5bmy/4Tq80i6u9H0fQ7K5uYPDGnalqNzqksviK6tbXw3/m59Jj6SGX8aYKrwBwHiJ1+HpV6c8/z5RqUY5zLDVFVo5dl9OpGFX+zaeIhTr4jE1IQlja1GjChFYSE54z+ZfFDxNw+eUJ8O8P1JVMtc4vMMw5ZQWNdKfNDDYeMlGX1WNSMalSrKKdecIKmlRi5Vv6t/wA/b8j1z39foDgdK/iI/Cg98nGBnnpgZ6gc5B5PHPQ9AAAPTOSPx4OR246dcAAc9AOKAOM+I3gHwx8Vfh/43+GXjbTotZ8HfELwn4g8F+KNLnwYtQ8P+J9Ju9F1e0JK/IZrC9nRJF+aNysiFXQGvQyrM8bkuaZdnGXVnh8flWOwuY4KtG96WKwVeGIoTVmr8tWnFtbNJp6M6cHi6+AxeFx2Fm6eJweIo4qhUW8K1CpGrTl52nFOz0ez0P8AI/8A2oPgRr37MP7Rnxp/Z88SyNc6t8IviN4p8ENflBGNY0/R9Sni0XXoowBst9f0U6frVspClbe/jBVSCB/uVwbxNheMeFeH+KcIuShn2UYLMlS5ub2FXEUYvEYaTe88LiPa4eb2c6ctXuf6IcO5tRz3KMrzih7tPMcDQxShdNU51Kadal3bo1VOlJ/zQlq2zw0dR9RXvH0kNn6/5FqLoe/PX15Ncs/hf9dfl+Z2U9111lr33Pq79iD9mnW/2wP2rfgd+znoi3KD4l+PNN03xDfWib5dG8E6b52u+O9eUkFFbRfB+ma3qUIkwstxbQwZDSrn4TxF4tw/A3BXEXFWI5H/AGTl1Wrhac3aOIzCtbDZbhnqnbEY+th6LtqozlLZM8riviGjwrwxnGf1uX/hPwVWpQhJpKtjKko0cFQ7/vsVUpU5W1UZSlolc/1kPDHhvRPBvhvw/wCEfDWn2+j+HPC2i6V4c0DSbJBHaaVomh6fBpmladaxgYjtrKwtbe2gQcJFGgHSv8VMXisRjsVisbi6s6+KxmIrYrE16jvOtiMRUlWrVZvrOpUnKcn1k2z/ADRxGIrYvEV8ViKkquIxNariK9WbvOpWrTlUq1JPrKc5SlJ9W2bvf73JHr9OnGPXkD14POOcxE9eT3A6ZPr245BHrxxwKAFI9279MevQd+v5dM0AHbO4/gepyfb8se3oDQB4J+0h+zJ8Ef2tPhfrPwg+PfgPSvHvgrWP3yW98r2+qaFqscMsVr4h8L61btFqXh7X7ASyfZNV0y4gnWOSa0nNxY3NzazfQcNcUZ7whmtHOuHswrZfj6PuuULSo4ii5KU8Ni6E70sThqjS56VWMotqM48tSEJx+j4W4s4g4LzehnnDeY1suzCh7rlTalRxNFyUp4XGYeadHFYaryrno1YyjdRnHlqQhOP8TP7ef/But+0t+z9f6z43/ZW/tP8AaW+ESSXF3F4csoLWP42+FrAFpEtL/wAM2qW9p49W3jCQpqXguJdYv5cu3gzT4VMjf3FwD9JHhjiKnQwHFipcMZw+WEsTOU3kWLna3PTxUnKeXuTvJ0sdJ0aasljasnZf6B+Gv0pOEuJKdDL+MnS4TzxqFOWLqSm+H8ZU0TnSxc3OeW87bk6WYS9hSikvr9Vuy/nt1vw/r3hXWNR8O+J9E1fw54g0m5kstV0PXtNvNI1jTLyE4ltNQ0zUIbe9srmMkCSC5gilQn5lFf0DTxGHxdGGJwtejicPWgqlGvh6sK1GrBrSdOrTlKE4vW0oyafc/rPAYrDY3D0MVg8RQxeFrw9pQxOGrU69CtTldqdKtSlOnUg+koSlF9GyinQ/WsZ7L1/Rnr0tlvs9vX8vz21vYtp1H+8f1Jrjqby9H+X9fI9Oj8S9X/6WWV/1f1xgflXHV3+ctd+1j0aO2yei39H+X3/gfa/7Kn/BP79rX9szV7Sw+BHwf8S69oMl19m1D4iavay+HPhnogWTZcSan431WODR5JrZQ8j6TpUup69OiOLPSbqRRHXwfFPHXC3CNKpPO82w9CuouVPL6UliMxrbuKp4OlzVkpaJVaqp0YtpzqwXvHxPHPjB4d+GWFnW4t4kwWExapudHJsNUjjM8xV9YxoZXh3PEqM21FYivGjhINp1cRCL5j+zz/gm1/wQ2+CP7GN3onxZ+L17p3x1/aJsBFfabrN1p5j+Hfw2v1CuJPAmgX0bXGo65aS7li8a+IUF/GY4LnQtG8M3AuGuf4+8QvGbOeL41ssyuFTJchneFSlGpfMMwp6prG1qb5adGa+LB4dum7yjWrYiPLb/ADT8bfpXcV+JtHFcOcN06/CXBVZSo18NSr3zrPKLbTWb4yk1GjhKkXeWV4NujLmlTxeKx9PkjT/doADoeDnjPc4HX0Hr1r8XP5NEAOfz+nJye3b369QQKAPIf2gj/wAWF+NwJ/5pD8Su4x/yJms4/hBJ7j+fWvSyb/kcZV/2MsD/AOpVI+p4G/5Lbg//ALKnh/8A9W2EP8rZPuj8f5mv9Aaj28rdra3369N1t1P+l+krpLun+v8AWv52LcYJwACSdoAGCSdygADuc8AfnzXDV3f+J9/n69Nflbc9Whom3taH5o/qR/4IJf8ABOD4mH4qP+1/8bvAmoeFPh7ofhDxN4f+Fug+MtIeyv8Ax9qvjnRbnwxrXiAaFq1us0ngm18HarrumR3d7ax2niG61yE6a13ZWF8W/A/FnjLBfUv9XcrxUMRi6uIoVcfWw1RSjhKeEqRr06PtabssTLEwozcYycqMaT5+WU4I/wA2Pp2fSL4bXCsfCLgnPKGacQY7NsrzDinHZPjI1qGQ4XI8ZTzPBZf9fws3CGdVc3wuBxMqNGrKtl9LBT+sqlWxFBL1j/goj/wb+Nq+qa98Yf2F10+ymvpLjVdd/Z61e/g03TxcyFprmT4Wa/fyR2WnwzSEyJ4O8RXNvYWrtMmia7aWYsNAh8fhTxV5KdPL+J3KShFU6WbU4Oc+VaRWOpQTlNpaPE0YynLR1aUpc9Z+H9HP9oFHBYbAcHeOrxFanQjTwuA8Q8JQqYnEeyilCnHirL8PCdfEyhFKMs5y6lUxFVKEsdgatZ4jHz/lz+Ivwt+JPwd8Tah4I+KvgTxZ8O/F2nMwvPD3jHQdS8P6rGhd0WZLTUre3kntJirG3vbfzrO5QiW3nljIc/seHxuDzChDE4HE0MZQl8NXD1YVabtHbmhJ2klvGVpRejSeh/q/wrxVw1xllWGzzhPPso4jyjEpujmOTY/DZjhJPl5nTdbC1KkadaCklVoVOStSl7tSEZJpcan49fw6f1z29Bmsqn2vV/mj7ej8t3+S2Lifeb6D36c8DB9On4+lccnrr5+t3db6X6LtZW1sz16Xnfd7aPW3W6/rQtRZ2j/ebPOc56exx1PtzXDV0Wt/nvZLtfTpY9Og0l6ppdbb79eq9T9Pf2Pv+CUX7XP7Xt5pmp6L4IvPhl8LrySCS6+K3xKsb3QdDl09yGa58K6RcRQ6540meLd9lfRLT+xWuFEF9rumBvNX4jOeKspymM4TrxxWLjthcNKNSakuZ2qzTcKKTaTU3z2+GEj+XfG76angf4GYfF4TMOIaPF/GNGNSNDgvhLEYfMsxhiY2SpZzjqU55dw/CMuV1o5jW+vqk/aYfLcXZQf9ln7Dv/BPL4C/sJ+EJdM+HOmy+I/iFrVpBB42+LPiS3t38WeJGQrNJp9mIVeDw34XjukWa08OaW5jPl282rXusajCNRf8czrPsdndZTxElToQb9jhabfsqa2UpXs6lXl0dSST1fJGEW4n+Df0i/pTeJn0kc8hi+K8XDKuFsuxFSpw7wPlNWtHI8pUlKEcViHNqrm+cSoydOvmuNXOuarTwOHwGEqfVV95ckke4xnv1/2TjGOOPxPFeIfzWBBJ4746c9Dkdj1PpwOpyKAAkjqeuO49s/w9P84xnAAc4yMY7YPcnjHy4Hp0/LJJAEB4xnnPr3P0U9znvjA9DgAUZ49jn65xz93gcn0PXnigABPQEZ69RjtkcDjOe2efxoAM8+mOxP0+h6ccnJzzgZwAG3PPBzznjn/xygBc8HGOvBJ4Iz169v8A6w9KAFz7fiSP1/Hg9f1oAM9e3Xr3IxzweR6/TBxQAmTxk9D0454A/qTj6dOKAEyemBnjoR6Z9ex7dx+dAC5PHA/MemcZzz27Y+oOaAOO8afDvwB8R7K00z4heBvB3jzTbC7F/Y6d4z8NaL4osLO+8qW2+221prdlfW9vd/Z5ZYBcQxpMYpZIt+x3SvQy/Ns0yirOtlWZZhllarT9lUq5fjMRgqtSlzKfs51MNUpTnT54xlySbjzRUrXSZ0YbF4vBzlPCYrEYWco8kp4atUoTlC6fLKVKUW43SfK21dJ2ukcRpn7OP7PWhX1tquifAf4M6Nqlo4ltdS0r4X+B9OvrWRSMS295aaJDcQuD91opUboc8V6Nfi3ivFUp0MTxNxDiKNRONSjXzrMqtKcXup06mJlCSfaUWjpqZxm1WDp1c0zGpCWkoVMdiZwkuzjKq0/mj2YKEGFGAOB0AAGBwARgAdsegPpXzz11er3u+/c84dnHQjAH49Dgdu3IPXjr3oADjI75z6demO/B6HA4xz1NABnv7jv2454Pv+ozxQAZJx07d+/PTB6E9OvAPB4BAMvWtF0fxJpV/oPiHSdN13Q9XtJbDVdG1ixtNU0rU7G5Ro7my1DTr6Oe0vbO4jZo5re4hlhlQlJEdTitsPiMRhK9LE4WvWw2JoVI1aGIw9WdGvRqwd4VKVWnKNSnOL1jOElKL1TTRdOpUo1IVaNSdKrTkp06lOcoVITi7qUJxalGSeqlFpp7M8cH7Ln7MoKlf2dfgSrKVYMvwj+HwII53A/8I+GBHUHOcjPHU/QPjTjFpp8WcTNPRp59mlmuz/2o9H+286e+b5p/4cMX/wDLj2XSNH0jQLC20nQ9L07R9KsoxDZ6bpVna6dYWcS9IrWys44be3jBY4SKNFBPTnNfPV69fE1Z18TWq4ivUfNUrV6k6tWpL+adSblOT822zzqlSpWnKdWc6s5O8p1JSnOT7ylJtt+rNLJ7ntnjv04HOfXn3H0rIgB25HPX9ACPywPr7YoAQE4HGcn1+ucfln0xx2zQAuTxx+GQOxxgZ746dvfqABOo5Hp0I9M8kn+ft160AeMar+zh+zzrup6hrWu/Ab4MazrOrXdzqOqaxq3wv8D6jqmp6heSvPd3+oX95ok11e3lzNI89xdXMsk80jO8ju7Fj9DQ4u4rwtGlhsNxPxDh8PQpwpUKFDOsyo0aNKnFRp0qVKniYwp04RSjCEIqMYpJJJWPRp5xm9KEKVLNMxp06cVCnTp47EwhCEVaMYQjVUYxikkoxSSSskdr4Q+HXw/+HtpNY+AfA3g/wPZXD77iy8IeGtE8NWlw67sSS2+i2NnFK67mIZ0ZgS2MZrzcfmuaZrUjVzTMswzKrBNQqY/GYnGTina6jPEVKkktFomtjmxGLxeLkpYrFYjEyWiliK1StJLsnUlJr5M7MccYA56gjk544zn149BjmuA5wz049+Mdcc459+uT9OQaAEDHHboO/HT65yDnPsD3oACTjt1x17Y+vXnOM/j0NACk+uPzA7D365OeCOO/qAf5W/8AwV9+KWgfGP8A4KZfti+OfC8kE+ht8Xb7whZXdsyyW1+3w00XR/hrealbSoSk9tqV/wCErq/t54y0c8NwkyMyuGP+0ngPk2K4f8IOActxiksT/YVLH1ITTjKks4xFfN4UZp6xnRpY6FOUGk4yhKL1Vl/fXhpgK2W8FcN4WunGr/Z0cTKMrqUPr1StjYwkns4RxCg1vFxaeqPziHUfUfzr9UP0OGz9f8v6/rS1F0b6n+bVyz+F/wBdTsp7r1l+bP7Hv+DVv9kU3GofHL9tjxPpeYrGI/Av4UXFzECv2u5/s7xL8TdbtPNX5JLa1Xwj4es763+9HqHifT2dcTo38E/TM445afDvh9g63vVH/rHnUIS2hB1sJlGHqW3U5vHYmpTls6WEqpfC1/Mf0jeKOWlk3COGqazbznM4xl9mLqYfL6MrdJS+tV5Qel4YedrpM/s9ycHjGfU47fXtjrwe2BjNfwOfykGTkjHHPfnoPfj/AOuM46kACT2HHfkcfr1HX8e2KADJ9PXuOe3XPXoOh5496ADPPT9Rxyff0BP6ds0AGeOgPbt0xxnnnr3IB9eRkAQnnBA79cccA5PPTrnH86APn743fspfs1/tJWQsfjx8Dfhh8VVjga3tb7xh4R0bVNc02I5+XSfET2y69o5G5vn0vUrR1ydrDOT9BkfFfEvDU3UyDPc0ylt806eCxlajQqPvWwyn9XrelWlNH1HDnG3F3CNV1eGeJM5yRuXNOnl+PxFDDVpd6+EU3hcRstK9GovI/MPxv/wbzf8ABMXxhczXemfC/wAefDx52Z3i8D/FfxelqpY/8sbXxbeeLraFFyQEhjRAMYT1/TsF9IXxOwkFCrmmAzFJJJ47KcFz6aXc8JTwkm31bbfmftGV/Su8ZcthGnVzrK81UUkpZnkeXuo7JL3qmAp4Ccm7auUm229ThdK/4Ntv+CcOn3K3F0nx61uMEH7HqnxSsYraQD7ys+jeEtJvMMDhvLu0OFG1kOSeyt9I7xGqxcYvIaLaa56WVzclfyrYutB21teDWrumj2q30xvGGpDkpvhbDS6VaGSVZTVtU0sRmFeno9dabXdPS32Z8H/+CP3/AATg+CF3aaj4R/ZZ8Aazq9kyyQav8SH1n4p3ccyEFLiK3+IWqeI9MtbhHGUmstPtnjYExlTgD4vOPFvxEzuMqeM4ox9KjO6dHLlRyuDT3i5ZfSw1WcX1U6kr9T8+4h+kP4y8S06lDH8d5thcNUTjLDZKsNkNNwejhKWUUMHXqQa0catWaa3ufpBYafYaVZW2naXZWmnafZW8drZWFjbwWllZ20MYSG3tbW3jiggt4kCxxxQokaIFVVVRgfnc5zqzlUqTlUqTk5TnOTnOcpO7lKUm5Sk3q2223q2fjVWrVr1alavVqVq1WcqlWrVnKpVqTk7ynUqTcpznJtuUpNtt3bbLmTngdB6j+QP0Htn85MwyT1GOoJz29j19jx+WMUAJnJ+pxw3uBkY9c9OOlAEF3b217bXFleW8N3aXcEttd2t1HHPbXNvcI0U9tcQSo8U0EsTNHLFIjRyRMysrKxBcZSjKMoycZRalGUW1KMk7qUWrNNNJpp3T1RdOpUo1IVaU50qtKcalOpTlKFSnUhJShOE4tShOEkpRlFqUZJNNNHjx/Zw/Z3A/5IL8GPw+F/gfPQHP/IC/w69DnFem87zp75vmj9cfi/8A5afVrxA48W3G3Fy9OJM5/wDm01NH+BfwR8O6hbatoHwd+Fmg6paMJLXU9G+H/hHTNQtnBDB7e9stIhuYWDKCrRyowIyPu5GVXNc0rQdOtmWPq05aSp1cZiKkJLs4yqOL+aOfF8a8ZY/D1MJjuLuJ8bhaqcauGxefZriMPVi01y1KNbFzpzVm1aUWrNp7s9U4A4HHfBAx6gHPYDkAjt2rgPmQyCMkAccZOSfx6/zwe2QKAPNviZ8HPhL8aNCPhv4ufDXwN8S9ABkaPSfHPhfRfFFnBJIoV5rSLWLO8FncEAAXNqYZ1wjLIGANdeDx+Oy+p7bA4vE4Orpephq1SjJpbKTpyjzLyldeR9NwvxnxdwRj/wC1ODuJ8+4XzD3VLGZDm2OyqvUjB3jCtPBV6Pt6abd6Vbnpu7vFps/Nvxv/AMEPP+Cbnja6nvovghqPgu6uGLyP4H+IfjnRrVWc5Jh0q61zU9GthnhYrfTookHCRoCQfq8P4h8V0I8ssxjiIr/oJwuGqS0tvNU4VHtu5t9b3P6f4f8Ap6fSdyCjTw748w2d0aaUYxz/AIbyDHVWltz4ulgMLjar7zqYmc5PWUmzhtJ/4IE/8E6dOu1nuvBvxM1uJGVjZar8VPEEVq4UklWbRU0i7Cn+IJdIcAYK81rU8R+J6kWlXwlNu/vQwdK6v29pzx+9M+nxX7Rn6Tlei6VDPOFcvm00q+E4Ry2daN+qWPeNo3V3bmotau6Z9q/Br/gnb+xL8A7u01L4Yfs3fDXR9bsXSWz8S6zpL+NPE9nNHhlnsvEfjW48Q6zYS5CvusL62AYAqBtGPAx3Eme5inHF5nipwldOlCaoUmnupUsOqVOS6e9F6aH4Xxz9J7x+8R6FbCcW+KnFmNy7ExlCvlOAx0cgyivTkmnTxGV5BSyzA4mHK3G2JoVW03du7b+0BtAAAAC8DnAAHAxjgZ7gexPUZ8M/B3rvr1179xc98emMNycZx+fTB559RQAE9B37Yb09fr6nqMZ9gAJ7en+33JwQe/HXPt+FABnAHXnGMse/Oe/Q8HOeMdjggBnjPHTP3vQg4+vPp6DoaADPB4PU9W/HqMnP6Y5JxQAuR1HJ+v45Pp6cj0HSgBAevGB3JbOP8/UfnxQAAgk//FHnsO/4e3GO2QBCwyeD1/vGgB3HTbxnnkY4I9z0xz6kcjk0ALnnoB1zyM9uv/68YxnsKAEPToAP0HIx+B4J6d+9ACHscDg8+2ACeh6jHp0Hp1ADjHTAyD2xjBHJyR2IPXPpk0ABxgcAdMHI4BH5n0/UEdQAHQngfU46fMTnnuPp6HigBR2GMn6jjBH6D8+BnmgA/wCAjn6Edecn1749vXoAGeuAOM8/gSO/uOcnIJJxzQAH1I7jnjpnt39OPfFABwc5weR3BPQY/r35980AJ6YXjjvzxjPfnGAOenOTigAHYYHHU59u3PQ5GPqcgGgBfQ4GfwPPJ45J9+MnB6GgA/AY98D0z/U++PxoAPbAHQ9s/wAPuOO34D6UAA+g9O3YjjrzgA/l0FACccZx2444+934H/6u5waAE9DgEY+vrwPm7eg/TAoAXpnOM59sHg+/GSCM/pyaAFx2wPyHp2GfU+o6/jQAZ9vXpxwCec59/UdcjOeAA/AYzjt1wRz26YGD3PfigBOpAwD0z0I49Bn3GO+D0oAXgdB+oHUDHOe5wO4OD1oAT145I4GenAGDz159jg8c5FAH5o/8FZP27/Dn7AX7HfxD+KB1Wzh+K3ivT77wD8CtAaWJr/WPiRrun3EFjq8doxLS6R4Htnn8Xa7PIq2v2fTLfSzMt/rGmw3H6/4H+GmL8UOPsqyVUKkskwVWnmnEuKUWqVDKMLVjKpQdRWUa+ZTUcBhop8/PWlXUXSw9aUPtvD/hStxbxJg8CqcngMPOGMzWtZ8lPBUpxc6blsqmKlbD0l8XNN1LOFObX+WTPdXN9dz3t7cTXd5eTzXV3dXEjy3Fzc3DvNPcTyyFpJZppXeSWR2Lu7MzEsSa/wBnowhTUaUIRp06cVGnCFowhCFowjGKslGMUlFJWSSStsv74oRUHCMYqMYxUYqKSioqMUopJ6JJJJWS7AOo479PXn+tZHfDb5v9L6/cbmgaPqviPV9K8PaHY3Oqa5r2p2OjaPpllE095qOq6pdx2On2FpCgZ5rm8vLiG3t4kDNJLIiKCSBXn4rEUcLhsRisTVhRw+Go1MRXrVJKMKVCjB1KtWcnpGFOnGU5yeiim2dDq06FOdetONOlRhVq1akmlCnTpxlOc5SeijGKcm27JJs/1h/2Bv2XdK/Y0/ZB+BP7OthHa/2h4B8DWC+Mr20CGHWfiJrpl8Q/EHWEkTmW3vvF+p6xJYGRneLTVsrYSusCGv8AFHxL4xrce8c8ScVVXP2WZ5jVeApzupUMqw1sLldBxekZU8DRoKqkknWdSfKnJo/zi404iq8VcUZzntRy9njcZP6pCV70sBQtQwNJp7ShhadJTsknU55WV7H2CeQcAHpxxwMHk4OPb2A74FfCny4evAAww4Az34IzzyD09OvJoAOxJAxzyMAexyCTzyO55/MAM+w4zxkA8Hp17AZ9BgY6CgBc9ePXPIJxz6HPJAHfHTsKAEJ9geeOncY555zn8iO9AC8DoOfw68HHX8fwJHuAJ+Htyc5ztAP07HGevfmgBc+w79x3PHfuD+vpQAh47d+2Bnkds89MHuPzwAHH90c+45+Yeh9MHk4z7GgAznPTjJ55HI6ckdeefT2NABnrxjgjPGRxnsfXPT09jQADGccAfNnp/j0+vp0HFACZBOODjHcYIwfwwPpx1AHQgC5GecEjPIx78frnqMDOTwcgBkZzgdu/PXvxj64z2PTBoACw56dhnPr6cHp/jxxQAZHoDyQeR3J68dDj8vXGaADIA7c5OM9evt3/APrdsUABI9AfxH0469gMjtnnvQAZBPIH5juee3ufrz160AAIJ4AzjPX1wecDrkdcccdzQAAjuFH4g45+n1PpQAbh049Dk49umPY8YAxjpnFABu9l59/oPT3/ACyRx1ADPIHA4HpxnoP8fbpyQAABI6cc5PUcHHcjuen+I4oACR0OPpxwfXvjnr168ZwcgAWGeg46ZOD39j+uMHqBxQABhgdPXqOMDvxwfoOBk9BQAZB54Jx3IHcnHTtge3fPcgACOThR07+uTjp19f64xQAZX0HfuOevX64HPuKAEyP7q/mv9efzoAdnI6e3OO+OOCev+QeAQBemePXrjnH48D+XOcZoAM9OPbqPUZ6E9+Pr6DmgBpHTrk9z64A7HvjBHXqc4HIAp49PvDPPsO5Iyfr16kUABP6EHqPTPHtjOT9ecZIADI6Y5I9j0J7Z5xzkDNABnjP4duuenXv25P8AiAGR+Wc8jOcj3785z+PuAJjsB2Izxnv798+n4egAp+nPHOcDqcZ59/Q59OwADOewzkDGQeuM5xnpj8h2oACenHTHcYHbHUdjx+FABkccD1zkdgffqD6cDrmgAOPTjGCeB68dfwxxj1oAPfB74HH+z1OfUd88Z+lABj2JxjA/7546+o69BznPcAPwP6dtvckjt+nYjkAM8jI/Uds+/OOD0OOe9ABkccfTkeh98Y6jr+FACZxxge44HHOe/bv2P0OaAF4P5H0PGAOecnnjII5HPrQAEex6n27npk9ecg/y7AB3HA644/H34xg8c+gPJoAMjjOOx6jgnPv6dPzFAH5CftD/APBcf/gn3+yz8YPHfwG+Nfjf4ieFfib8O7+30/xHoUfwk8c6nCGvtLsta0u607VLDS5tN1DT9W0fUtP1HTr23uTBNa3cLO0bb1T954U+jd4p8a5BlnE3DuW5TjcmzalOrg8S8+y2jJqlWqYavCrQq1o1qNWhiKNWjVpzhzRqU5KzVm/0DKPDLizPMvwuaZbhcJXwWMg50arzDCwdozlTnGcJ1FOE6dSE4Ti43UovdWb/ADk+Pv8AwdUfsheEtEv7f9nz4P8Axg+Mfi7yZl0y48XWmjfDDwKtwUZYZ73UZdS8R+LJoY3KyNZw+E7VrmNXi+32bsso/WeGPoTce47EUp8VZ/kHD+A5outDAVMTnOZOF05Rp0o0cHgYyesVUljpqDtL2dRXifYZT4F8Q4mrB5tmGX5dh7rnjh5VMdinFatRgoUaCbV0pPESs9eSWz/jt/bd/bw/aI/4KBfF2f4u/H/xNBe3FlBPpngrwToME+m+Bfh34fmm886H4R0WW6u3gWeRY5dT1fUbvUNe1qeKCTVtTultrSO3/vbw48M+FPC3IY5Fwvg5U41JRrZjmOKlGtmebYqMeT6zjsRGFNScVeNGhRp0sLhoylGhRg51HP8ApHhXhTJ+Esu+oZTQcFKSnicTVanisZWSt7XEVUop6aQpwjClSTapwjzSv8dp94fj/I19u7PzvfzXRbX6f59Xr9dSVpLzV/Pb19bf5uymHUfX29fy59/xrA7YLS9lv89vT9f+D/QD/wAG6v7Ftz+0z+3HpHxe8R6O918K/wBlWGy+JmsXM9uZNO1D4lXM9xbfCrw8ZCpQ3cGsWt/44VQSvk+C2gmAW8iEn8ufSp8QIcIeHNfIsLXUM540lUyihCMrVaWUQjGedYq178kqE6WXN9JZgpx1pu35J428VxyDhCrlmHq8mY8RSqZfRjGVpwwCtLMa1l9iVGUMHfvi7xd4O3+jJxg4x1yeRgEjscjAzx19RX+VR/DwuRyMcY55Hp04PXjHbp14oAN3fgZHfHJHTJB6dvbvjIoAMj0GeeMjrweueOhPTtnr1AAkDrjuD3746e/JPHbnpQAHoeBgZP0xnsCOuD374I60ABPrj3GR025Pcd+P1oAAR1A49ePbj09uuOKAAHqMevBIzzyR1PvjtjqaADg9hzn0Oc59+c45/nxQAZ747YPI9eB1xnnNABn1A4ye3HOM9fxJ/rxQAHHcDnP5YHIOfoO2evAoAMjJHHfA454HUcfh0BHtg0AAI9Oee46epOSe3PXp7CgAPUfpk8DGB29QeCc9vWgA6/05z3yP6noccYzigAJ7fh15/DHsc475HpigBTx9Tgdf5Z6n8j7igBo6dsdznjIOcc56nvz+PBoAXjn/ABPTPX29/Tv0oAOBkj8cnjueOvXOeO3vxQAA5yfQevrj2yBx368mgAHXH1wSeOSPxOMjHqSRmgAyMj8cEnvuGR/UflQAZ5A/TOT6jgdMdjyAB15oAQnnA9ezEH3/AA46DkfjQApPOOvc84xyO3twc8Dr0zQAHpz+IBznnH147gY545oAO3OO2cE49T6duf58DNAAeB/9fAx07c+g9sg84oABwM9O/J9ff0z9c9eTQADqe54/i7evpjkkDj6DigAGOPYYHPXr26Hjv68duAA46jqPf8856YzznkdvSgBC4BI449z/APE0ALgdMDPPHT0+uDgigBeM5wM8+xOPTPt3z+hoADjoQB1/mOgx9Pxx1oAb8vHPtz06A9D7AdehPrQAoxjovYfXjjqP8fqTxQAHHHTPuRkjGOp6j168ZxzigAwM9AMY9+5x2xz1PcfrQAcegPUYH4Z7denBPHr1oADjPQHt+o4PB9sZ/lzQAgx7Djt6c9+/f64z6AACnBI6de+eTzgfTOfyxg8UAGR7YGD9M45xgAfXOeuO4AAdeMDvn8+e3PPX369qAEwuBwM8Y69+nOPY9R9aAF454HPIPTsTzxkEevv60AHHPQ5559fl788dOOevtigA+X144+n8PXP4fn60AAxx06Y6Hp8v9Md+PfBNAAMDkAdeD9Se4H4e3Q+4AYHHA5+nPX0GMgfhnoaADjPQdBjOAfQZ49eMj6YoACF7gDr/AC5I47DoffHB4oATA9up575+bv8AgfpjvwaAFGPQZzjt6kAj6nj1HfpQAcHb0/LPY8Dj/CgD+KL/AIOsP2PfsHiD4Iftv+FdMC22v24+BfxamtYMINW0xNR8RfDLXb3y1O+e/wBKPirw5eXs7KscGgeGbFGLNEo/0S+hHx97XC8R+HGNrXnhpviXIozlr7Cs6OEznDU7vSFKv9RxdOnHeWJxlVrdn9I+BfEPNSzPhmvP3qT/ALUwCk/+Xc3CjjaUb7KNT2FaMVu6taT6n8co78Y/Ln8v6+tf37J2T37adPN9l5n9FQ3fa2ul+xIhO08c89jjI6ds8+/T8cnn/wA/1339fv8Ak+ml8Ovd7Jrt0epOn3h+P8jXO9emu2qe1/x2/XZnZT3j3sunS3fqd/8ADL4aeO/jH8QfB/ws+GPhnU/GXj/x5r+n+GfCfhnRoPP1DV9Z1OdYLa3iBKxQxKzNNeXlzJDZ2FpFcXt9Pb2lvPNH42cZvluQZXj86zjGUcvyvLMLVxmOxleXLSoYejFynN6Nyk7KNOnCMqlWpKNOnCdScYt4zHYPLMFicwx9enhcFg6VTEYnE1XaFKlTinJt2u29oxipSnJqEIuUkn/qO/8ABL/9gzwv/wAE8/2UfBvwTsHsNW8fam58afGXxfZxnZ4o+JWtWtqmrGymkijnfQPD1tbWnhrw1HIkTNpWlx389vFqGo35k/xr8YfErGeKXGuP4hqqpQyuiv7PyDAVHZ4PKMPObo+0inKKxWKnOpi8W02lWrOlGUqVGlb+BOP+MMRxtxHis2qKdPB019VyvCzf+74ClObp80U3FVq8pTr12m17So4KThThb9EMD+6PyPpnpjjt69fXg/lp8SHBycDpzz0BH0zj9eT2FABgeg69OOpx045/r6jFABgHsPr147dvpx6dCcUAHB5AB4xwfTt06fz9MUAJgf3R3x9eeDn6Ejt6dBkAXgg4xwM9Pbg4x6fX+lAC8dABwfx6Z4A68f1oATjqQOhPrwMe2P8APHWgAwOcAHn9R1HIwOvHb9aAD5e4Hft6HHp6/wCe9AB65A+nfOfoOCQOf5igA49B6n0Bxnrgjv149s80AGB6KeM9Pp7HPUcj16cUAHBOMDjIx+vQj6dOOvPSgA4yfu/XOe+fT2J69h2xQAhwT0yc8ZPuewzwDx/McUAGRgjjqeM46c85BweO/H4cUAB29wD37fn+g7888HFAC8egwTyTjqM/n+efagA454B6nt16856E4/DHtQAZB3dMZHfIJ6/gOPpgexoATjI6Y+uBkYORwM/XuP1AAbfQDjsc+np9ce4PfsALkE9j6c5/Tt19c8UAJlck/KPrj8x7nnvkYHFAAenOM5HBP4+mMnPP1yTigA4znHc8ggehJPTI6568c96AF4yPu+vXp1JPT8c8Z49qAA47gHj1AAOD09+3T+VACcL6Dj3z1OO359x3zQAcAdBxx1HrkDOP59Op5FACjGMgDgdyOnPfn0+h9etAB8vbH6eufyHXI9+4oAMjI6DrnkcAe3v17H8jQAny+ifiefxyOtACnBxn/JyBjp0yMZ9/fgAMDnOO/OB0Pc8fUe/egA47Y4yB09j7dDgducZ9aAE6kdPXpg9B7HpnOM/jxwAL0POByOnqAOPYdSM9B6HBoATjPUc4POOf07jnjv6ZzQAvHbHbjj169M9enb6daAEwMZ4+uAATxjt37+nI7cACnBz054PvyOvbjOPX0OaAEIHUY6N2HPX25x65x+dAAcZHPQjHbufY+mOozjt3AAAYxkYJGR2z8v6fQY5xxQAvHHPXb9c5yM8d+vbB+poAABxgg/gP9rOMdM/079wA445HuePQjPp2/THtQAgx7Eew/wB329f5jpjgAOOOmPp/u89PQ+g+nGaADA6Z746DuV9sdf6dcEUAAwcZ56YOBzkt/Pnjtx3oAUY46A8cjHJx9O/tzg+9ACcH07dhwMfT05HHPIwMcAAcdj1zgYH93jj6d+uMA57ABgc8jIOew/iPcg/T8PQ0ALxxyOuR07HtwP8APrzkABjg8dvT0Pt3z6Dp+FAHxr/wUD/ZX0r9tH9jv47fs530dqNU8eeCL4+Cb+7CCLRviPoDReIvh9q7yMA0VvaeLdM0r+0TG0bzaVLf2pkRLh6/QPC3jWv4ecfcM8W0pT9jlmZUlmNOF+bEZRik8JmtBRWkp1MBWr+yTTUa6pTs3BH0XCee1OG+IcrziDlyYXExWJhHepg6t6OLppbNyw86nJe6VRQla6R/ky6zo2q+HdY1bw/r1hc6Vrehanf6NrGl3sL297puqaXdS2OoafeQSBZIbqzu4Jre4idVeOaN0YAqa/3Kw+Io4vD0MXhasK+HxNGliMPWpSUqdajWhGpSq05q8ZQqU5RnCSbTi01oz+9KNSnWp061KcZ0qtONSnUj70Z06kFKE4taOMoyUk1o0UU+6fr6dv1z/j7HFQ79Ldd/6+876fwv1fltY+oP2XP2Of2lP2yvHdt8Pv2c/hP4n+IusGe3j1bU7CzNp4S8KW9wxA1Hxh4vvjb+HvDVgqB3WTVNQgmuyhg0+C8u3itpPhuM+PeEfD/LZ5rxXnmDyqgozdCjUmp47Gyjr7LAYGlGeKxdRuytRpSUObmqypwUprzc64lyPhnCPG51mGHwVJRk6dOb5sTiGldww2Gi3WxE27L93BqN+abjG7X+gb/wSL/4IvfDL/gnNoX/AAsjx3faP8U/2qvE2l/Y9b8eQWj/APCN/DzS7yMfb/CHwxi1CGO/SG5JaDXfF97BZax4jiRLaKw0TSmm024/y78cvpAZx4r4n+yctp18l4Kwdb2mGyyVRfW81rU5fusfnEqUnTcoW5sNgKcqlDCSbnKriayjWh/IXiP4oY/jar9RwkKuXcPUKnNSwbn+/wAbUi/cxOYODcG425qOGg5UqDbk51qijUj+4oGPTHHp/hzzgjp1r+dT8pEIGOoIPBIx2U/l6+vQdOgAuBz09jgdMDOeMe/pyPXFAAcex+oz2HPQe2fbnPGAAGBzyO4IGB6Z5x2B+nTPIoAOOmR9Bj14H4Zx+J70AHHPIHrjHv14/n/jkATA9uPpzhfp757/AOAAvHPI578Y6AZ6e/r3P4ACcHPI79QODgA9QMgfr3oAXgdSMDdgY9Dn9Mdv6ZoADyO3U9eP4u/HfGPc+vWgA+UHOcduw7n29iPoPoaADHpjOPbPQdDj+hGD9BQAHGD0yBnAxwMAfjx0zweB6YAAAZ4x39Mg5HTjt/Ue1AAQDxnIPbIx6joO/wBckc84oACOeT+uOOfbI79DyByetAAe3rnjkdfywcE8ccdvSgAwBgDj05we/TjPGf8AH3ADAI5PB5JJGeR64/z06cUAHGM8c55yO/Hpj64HY9ecgAMdjwO+c++T+o/yCABOnp0B5bryTnp3PfHfIwcigAGO2B0Gc8np04x3/lwARQADGfTA4IOTgZHTnPH16469AAIGfx9Qece4OT7Zz07YwABAJOT36Z/IdMjPcfjzgUALjng+/BHQ9e2ccdc9cAY6gADx3wRxjI/ngnAB9Pc+tABgAAZwPqPf1HOep9McUAGBg5Pb+907dcdzkHP09gAGBgnjn1IwOoHYjocen17gAB16+nJz1wTjI9+/XAz7ABgHPOR65B75/LPrnv26gCDGeD1/2hxz049QST79880AOyPUfmKAEx9MYP8ACfUdv6evPNAC+vTP9R/9Yj6ZxmgA5HGR0Pt7DHXH6/SgBo7fd5749gR6dwM9M5HrwAKAM9Bx04wcEcfjkH34J+oAYyedvPXHXp2Of8j9QBMc8Y7dAMjn/OTz0PFAC8Y7Dgk8A+menXHt3x9CAKfw/wAkf59j19gBpHHODkHJx6e49D7dAe4oAXA4yB1xyMdM4+vHTtkY78AABgduCO3UEDtyd3OPU9x0oAB2+7jGPTrnp6gkcccjP4gAcdMLkn09c4PTk/l9aAD0+7z6DBwcnjnv6/XrQAmOei554xx2x9P/AK44yaADHP8AD6dP93t39gM4JAyewAY7YXr6f7vQHPUdff8AMgCgdOh/mDz688YA9eDnpQAmOmAueM5HrnPXn6DjpQAox6DIx2GegxkDpj09utACYznp3x7fKBxjqPbHv6CgAI4PTqeCPcjOc5Hue2OKAFAzjhT+GfXj8OAOTjnrQAYz6flnHXPXtkYHTjp2oAQjIP3fc4PpnOfrk/Q5+oB/Pr+0J/wbe/sPftG/tBfFD9oPxT46+PXhXVPiz4svPG3iHwZ4D1/wBpHhG18Q6usc/iC80lNT+HWt6xb/ANvav9s12+WfVLpV1LUbw2ogtjDbxf1Nwr9LjxI4S4VybhXBZbwxjqGR4Gnl2EzDM8LmlfH1MJQ5o4WnXdHNsNh5fVaHs8NScKMG6NGnz80+acv1nKPGLibJspwOU4fC5VXhgKEcNRxOKpYupiJUqbfso1OTGUqcvZQ5acbQj7kI3vJOT9T+D/8Awby/8Es/hJd2uqXPwP1n4satZNG8N58YPH3ifxTZs8eG/wBK8MaVd+HfBmoI5AaSLUPDV1EwyojEbMjeHn30qfGjPac6MOJMPkdGompU8hyzB4Kok7r3MZXhi8fSaT0dLFwezbbSa5Mw8X+O8fGVOOaU8vpyTTjl2EoUJWf8tepGtiYNdHCtGS73P2F8A/Dj4f8Awp8M2Hgr4Y+BvB3w68HaUhj0vwp4G8NaN4T8N6chVVK2WiaDZWGm2oYKocw2yF9q7snFfgmZ5rmmd4yrmGc5lj82x9d3rY3MsXiMdi6ru2nUxGJqVa07Nu3NN2PzrF4zGY+vPE47FYnG4iprPEYqvVxFeb/v1a05zl5Xlodnj/dz64x3AHf07d+nTrwHMGPZQcjnH0xjn14xx/QgBxz936fhn/DnHQZ9gABA54A7DI9Bx1449s8DHbgAAB0IH5ADoOnc+59qADuMY6Ht/u4yOMEcf56AAB/u9+x+nHPTAxgcZGPXAAmOT90/h9ecc9eM/T2BoAXHbC+uMexxgc85B7E4+lAB04+XgHqP59vXP1HHOKADjHODjr34GcevI/xoAPX7o654z06k9PX9evNABgei9x06c4H178dzwPWgAxnsuOo49T/Ud/X6cgBj1CnI64z6dTz155+n0oATp/d6enoARzntwe/Az9AB2BxwOM9PXp9Pr7/SgBvGcnHucjA7gfTv05zngigBTgemOeM4P1/POPQ/moAH8D1xz9RjGD0Gex9OeTQAZHqvB6Zx69evfH45NAAfqPXk9OR+OBzz2OOlACDA/u4+o5/LjoQO35HNAC9j0A5yc8HI/wDisg9OMD6ACDr/AAk4x1yc8YJ+hH6+vUAXjPBXHXjB6Y/LgZ4wAfpyAAP06evPP59ePXJPU9wBM8jJHUZGT1+Xt7EH+vegAx9MYHfgfdHsTwAc8dcc0AAOcZI4I75PXAPB/njr045AA+vB6dCB7k9f/wBQORzQApxjgjoBnPpnGOg9fT046gAM8dsHjr0HOfw44/kMGgA6Z5AJz1P16dO/t6nknNAC59COwHPGM/z64x+uOABo4/u+/TgdCPX04PHBHHFAC98gDp1B6fX2zu7cnHSgBpAJP3Ovqf8AGgBxAwcn2J44yfp3yO3bPHWgBcYB75znsTwf89u5oATH5DII49uOg6+nHXr0yANwOMEYyemDkYGeOcn149/QEAdgcZIPI7D+6cf4jP4e4AhA6A8+4B4A44I5x0z9ck4xQAu0ZP8AgO/4duvr69sgBgcHjHGPrxjsOuB6c8c8YADA4wB1J6dwRn+o/LHSgBCB0zjjkcdgR3wenX69uwAAAkHIx1AwB3zgHrx3/wD10ALgcjIHtgdQPQjnsepPuKAEwOOmMADgH155HGcj88dSKAFAHbvnsO+fbp1x2PuKAEKjH4AdB74AOOOTycZ6HigAAHQHIIPp3x+vGemfX3ADHuAcDPQEEFe2enH09M5FAAMYznIHTGOOR6dcHBJ6UAKAOOR7cA9z6DgccdOc9eKAE29M/ToPc+h+nPHfr1AFwPwyc8DuM9hkdsEZJ6UAJgZ644ABxz0HHTrjvkEZAxzyABAx1A5PPHfOc5+uOPrQAuBkZ45GOB74HQdvX2wc0AIAOD7eg4zk+mBjJ54AwM0AGB7cHngenAxjnqPrzjmgAwvr29F9z6dcenbFAClevuc9Aex68D3698HqTQAYGMjHQnoOR19O3Hb8KADHP4k9O56888Y9Bj1OaAADpntjoO4B9umO+evTFACbQB/Pj27Ag5P9M98mgBdvX8Ow5wMdsnn25Hb3AAgD8j2Hbn057DHH50AGBn8Txj6dMjpx24569BQAEAdu3p7jrgdfQYx1HSgAI6/jk4HfOT0z04GCffoaAEwDn6jsD0H0PY/ngDHFAC4BzjuCBwBjt2Hbgc8jmgBML6j8h2/DpjnJ46EYyKAFwP0I6D8eAPr0/XJoAMDnpnI7AYPUf0780AJgH9R0zwGOcdBn8z6ZNAC4659+g56YPOOpP0z156UAGOp9u446AcnGMev6Y5yAGMc54GewHoPb0znHT26gBjGOT1PpwfxHAPt7Y60AIwGT0zx3Ge3tn9SfbtQApHfPTpnGPX0/MjnA70ABGe+cj2BI+uPp6CgAwMZ4746YHPUZHv1xjp14oAQDIznrjOCOvbkD6UAKBjvz+HHBwBke/TqBjt1AEwCc9xweQfTrx35B6enQ4oAUYzgN2PGRnOec8d+vXPXHsAGBnjnIHoM5Oew54B/D6k0AHQ9fzIzj8F6deOgHPHYACBnrjnnoD0z/AI9RnrzjOQAwB1Prjpxk9RwPx7e3SgAI6nJPqOOcH6ckfn2oACBxkj6nbyPyOf0oAQDKjJ9O/HH4cj9OBjjmgBccdeh46cEdB0OD0z79OKAEAHf2zznJ568d8/Xp0NACjk9enTBU8fTHHp/nkATAHftx9Mck8fhnpjAI4FADse5/T/CgBMYzgDH0+mRx6joOfc9BQAuPf1x6jPUg/wA+OvoMCgBD9c5B4x2yM8j26Y5J/KgBoHIwVz7D2HT6DJz0598UALjngr1HYZxjIH6f1B7UAGORkg8jqOORjrz14OOB09RQAuOckjt2/wBrI7/h9fegAxnjIPuB2PXvwT69+woAMd8j64GevqfToPf8qAEI75B4PYenrznqOvbk0AGMEY2jkdAPx598j9ADnqAKB1GQf/1DHHTtx1/nQAYPqOvoOvQ/ie/PrQAmOnzDgDt6bsdenfOe47UALjHU/jgD1J+nr+GaAEI75B65OBzwD3wOg9T1JHfAAhX3X8gO69e34e/oeABcdBkcZ7cdRgYGMZOR+f4AC4+nUdh0HA7dc4+mcD3AADpyOMEcex/nyfbFABgccgjHoOw9eeOc8jv70AIRz1HTuMZwOfr9c8cj1oAMcdVxyeg9fU59hnkdOvcAXHuOuemOfmz+I9+mMmgAA6fMOOMY64/HqOvt1xQAbfQge2B0Pb6Z9ueaAEI65I9en+yR6+nPHcH8ABcdeR+Q4xn+R5/CgAI9wAQQeO55J/Id/TvmgA285z3z0+nH1GODQAmP9odsd+AB79yQfyPWgBcdeR3HQdSB39P/ANRJoAMDnBGDweP9nj06Dnj9OaADGO4/LPYDgf098YoAMe/HPGAfbA49fz6c0AJtzzkemcDqSDnPPOOB6dvSgBSOvI79umd3U+mf5UAJjrhgO/QccYOOeAOnqPWgBSOmCB+A6joR+GfXigAx6nqG7Y6+4wPf35/AAAPRvU9B1ORn1/xx1xQAEcZyOD1x2Bzjj09vSgAxnv6jp33ZPXtxjHcUAJj3H/18ADj26+2QBQAuM4GR09B0GOnX/D0HFABgeo/iPQYwcfTt6+vcUAJxnO5e3pyffp+WevPbFAC8ZwcY59M5JPQfzznkDuM0AIcHOCueT25yDnv+Z/pkUAKcHuB78HPX174I/pQAmMj8+flxyT1xx1xkjPPTHJoAOnRh1z2wck9enbr+lABgDPIBycdO3TPHXpnt3xnBoAAB0BGcc4CnjjI6ZOf/ANfuAHuWGef7vHI6fUDHOaAAcc9eOCSO2Oh79+ePfsaADjuV6k9sYyM/icdee4J70AHHcjPU5xx04I78Z54x0GBQAYBxkg4A9B6devXsMY5x3BoADg45A5OemR9OODnvn8+wAp6dV7DPAGOfx+mD19MGgA+Xplentxnn8umKADtzjvzxx17fiO+cnmgBB3AOenI2+56D3xwcc+2aADgZ+YegII45J9uOR07+1ABjJySOntnPT/JB69CKAE57MuO3Tp+VADucE5Hc/l6c/mM47euQBeeeegP5+vJPTpz+goAQnHcDrweO/Xr26+/sTwAN54GT34B/2QfUd+gHH0FACjd19SD9Rgj/AAPQc9uMUAGffB49CCDn3+vfjoM5yQBef5egxk89z1H16HFAByRj26d/Y8njB9znv7AAc9cjA/xHfPXjHbuOKAEOeCTzg5xjrj689P8Ax38gBefXAzyOM9Txwfw654PfggBj0POfT2Awfyz2/lQAc/Tn69z79+Pz4A7AAM92H+PXB69+vHpigA59emCTjqO/fHqT+HpQAgzx269x/s54zzk5x16gjtQAH6nnuO/3PfGTk/h7YoAOfr+GM4x0z+HI45z1AyAAzgc5556dOffv369z15IAozgd+nsTxn1PfBPToetABk46+n4nHbnGO5IwBg+5AAnIHXHHbqPl6deccH8u3QACCRx1yfTrkk4PsfoeO3YAXnI56np6fe44PtjOP1HAAcnAz+PrkNz1+hwOlABz9ff14PbPrj0/LoAHP94fXHsff05/+sKAFOT0PXoR249iPf8AEj0oATnBOegPYdcD/wCv9c+mDQAZOfx5xjpx6n8/Y9OlAAM+o7cYHPH+9xxzx6ZA9QBB04+gAPXgcHntj1z746gC888/mOhwPfHv0x1oAOe3H9Bgdeeo9859hzQAnPJz6+meAOTzxyACOB6gdgBeT0II5I/Aj37dP5kE5AAhJ556Z9OeG9Dn8OvGfXAApzz3469MfKfy5wc++OwoACDzg55OPbg+/POP89AAOeeQOvboMdev0/PmgBe3XOM5x/Lg8EDjr70AIM5xn1PTtke/1Htn6ZAAk9j646dmxjr07fr14oAOfXH1x6DPf8enH06gB37D17EcL7n/AA9c9wA5z378cdMj36//AF+2KAEyc9c84x8vODz6dB+tAAcjoQB+HXv6DPU/XIOODQApzg8njqMAnHH4dMn8enagAO71/Dj8hn6Hn6cHk0AJz2POfb1PrnPfHI49wQQBRnueuRjjt+fXHI7c+mKAGjOD82PXhf8AHr7ng9iRzQAvzZ5OB17Zxx169Ppzz04oAXnPYDkDpkcgf16egAPJoAO55HA54Hsc+uOnX8DxkABzkcn8dvTv/QfmfSgBDnoCTjHHy+hP4dPT6Z7ACnPrnnHbr27nnJA59OfcAQkg9SB1P3enOevPPGPr+FAC89eAeMg44H+HXv3PegAGSOv48evb6f1/CgBOcdccnsO3X29f05HJoAOecnp9Pf64yOvHTucGgBfm7npg8gDPqDjOOnX69aAE53Yzg/Rc+vPQ89cDv7YJAEyf73/oH/xVACnPJz+h46en684J9s0ALyCR688A4HH659jnP14ADJ7H9OuDjGe3Ofcdc4FACdSPmH1x7Yzz78ds9M8AAAOeevBBHB54PAGeP8g8cUAKev4ggbT/AD/p15wOcYAEGfX/AMdIJ59e2OnsDn3oAOuOc8eh6e/1/wDHsY45yAKT15Ix7HGOMn3x/wDr45oAafTPqMYzzj1wDz2wPYAjigBcngZ9DnHXPTOPfgZ9zwQCQBefX06g+mD1GevP8+poACT05Hvg/keoPBGOeSOaADnjJ656Ag/1/UdPUZyABz+g6g4756469DnHH4UAN988euCSOMckAfXnqAM9aAFP+9+mTk4I7DPtx+GRwAGevPryB1+6M9+noCM4HagAyfU8Y6A++eOT1GMnH+IAc9zzx1U8HkfTnkE/y4oAPbceevBz0zwf1x+HsQBDknr2POOCCB2HPJ6+mR3wKAF9Rn17deffA47kfjwM0AKeRgHnPXB6ZIxn2z69vQ0AHOevb0PU5wfTHTrnoelABz3zz6A8e49MZHXHQnGTQAnOCc/+On9D3HvyMde+QBc+mePUH0PXgf1PTuaAE5z1PcdD19cdMc9eOnuTQAo9zzn07E9OfXHHPpjPGQA/UjHY9x6cY9c54yRQAmT6k59scgdjjkHGeBj+RADn147ZU88c5/Xjr9eKAA567ux/hOMYHOPbrn3x2xQAucdCcc8kZxjB57kYzj60AIPTJHUjAI79eck+4Pr3GKAHevXPQcZweRn8f5detACcjHPX2Pucep7dccD6igA55Ofpwf1HXuOg4x2JNAAM54P4EE++CeMdenoB68gADweSeD2PbpjI6/j1HqSaAEOc9T+R45x26nvjB6enUAXvyeD0GD15I7Hkf/rHqAHtnOfbjgDnjrz74Occ0AISeufU4A7YHB7AjryT+uKAF59SBk5OCcdMckegPPIHfPUgDcnjn8QM9Qcev8gSPYUALnrz0PoOvJ56DnGBg8YGeegAE8dc+ny/nx7DOeOnT3AA9PvdPYdRk/Q/4j16ABnj73Gf7vbpjgjg47DP5HAAc/3jnJ+nHPXHGO/PYjpQAZPr1BPTOOv/ANY8gegx92gBMnJBbjHXH0HPH65x07cUAKMn+LnA4Az9OTk9+/POTigA79eOew6fLxk/UZzzxj0oACeR82OT2HsMcjg8+nQ9xyQAOcdQemcDvwQevPHTjnp1xQAHk/ex1/PIx+I4yOvHTkmgBCT/AHs/gOw5z09ecggd8GgBc47noT0Gcc8Yxx05J6449gAB9SCB7DGOR68g47d/xFAAM46+pPGMdc9Bwe/uQcHvQAA9cN09h74xjHYfTHJ9gAyeu44x1A6Y45GD/wDXwewoACSM4PQ49euce+R7ZPXr0AAE8n58c9NvSgBc8Z546gDHQ/Xp689u3IIAfh1zwR+OOvc5PoR6UAKc9vXrgYxn656deOe2KAGjOc9eueOvC9MHnOPcZ7UAAzn7x7HoMcj69+OOPXHcAC98/TPGPXr16DPTsRkkcgAMkZJJwOvHv2yc4x9fb0oAOQBz+npjr83584OfpkACTzz+OOmD3Of/AK3Y88EAQ54HbB9M9CPX6cjA55xQAvPqep7D9M56fiTnHXIAAc+vXHpjoPfuMng+uOxIAc8fl0Hv79VHHfHPXmgBOeOSDx29cgZAPr+HTjrQAvI6eg4x7euT3+uOM8ZyAJ830PPcHj5eOSfqT1/OgAOeT6dOOnKnk5PbnGPXGRigA+b2z9BweDjqfr68cdqAFOc9T1HGPr15HHpg56ZGcUAHJI69u3HuDk8HPpz9ewAmSR16+o9AM98YJ4+p9waAF5PHYjnpwcDqM8ev58cg0AJzjjBGeeg6nnqT1/rxQAvPqTnHOBjuT0I4Pf245oABnjnjqSR6dQTnj8s/XBNACc859ieB6dTz36HnHUdOaAF55zn24Gc4zxz2/nxk80AHOOD15zjrxx1P8+4GfcAOfX9O+BgdeOowODx+JADn19e3r07kfpnjnGeQAwfx45wOwOeh98fy9aAEOfX8h32npz+ODj2NAC5OOvPsPUcHqRjtnpn0xmgAyeeeQOcj1Ax0I5Jzj8R6ZAAZ9fX2zwORg889/c9OKADnPX9B6r78+vHr2OBQAc9ck8k4x7HHfP4fTgUAHIzyc8ds9uD1/M8jPoATQAc+uevYc8cjr3POOOh7CgBOR34Gc8Dt369Tz179RQAvPPPqOnTnPrzxjGBjp75ADn1557e45xn3684HXBzkAOT+PTA6c9evpz6fjwQAIJ9xz6emMdR6n39x1oADnHXsc8e3Xrn8vyoABnpnueo/+v6dOPfpxQAc5xk+xwOeR+uM9fr2xQAc+p7dceoB7fX+mewAc57859OgI/xOOp55oAPm/Ht0598f/Xx0+lABz7+33eo7enb045z7ABk+p6c8D/6+Dxz1xnnFABz0yfqNo69c+xPtnr+IAYOe57fw/X8uh9enBzwAGT6npxwOefqM46HHHcHkUAAznv7jC5P4g8YyD2/U0AGTwOR69Pfr+Xb3OOgoADk46jkdh7n1z/8AWHIPNABz3Jz9BjngdvX+XIGaAA5B6nHGen457/X0/kALzxyT0zwP8P5c88nHIAE5wDz0HoRknHHuc4z0xQAc9CfTnjg+nPb04zQAc89fU/dHH5+2Mknj8wAHOe/BHZen+HHB459ewAc9ck5yOgB4/LnqcHtnIBHIAuD6n/x3/CgBucYzxwe3fI7kng/X8emABc9eoHJyR2/HnjPHGMcYPWgABznr37HjBx3/AJD0PGTigBMnI5P0x14Hvxxj6HJOBQAZPqTzj7pBPGemf5jqfToAGTxgk9O3tnOQec+mc/XuALnnAP6H1x1/P24xkdaAAk4HJ7cgepGO/wCY756egAmffv8A3fRsfjg46c+2egAEnjntwSPQdyDg9+x9cYwSABJ9+vpx16fj+vHTnIAZ+vftzwF4AOTg8f55AAbunJ7Y44+vbrz+YxyDQAZPHuPTrwT6kdvYnPbFABu6df8Avnr19++P8jOAAyfc8k9O2FxgZ9x74zyDQAZPqe3YD+7kdevI+mSOaADPrk85HAHcY6n/ADnnkHAAZJxknrxxzxkHPb14HPTqaAFzwOef90859vzPB5xkccEAMnB5/Q8cZ/8Ar9B6cZ4AE3ehPQ9sA4Gc85xwRjtx0waAAk4PXvjjn9D2OefbPcZADJzxnrjp9fQgYHOeM9M5oAMnjnPccf72O4HQdD+nOAA3fXH056dO2OBn8R0ANABk4zn8cf7Oex/PIxk+1AATjPJ/756cH3x6H8e3YAUnHr0J6fT1P/1vXJHIAmRnv1weDjOfrgc98Z57HmgABI7nqOCD6c+vOOfqPegAznPp0PBz0/Tj9ee9AC565J7Dp7ZPTI9T7e4xQAAn17Hjafb+Xpznnn0AEzyee/OFPbgjI59Of/rCgAz7kD6e4z6+uOn1zjNAAT1698nHTBbvke+M5HTpQAEn19O3sSR1yOMc56/jQApOPXv27eo+n8zk9MUAJknOPfjHpjPfPU8dxn2oAMkck/3v4fQn3yMcdfXr6AC575PXHQjuB9PbPX8QaAEz9c49D2JHY9Bg9fXr1yAH4kDBI49h+HHXp1yKAFyePXHo3tn0z7fl3oAAecA9cnpx/wDWwc9fp6EgCZ546nHYY6E9QfT37cd6AAk5x9fQjof8D78HjnAAAnPr39B2PXJI9ufQ8ZHAAFuTweOn68/lnuCMdRk4AAkgDr09MjIz1PqO59s45oAN2PXqTwPrkdfYnP8AQUAJuPPB6EdO/X9OeOw/GgA3H3zjjgcHHP4E4/A/SgBd3PQ/p3xjB/nz3FACBifXp6D0H/1/XqOKAF3cgc9eTjr0AOfy654PXpQAhJzjnqOw9Rjoe2efXjpk0ALkkgduOeOx69e/HHXkfiAKT09eewOOPqcdR9celACEkdfTtjj8D6YPtx15+UACcA8evb6+hH5+xIJ60ABOAODjnPT1Ppx7n6YOeaADPBPP5Zx1HfsCPbkdgcAAMnk89PQZ6tjv2wf69M0AJu56HjB6dh145x1Izn0HrQAhdsnnHPoKAP/Z;" parent="SApSs6qKskoGzllOL-Yo-7" vertex="1">
          <mxGeometry x="2.41" y="22.5" width="85.18" height="45" as="geometry" />
        </mxCell>
        <mxCell id="SApSs6qKskoGzllOL-Yo-33" value="" style="shape=cylinder3;whiteSpace=wrap;html=1;boundedLbl=1;backgroundOutline=1;size=15;rounded=1;labelBackgroundColor=#99CCFF;rotation=90;strokeColor=#424C62;strokeWidth=3;" parent="1" vertex="1">
          <mxGeometry x="922.25" y="-485" width="40" height="110" as="geometry" />
        </mxCell>
        <mxCell id="SApSs6qKskoGzllOL-Yo-35" style="edgeStyle=orthogonalEdgeStyle;rounded=0;orthogonalLoop=1;jettySize=auto;html=1;exitX=1;exitY=0.25;exitDx=0;exitDy=0;entryX=0.5;entryY=1;entryDx=0;entryDy=0;entryPerimeter=0;startArrow=blockThin;startFill=1;endArrow=blockThin;endFill=1;strokeColor=#424C62;strokeWidth=3;" parent="1" target="SApSs6qKskoGzllOL-Yo-33" edge="1">
          <mxGeometry relative="1" as="geometry">
            <mxPoint x="834.25" y="-429.75" as="sourcePoint" />
          </mxGeometry>
        </mxCell>
        <mxCell id="SApSs6qKskoGzllOL-Yo-36" value="&lt;font color=&quot;#424c62&quot;&gt;Rabbit MQ&lt;/font&gt;" style="text;html=1;strokeColor=none;fillColor=none;align=center;verticalAlign=middle;whiteSpace=wrap;rounded=0;labelBackgroundColor=none;" parent="1" vertex="1">
          <mxGeometry x="907.25" y="-408" width="70" height="20" as="geometry" />
        </mxCell>
        <mxCell id="SApSs6qKskoGzllOL-Yo-1" value="&lt;font color=&quot;#424c62&quot;&gt;Our Application&lt;/font&gt;" style="text;html=1;align=center;verticalAlign=middle;resizable=0;points=[];autosize=1;strokeColor=none;" parent="1" vertex="1">
          <mxGeometry x="647" y="-336.75" width="100" height="20" as="geometry" />
        </mxCell>
        <mxCell id="SApSs6qKskoGzllOL-Yo-41" style="edgeStyle=orthogonalEdgeStyle;rounded=0;orthogonalLoop=1;jettySize=auto;html=1;exitX=0;exitY=0.5;exitDx=0;exitDy=0;exitPerimeter=0;entryX=0.25;entryY=0;entryDx=0;entryDy=0;startArrow=none;startFill=0;endArrow=blockThin;endFill=1;strokeColor=#424C62;strokeWidth=3;" parent="1" source="ikkZ2RPByDkFbhjG17x8-1" edge="1">
          <mxGeometry relative="1" as="geometry">
            <mxPoint x="584.25" y="-454" as="targetPoint" />
          </mxGeometry>
        </mxCell>
        <mxCell id="SApSs6qKskoGzllOL-Yo-27" value="" style="verticalLabelPosition=bottom;shadow=0;dashed=0;align=center;html=1;verticalAlign=top;strokeWidth=2;shape=mxgraph.mockup.misc.mail2;strokeColor=#6c8ebf;rounded=1;labelBackgroundColor=#99CCFF;fillColor=#dae8fc;" parent="1" vertex="1">
          <mxGeometry x="1037.25" y="-461" width="30" height="20" as="geometry" />
        </mxCell>
        <mxCell id="SApSs6qKskoGzllOL-Yo-46" value="" style="shape=image;verticalLabelPosition=bottom;labelBackgroundColor=#ffffff;verticalAlign=top;aspect=fixed;imageAspect=0;image=data:image/svg+xml,PHN2ZyB4bWxucz0iaHR0cDovL3d3dy53My5vcmcvMjAwMC9zdmciIHdpZHRoPSIyNTYiIGhlaWdodD0iMjcwLjc2OTk4OTAxMzY3MTkiIHZpZXdCb3g9IjAgMCAyNTYgMjcwLjc2OTk4OTAxMzY3MTkiIHByZXNlcnZlQXNwZWN0UmF0aW89InhNaWRZTWlkIj48cGF0aCBkPSJNMjQ1LjQ0IDEwOC4zMDhoLTg1LjA5YTcuNzM4IDcuNzM4IDAgMCAxLTcuNzM1LTcuNzM0di04OC42OEMxNTIuNjE1IDUuMzI3IDE0Ny4yOSAwIDE0MC43MjYgMGgtMzAuMzc1Yy02LjU2OCAwLTExLjg5IDUuMzI3LTExLjg5IDExLjg5NHY4OC4xNDNjMCA0LjU3My0zLjY5NyA4LjI5LTguMjcgOC4zMWwtMjcuODg1LjEzM2MtNC42MTIuMDI1LTguMzU5LTMuNzE3LTguMzUtOC4zMjVsLjE3My04OC4yNDFDNTQuMTQ0IDUuMzM3IDQ4LjgxNyAwIDQyLjI0IDBIMTEuODlDNS4zMjEgMCAwIDUuMzI3IDAgMTEuODk0VjI2MC4yMWMwIDUuODM0IDQuNzI2IDEwLjU2IDEwLjU1NSAxMC41NkgyNDUuNDRjNS44MzQgMCAxMC41Ni00LjcyNiAxMC41Ni0xMC41NlYxMTguODY4YzAtNS44MzQtNC43MjYtMTAuNTYtMTAuNTYtMTAuNTZ6bS0zOS45MDIgOTMuMjMzYzAgNy42NDUtNi4xOTggMTMuODQ0LTEzLjg0MyAxMy44NDRIMTY3LjY5Yy03LjY0NiAwLTEzLjg0NC02LjE5OS0xMy44NDQtMTMuODQ0di0yNC4wMDVjMC03LjY0NiA2LjE5OC0xMy44NDQgMTMuODQ0LTEzLjg0NGgyNC4wMDVjNy42NDUgMCAxMy44NDMgNi4xOTggMTMuODQzIDEzLjg0NHYyNC4wMDV6IiBmaWxsPSIjRjYwIi8+PC9zdmc+;" parent="1" vertex="1">
          <mxGeometry x="922.25" y="-440" width="23.14" height="24.5" as="geometry" />
        </mxCell>
        <mxCell id="SApSs6qKskoGzllOL-Yo-47" value="" style="group" parent="1" vertex="1" connectable="0">
          <mxGeometry x="1167.25" y="-560" width="130" height="240" as="geometry" />
        </mxCell>
        <mxCell id="SApSs6qKskoGzllOL-Yo-26" style="edgeStyle=orthogonalEdgeStyle;rounded=0;orthogonalLoop=1;jettySize=auto;html=1;entryX=0.14;entryY=0.65;entryDx=0;entryDy=0;entryPerimeter=0;startArrow=none;startFill=0;endArrow=blockThin;endFill=1;strokeColor=#424C62;strokeWidth=3;" parent="SApSs6qKskoGzllOL-Yo-47" target="SApSs6qKskoGzllOL-Yo-25" edge="1">
          <mxGeometry x="-70" as="geometry">
            <mxPoint x="-50" y="130" as="sourcePoint" />
            <Array as="points">
              <mxPoint y="130" />
              <mxPoint y="33" />
            </Array>
          </mxGeometry>
        </mxCell>
        <mxCell id="SApSs6qKskoGzllOL-Yo-25" value="&lt;font color=&quot;#424c62&quot;&gt;Customer&lt;/font&gt;" style="verticalLabelPosition=bottom;html=1;verticalAlign=top;align=center;strokeColor=none;shape=mxgraph.azure.user;fillColor=#424C62;" parent="SApSs6qKskoGzllOL-Yo-47" vertex="1">
          <mxGeometry x="77.75999999999999" width="50" height="50" as="geometry" />
        </mxCell>
        <mxCell id="SApSs6qKskoGzllOL-Yo-29" value="&lt;font color=&quot;#424c62&quot;&gt;Customer&lt;/font&gt;" style="verticalLabelPosition=bottom;html=1;verticalAlign=top;align=center;strokeColor=none;shape=mxgraph.azure.user;fillColor=#424C62;" parent="SApSs6qKskoGzllOL-Yo-47" vertex="1">
          <mxGeometry x="78" y="90" width="50" height="50" as="geometry" />
        </mxCell>
        <mxCell id="SApSs6qKskoGzllOL-Yo-30" style="edgeStyle=orthogonalEdgeStyle;rounded=0;orthogonalLoop=1;jettySize=auto;html=1;startArrow=none;startFill=0;endArrow=blockThin;endFill=1;strokeColor=#424C62;strokeWidth=3;" parent="SApSs6qKskoGzllOL-Yo-47" edge="1">
          <mxGeometry x="-70" as="geometry">
            <mxPoint x="-40" y="130" as="sourcePoint" />
            <mxPoint x="81" y="220" as="targetPoint" />
            <Array as="points">
              <mxPoint y="130" />
              <mxPoint y="220" />
              <mxPoint x="81" y="220" />
            </Array>
          </mxGeometry>
        </mxCell>
        <mxCell id="SApSs6qKskoGzllOL-Yo-31" value="&lt;font color=&quot;#424c62&quot;&gt;Customer&lt;/font&gt;" style="verticalLabelPosition=bottom;html=1;verticalAlign=top;align=center;strokeColor=none;shape=mxgraph.azure.user;fillColor=#424C62;" parent="SApSs6qKskoGzllOL-Yo-47" vertex="1">
          <mxGeometry x="80" y="190" width="50" height="50" as="geometry" />
        </mxCell>
        <mxCell id="SApSs6qKskoGzllOL-Yo-28" style="edgeStyle=orthogonalEdgeStyle;rounded=0;orthogonalLoop=1;jettySize=auto;html=1;startArrow=blockThin;startFill=1;endArrow=blockThin;endFill=1;entryX=0.02;entryY=0.8;entryDx=0;entryDy=0;entryPerimeter=0;exitX=0.5;exitY=0;exitDx=0;exitDy=0;exitPerimeter=0;strokeColor=#424C62;strokeWidth=3;" parent="1" source="SApSs6qKskoGzllOL-Yo-33" target="SApSs6qKskoGzllOL-Yo-29" edge="1">
          <mxGeometry relative="1" as="geometry">
            <mxPoint x="127.25" y="130" as="sourcePoint" />
            <mxPoint x="237.25" y="130" as="targetPoint" />
            <Array as="points" />
          </mxGeometry>
        </mxCell>
        <mxCell id="SApSs6qKskoGzllOL-Yo-49" value="&lt;font color=&quot;#424c62&quot;&gt;AWS Amplify&lt;/font&gt;" style="text;html=1;strokeColor=none;fillColor=none;align=center;verticalAlign=middle;whiteSpace=wrap;rounded=0;labelBackgroundColor=none;" parent="1" vertex="1">
          <mxGeometry x="480" y="-696.5" width="105" height="20" as="geometry" />
        </mxCell>
        <mxCell id="SApSs6qKskoGzllOL-Yo-51" style="edgeStyle=orthogonalEdgeStyle;rounded=0;orthogonalLoop=1;jettySize=auto;html=1;exitX=1;exitY=0.5;exitDx=0;exitDy=0;exitPerimeter=0;entryX=0;entryY=0.25;entryDx=0;entryDy=0;startArrow=none;startFill=0;endArrow=blockThin;endFill=1;strokeColor=#424C62;strokeWidth=3;" parent="1" source="ikkZ2RPByDkFbhjG17x8-1" target="SApSs6qKskoGzllOL-Yo-45" edge="1">
          <mxGeometry relative="1" as="geometry">
            <mxPoint x="861.25" y="-636.5" as="sourcePoint" />
          </mxGeometry>
        </mxCell>
        <mxCell id="SApSs6qKskoGzllOL-Yo-55" style="edgeStyle=orthogonalEdgeStyle;rounded=0;orthogonalLoop=1;jettySize=auto;html=1;exitX=0;exitY=0.5;exitDx=0;exitDy=0;exitPerimeter=0;startArrow=blockThin;startFill=1;endArrow=none;endFill=0;strokeColor=#424C62;strokeWidth=3;" parent="1" source="ikkZ2RPByDkFbhjG17x8-4" target="UEzPUAAOIrF-is8g5C7q-149" edge="1">
          <mxGeometry relative="1" as="geometry">
            <mxPoint x="744.25" y="-251" as="targetPoint" />
          </mxGeometry>
        </mxCell>
        <mxCell id="i5n1sK8Q0XAGS0bfE9qC-4" value="" style="rounded=1;whiteSpace=wrap;html=1;" parent="1" vertex="1">
          <mxGeometry x="554" y="-453.87" width="276" height="113.87" as="geometry" />
        </mxCell>
        <mxCell id="i5n1sK8Q0XAGS0bfE9qC-14" value="" style="group" parent="1" vertex="1" connectable="0">
          <mxGeometry x="570" y="-445.5" width="100" height="95.5" as="geometry" />
        </mxCell>
        <mxCell id="i5n1sK8Q0XAGS0bfE9qC-5" value="" style="shape=image;html=1;verticalAlign=top;verticalLabelPosition=bottom;labelBackgroundColor=#ffffff;imageAspect=0;aspect=fixed;image=https://cdn4.iconfinder.com/data/icons/logos-3/600/React.js_logo-128.png" parent="i5n1sK8Q0XAGS0bfE9qC-14" vertex="1">
          <mxGeometry x="10" width="80" height="80" as="geometry" />
        </mxCell>
        <mxCell id="i5n1sK8Q0XAGS0bfE9qC-6" value="&lt;font color=&quot;#424c62&quot;&gt;React Frontend&lt;/font&gt;" style="text;html=1;align=center;verticalAlign=middle;resizable=0;points=[];autosize=1;strokeColor=none;" parent="i5n1sK8Q0XAGS0bfE9qC-14" vertex="1">
          <mxGeometry y="80.5" width="100" height="20" as="geometry" />
        </mxCell>
        <mxCell id="i5n1sK8Q0XAGS0bfE9qC-19" style="edgeStyle=orthogonalEdgeStyle;rounded=0;orthogonalLoop=1;jettySize=auto;html=1;exitX=1;exitY=0.5;exitDx=0;exitDy=0;startArrow=none;startFill=0;endArrow=blockThin;endFill=1;strokeColor=#424C62;strokeWidth=3;entryX=0;entryY=0.5;entryDx=0;entryDy=0;" parent="1" source="i5n1sK8Q0XAGS0bfE9qC-5" target="i5n1sK8Q0XAGS0bfE9qC-12" edge="1">
          <mxGeometry relative="1" as="geometry">
            <mxPoint x="616" y="-607" as="sourcePoint" />
            <mxPoint x="740" y="-520" as="targetPoint" />
          </mxGeometry>
        </mxCell>
        <mxCell id="ikkZ2RPByDkFbhjG17x8-4" value="&lt;font color=&quot;#424c62&quot;&gt;Amazon Comprehend&lt;/font&gt;" style="points=[[0,0,0],[0.25,0,0],[0.5,0,0],[0.75,0,0],[1,0,0],[0,1,0],[0.25,1,0],[0.5,1,0],[0.75,1,0],[1,1,0],[0,0.25,0],[0,0.5,0],[0,0.75,0],[1,0.25,0],[1,0.5,0],[1,0.75,0]];outlineConnect=0;fontColor=#232F3E;gradientColor=#4AB29A;gradientDirection=north;fillColor=#116D5B;strokeColor=#ffffff;dashed=0;verticalLabelPosition=bottom;verticalAlign=top;align=center;html=1;fontSize=12;fontStyle=0;aspect=fixed;shape=mxgraph.aws4.resourceIcon;resIcon=mxgraph.aws4.comprehend;" parent="1" vertex="1">
          <mxGeometry x="962.25" y="-250" width="78" height="78" as="geometry" />
        </mxCell>
        <mxCell id="SApSs6qKskoGzllOL-Yo-44" style="edgeStyle=orthogonalEdgeStyle;rounded=0;orthogonalLoop=1;jettySize=auto;html=1;startArrow=none;startFill=0;endArrow=blockThin;endFill=1;entryX=0;entryY=0.75;entryDx=0;entryDy=0;strokeColor=#424C62;strokeWidth=3;exitX=0.764;exitY=-0.003;exitDx=0;exitDy=0;exitPerimeter=0;" parent="1" source="i5n1sK8Q0XAGS0bfE9qC-4" target="ikkZ2RPByDkFbhjG17x8-12" edge="1">
          <mxGeometry relative="1" as="geometry">
            <mxPoint x="887.25" y="-530.0000000000001" as="targetPoint" />
            <Array as="points">
              <mxPoint x="765" y="-520" />
              <mxPoint x="960" y="-520" />
              <mxPoint x="960" y="-583" />
            </Array>
            <mxPoint x="765" y="-460" as="sourcePoint" />
          </mxGeometry>
        </mxCell>
        <mxCell id="46iZH2eTTwfBNS8DPEK4-2" style="edgeStyle=orthogonalEdgeStyle;rounded=0;orthogonalLoop=1;jettySize=auto;html=1;entryX=-0.003;entryY=0.428;entryDx=0;entryDy=0;entryPerimeter=0;endArrow=blockThin;endFill=1;strokeColor=#424C62;strokeWidth=3;exitX=1.053;exitY=0.525;exitDx=0;exitDy=0;exitPerimeter=0;" edge="1" parent="1" source="ikkZ2RPByDkFbhjG17x8-8" target="i5n1sK8Q0XAGS0bfE9qC-4">
          <mxGeometry relative="1" as="geometry">
            <mxPoint x="480" y="-394.51" as="sourcePoint" />
            <mxPoint x="534.8" y="-395.01" as="targetPoint" />
          </mxGeometry>
        </mxCell>
        <mxCell id="i5n1sK8Q0XAGS0bfE9qC-12" value="" style="shape=image;html=1;verticalAlign=top;verticalLabelPosition=bottom;labelBackgroundColor=#ffffff;imageAspect=0;aspect=fixed;image=https://cdn4.iconfinder.com/data/icons/logos-brands-5/24/flask-128.png" parent="1" vertex="1">
          <mxGeometry x="730" y="-444.5" width="77" height="77" as="geometry" />
        </mxCell>
        <mxCell id="i5n1sK8Q0XAGS0bfE9qC-13" value="&lt;font color=&quot;#424c62&quot;&gt;Flask Backend&lt;/font&gt;" style="text;html=1;align=center;verticalAlign=middle;resizable=0;points=[];autosize=1;strokeColor=none;" parent="1" vertex="1">
          <mxGeometry x="722.5" y="-366" width="90" height="20" as="geometry" />
        </mxCell>
      </root>
    </mxGraphModel>
  </diagram>
</mxfile>
